{"glyphs":{"0":{"ha":782,"x_min":63,"x_max":719,"o":"m 719 331 q 626 78 719 178 q 389 -21 533 -21 q 153 77 244 -21 q 63 328 63 175 q 155 575 63 479 q 392 671 247 671 q 628 576 538 671 q 719 331 719 482 m 660 328 q 584 534 660 453 q 389 615 508 615 q 196 535 269 615 q 122 331 122 456 q 198 119 122 204 q 392 35 274 35 q 585 118 510 35 q 660 328 660 201 z "},"1":{"ha":468,"x_min":50,"x_max":410,"o":"m 410 0 l 88 0 l 92 43 l 213 54 q 219 63 219 57 l 219 604 l 50 601 l 54 638 l 282 671 l 282 63 q 289 54 282 57 l 406 43 l 410 0 z "},"2":{"ha":639,"x_min":50,"x_max":597,"o":"m 597 224 l 576 0 l 56 0 l 50 54 q 307 264 264 224 q 432 469 431 381 q 390 566 432 522 q 279 610 347 610 q 85 496 163 610 l 63 515 q 161 629 99 588 q 304 671 224 671 q 448 618 388 671 q 508 483 508 565 q 491 406 508 444 q 454 339 474 367 q 381 265 435 311 q 297 196 328 219 q 186 113 267 172 q 126 68 147 83 l 126 61 l 247 61 q 438 67 383 61 q 510 87 492 72 q 538 140 529 101 l 560 224 l 597 224 z "},"3":{"ha":567,"x_min":18,"x_max":526,"o":"m 274 236 l 274 233 q 457 179 388 236 q 526 29 526 122 q 416 -184 526 -87 q 158 -281 306 -281 q 52 -255 86 -281 q 18 -196 18 -229 q 35 -153 18 -168 q 78 -137 53 -137 q 130 -162 110 -137 q 154 -226 150 -187 q 201 -231 178 -231 q 373 -160 297 -231 q 449 4 449 -90 q 401 128 449 82 q 260 175 353 175 q 129 146 196 175 l 117 176 q 322 324 281 285 q 396 471 396 393 q 354 569 396 524 q 244 615 313 615 q 54 501 132 615 l 26 521 q 130 630 60 589 q 274 671 200 671 q 416 619 358 671 q 474 492 474 568 q 424 358 474 413 q 274 236 375 303 z "},"4":{"ha":603,"x_min":18,"x_max":621,"o":"m 611 43 l 471 43 l 471 -256 l 406 -256 l 406 43 l 21 43 l 18 93 l 436 667 l 471 667 l 471 100 l 621 100 l 611 43 m 406 100 l 406 549 l 404 549 l 78 100 l 406 100 z "},"5":{"ha":563,"x_min":18,"x_max":521,"o":"m 144 358 q 415 224 329 306 q 500 32 500 143 q 399 -184 500 -87 q 154 -281 299 -281 q 56 -256 94 -281 q 18 -196 18 -232 q 35 -153 18 -168 q 78 -137 53 -137 q 130 -163 110 -137 q 154 -228 150 -189 q 196 -232 178 -232 q 357 -157 283 -232 q 431 11 431 -82 q 342 187 431 117 q 82 304 253 257 l 174 658 l 521 658 l 521 581 l 199 581 l 144 358 z "},"6":{"ha":658,"x_min":51,"x_max":646,"o":"m 615 261 q 533 59 615 139 q 332 -21 451 -21 q 131 74 210 -21 q 51 308 51 168 q 214 697 51 522 q 624 904 376 872 l 646 875 q 326 722 460 843 q 140 424 193 601 l 147 421 q 247 493 188 465 q 364 521 306 521 q 546 445 476 521 q 615 261 615 369 m 540 231 q 479 401 540 338 q 336 464 418 464 q 142 390 232 464 q 129 296 129 353 q 192 101 129 183 q 351 19 256 19 q 487 80 433 19 q 540 231 540 140 z "},"7":{"ha":624,"x_min":44,"x_max":608,"o":"m 608 611 l 185 -258 l 122 -258 l 539 576 l 539 583 l 214 583 q 141 572 161 583 q 111 529 121 561 l 86 446 l 44 446 l 71 658 l 601 658 l 608 611 z "},"8":{"ha":640,"x_min":57,"x_max":583,"o":"m 583 224 q 510 46 583 111 q 301 -19 436 -19 q 128 47 200 -19 q 57 203 57 113 q 109 338 57 283 q 249 436 161 393 l 249 438 q 72 651 72 519 q 142 813 72 746 q 332 881 213 881 q 499 819 429 881 q 569 675 569 758 q 403 442 569 526 l 403 440 q 536 351 489 401 q 583 224 583 300 m 496 650 q 443 785 496 729 q 310 840 390 840 q 185 792 233 840 q 138 675 138 743 q 196 557 138 604 q 372 456 254 510 q 496 650 496 544 m 519 203 q 505 265 519 236 q 473 313 490 294 q 417 355 456 332 q 356 388 378 378 q 282 421 333 399 q 131 222 131 328 q 186 78 131 135 q 340 21 242 21 q 472 72 424 21 q 519 203 519 124 z "},"9":{"ha":658,"x_min":13,"x_max":607,"o":"m 607 342 q 444 -47 607 128 q 35 -254 282 -222 l 13 -225 q 332 -72 199 -193 q 518 226 465 49 l 511 229 q 412 157 471 185 q 294 129 353 129 q 113 205 182 129 q 43 389 43 281 q 125 591 43 511 q 326 671 207 671 q 528 576 449 671 q 607 342 607 482 m 529 354 q 466 549 529 467 q 307 631 403 631 q 172 570 225 631 q 118 419 118 510 q 179 249 118 313 q 322 186 240 186 q 517 260 426 186 q 529 354 529 297 z "}," ":{"ha":317,"x_min":0,"x_max":0,"o":""},"!":{"ha":381,"x_min":119,"x_max":260,"o":"m 243 856 l 206 279 q 191 271 204 271 q 176 279 178 271 l 140 856 q 161 888 138 888 l 222 888 q 243 856 246 888 m 260 50 q 241 1 260 21 q 192 -19 222 -19 q 140 1 160 -19 q 119 50 119 22 q 140 96 119 76 q 192 115 160 115 q 241 96 222 115 q 260 50 260 76 z "},"\"":{"ha":444,"x_min":35,"x_max":457,"o":"m 457 871 l 267 560 l 235 560 l 374 900 l 375 900 l 457 871 m 257 871 l 67 560 l 35 560 l 174 900 l 175 900 l 257 871 z "},"#":{"ha":765,"x_min":-7,"x_max":793,"o":"m 793 569 l 597 569 l 524 293 l 708 293 l 708 254 l 513 254 l 442 -8 l 401 -8 l 472 254 l 215 254 l 146 -8 l 106 -8 l 175 254 l -7 254 l -7 293 l 186 293 l 260 569 l 78 569 l 78 610 l 271 610 l 344 876 l 385 876 l 313 610 l 568 610 l 640 876 l 681 876 l 608 610 l 793 610 l 793 569 m 482 293 l 557 569 l 303 569 l 226 293 l 482 293 z "},"$":{"ha":651,"x_min":60,"x_max":593,"o":"m 224 -18 l 167 -229 l 124 -229 l 182 -12 q 74 17 131 -4 l 60 249 l 94 249 l 158 58 q 197 44 182 49 l 299 421 q 126 517 181 467 q 72 656 72 567 q 148 822 72 758 q 350 885 224 885 q 419 882 381 885 l 458 1026 l 501 1026 q 461 878 463 878 l 489 874 l 563 894 l 563 629 l 525 629 l 476 800 q 444 814 463 808 l 354 474 q 538 376 483 426 q 593 229 593 326 q 510 49 593 118 q 293 -21 426 -21 q 224 -18 268 -21 m 338 408 l 238 36 q 324 29 283 29 q 472 78 415 29 q 528 199 528 126 q 481 330 528 286 q 338 408 433 374 m 314 488 l 404 824 q 315 835 360 835 q 182 792 231 835 q 133 683 133 749 q 179 565 133 607 q 314 488 225 522 z "},"%":{"ha":1036,"x_min":24,"x_max":1013,"o":"m 485 669 q 422 507 485 574 q 254 440 358 440 q 88 507 151 440 q 24 669 24 574 q 87 834 24 767 q 254 901 150 901 q 422 835 358 901 q 485 669 485 768 m 908 888 l 193 -21 l 129 -21 l 846 888 l 908 888 m 1013 197 q 949 33 1013 100 q 782 -35 886 -35 q 615 32 678 -35 q 551 197 551 99 q 615 360 551 293 q 782 426 678 426 q 949 360 885 426 q 1013 197 1013 293 m 428 669 q 381 799 428 747 q 254 850 333 850 q 128 799 175 850 q 81 669 81 747 q 128 544 81 596 q 254 492 176 492 q 380 544 332 492 q 428 669 428 596 m 956 197 q 908 323 956 271 q 782 375 860 375 q 656 323 704 375 q 608 197 608 271 q 656 68 608 119 q 782 17 703 17 q 908 68 861 17 q 956 197 956 119 z "},"&":{"ha":942,"x_min":43,"x_max":936,"o":"m 936 58 q 790 -21 865 -21 q 583 183 682 -21 q 497 81 532 118 q 403 12 461 44 q 281 -21 344 -21 q 110 47 176 -21 q 43 211 43 114 q 108 372 43 296 q 264 472 174 447 q 126 669 126 547 q 188 817 126 753 q 360 882 250 882 q 500 828 446 882 q 554 693 554 774 q 503 571 554 629 q 371 483 453 513 q 499 397 426 464 q 603 272 571 329 l 739 460 q 735 469 742 467 l 638 482 l 633 525 l 896 525 l 892 482 l 814 472 q 804 463 811 472 l 626 240 q 719 87 679 136 q 800 38 760 38 q 915 92 840 38 l 936 58 m 486 688 q 444 797 486 754 q 338 839 403 839 q 235 794 275 839 q 194 690 194 749 q 331 499 194 560 q 486 688 486 557 m 557 219 q 441 370 500 315 q 303 454 382 425 q 167 363 217 425 q 118 232 118 301 q 169 99 118 154 q 310 43 221 43 q 557 219 425 43 z "},"'":{"ha":244,"x_min":35,"x_max":257,"o":"m 257 871 l 67 560 l 35 560 l 174 900 l 175 900 l 257 871 z "},"(":{"ha":549,"x_min":133,"x_max":522,"o":"m 496 -346 q 376 -260 436 -315 q 260 -126 317 -206 q 169 63 204 -47 q 133 290 133 172 q 169 518 133 408 q 260 707 204 628 q 376 841 317 786 q 496 926 436 896 q 522 881 522 888 q 297 656 400 817 q 194 290 194 494 q 297 -75 194 86 q 522 -299 400 -236 l 496 -346 z "},")":{"ha":549,"x_min":26,"x_max":415,"o":"m 54 -346 q 26 -300 26 -307 q 251 -75 149 -236 q 354 290 354 86 q 251 656 354 494 q 26 881 149 817 l 54 926 q 172 841 113 896 q 288 707 232 786 q 380 518 344 628 q 415 290 415 408 q 380 63 415 172 q 288 -126 344 -47 q 172 -260 232 -206 q 54 -346 113 -315 z "},"*":{"ha":478,"x_min":43,"x_max":467,"o":"m 467 643 l 386 615 l 272 649 l 258 631 l 322 535 l 321 446 l 292 439 l 242 513 l 240 626 l 219 632 l 147 549 l 64 519 l 44 546 l 103 619 l 207 651 l 207 674 l 103 708 l 43 779 l 60 804 l 147 778 l 219 688 l 242 694 l 249 810 l 294 882 l 325 872 l 326 783 l 258 688 l 272 669 l 386 700 l 467 674 l 467 643 z "},"+":{"ha":667,"x_min":49,"x_max":618,"o":"m 618 296 l 365 296 l 365 38 l 303 38 l 303 296 l 49 296 l 53 356 l 303 356 l 303 613 l 365 613 l 365 356 l 614 356 l 618 296 z "},",":{"ha":294,"x_min":42,"x_max":239,"o":"m 239 25 q 60 -232 239 -111 l 42 -210 q 154 -22 154 -122 q 145 16 154 -1 q 123 44 136 33 q 97 62 110 54 q 76 73 85 69 q 67 78 67 76 q 82 123 67 104 q 131 142 97 142 q 208 108 178 142 q 239 25 239 75 z "},"-":{"ha":456,"x_min":51,"x_max":407,"o":"m 407 294 l 51 294 l 56 357 l 403 357 l 407 294 z "},".":{"ha":297,"x_min":79,"x_max":218,"o":"m 218 50 q 199 1 218 22 q 149 -19 179 -19 q 99 1 118 -19 q 79 50 79 22 q 99 97 79 78 q 149 117 118 117 q 199 97 179 117 q 218 50 218 76 z "},"/":{"ha":388,"x_min":17,"x_max":368,"o":"m 17 -290 l 313 917 l 368 917 l 72 -290 l 17 -290 z "},":":{"ha":296,"x_min":79,"x_max":218,"o":"m 218 494 q 199 446 218 467 q 149 425 179 425 q 99 446 118 425 q 79 494 79 467 q 99 542 79 522 q 149 561 118 561 q 199 541 179 561 q 218 494 218 521 m 218 50 q 199 1 218 22 q 149 -19 179 -19 q 99 1 118 -19 q 79 50 79 22 q 99 97 79 78 q 149 117 118 117 q 199 97 179 117 q 218 50 218 76 z "},";":{"ha":296,"x_min":42,"x_max":239,"o":"m 218 494 q 199 446 218 467 q 149 425 179 425 q 99 446 118 425 q 79 494 79 467 q 99 542 79 522 q 149 561 118 561 q 199 541 179 561 q 218 494 218 521 m 239 25 q 60 -232 239 -111 l 42 -210 q 154 -22 154 -122 q 145 16 154 -1 q 123 44 136 33 q 97 62 110 54 q 76 73 85 69 q 67 78 67 76 q 82 123 67 104 q 131 142 97 142 q 208 108 178 142 q 239 25 239 75 z "},"<":{"ha":667,"x_min":44,"x_max":608,"o":"m 593 54 l 44 313 l 44 340 l 593 599 l 608 544 l 156 333 l 156 321 l 608 108 l 593 54 z "},"=":{"ha":667,"x_min":49,"x_max":618,"o":"m 614 417 l 53 417 l 49 476 l 618 476 l 614 417 m 618 176 l 49 176 l 53 236 l 614 236 l 618 176 z "},">":{"ha":667,"x_min":58,"x_max":622,"o":"m 622 313 l 74 54 l 58 108 l 511 321 l 511 333 l 58 544 l 74 599 l 622 340 l 622 313 z "},"?":{"ha":476,"x_min":81,"x_max":413,"o":"m 413 672 q 401 604 413 633 q 367 556 390 575 q 325 525 344 536 q 274 500 306 514 q 227 479 240 486 q 192 458 214 472 q 161 424 169 443 q 153 381 153 406 q 247 249 153 315 l 204 249 q 103 407 103 329 q 115 468 103 442 q 153 515 128 494 q 199 547 178 536 q 254 575 219 558 q 315 603 296 593 q 353 635 333 614 q 372 679 372 656 q 314 766 372 731 q 154 801 256 801 q 86 794 121 801 q 81 829 81 806 q 104 871 81 854 q 164 888 128 888 q 343 821 274 888 q 413 672 413 754 m 269 50 q 251 1 269 21 q 201 -19 232 -19 q 149 1 169 -19 q 129 50 129 22 q 149 96 129 76 q 201 115 169 115 q 251 96 232 115 q 269 50 269 76 z "},"@":{"ha":1158,"x_min":56,"x_max":1108,"o":"m 668 97 l 743 435 l 729 435 q 443 74 542 74 q 347 117 388 74 q 306 225 306 161 q 356 418 306 307 q 474 596 407 529 q 581 640 518 640 q 742 510 683 640 l 754 510 l 799 632 l 846 632 l 769 403 l 728 107 q 808 89 757 89 q 992 193 921 89 q 1064 425 1064 297 q 926 731 1064 613 q 597 849 789 849 q 245 698 392 849 q 99 344 99 547 q 230 2 99 140 q 564 -136 361 -136 q 733 -106 642 -136 l 743 -143 q 554 -175 644 -175 q 197 -28 339 -175 q 56 336 56 119 q 215 724 56 563 q 604 886 375 886 q 958 758 808 886 q 1108 431 1108 631 q 1025 169 1108 288 q 806 50 942 50 q 738 58 771 50 q 685 78 704 67 q 668 97 667 89 m 714 479 q 655 563 690 525 q 579 601 619 601 q 497 567 532 601 q 408 413 453 522 q 364 239 364 304 q 392 147 364 176 q 454 118 419 118 q 707 456 528 118 l 714 479 z "},"A":{"ha":818,"x_min":-22,"x_max":840,"o":"m 840 0 l 532 0 l 536 43 l 642 51 q 650 61 653 51 l 563 318 l 231 318 l 143 63 q 147 53 140 53 l 249 43 l 253 0 l -22 0 l -18 43 l 75 53 q 85 63 81 53 l 354 825 l 354 857 l 447 885 l 728 64 q 740 53 731 54 l 836 43 l 840 0 m 544 371 l 403 800 l 396 800 l 249 371 l 544 371 z "},"B":{"ha":788,"x_min":61,"x_max":718,"o":"m 718 238 q 634 60 718 121 q 390 0 550 0 l 61 0 l 65 43 l 172 54 q 179 63 179 57 l 179 806 q 172 814 179 813 l 65 825 l 61 868 l 393 868 q 622 813 549 868 q 694 675 694 758 q 640 531 694 593 q 500 450 586 468 l 500 446 q 658 375 599 431 q 718 238 718 319 m 622 649 q 372 822 622 822 l 253 822 l 253 467 l 400 468 q 560 522 499 469 q 622 649 622 575 m 646 231 q 573 374 646 324 q 382 424 500 424 l 253 424 l 253 58 l 390 43 l 447 47 q 592 101 538 54 q 646 231 646 147 z "},"C":{"ha":865,"x_min":63,"x_max":818,"o":"m 818 247 l 781 -3 l 733 13 q 510 -19 613 -19 q 190 101 317 -19 q 63 413 63 221 q 190 754 63 621 q 519 888 318 888 q 715 865 624 888 l 810 889 l 810 615 l 765 615 l 733 801 q 507 843 633 843 q 244 726 349 843 q 140 429 140 610 q 242 138 140 251 q 517 25 344 25 q 715 65 610 25 l 771 247 l 818 247 z "},"D":{"ha":915,"x_min":61,"x_max":853,"o":"m 853 442 q 822 276 853 354 q 731 136 790 199 q 574 37 671 74 q 354 0 476 0 l 61 0 l 65 43 l 172 54 q 179 63 179 57 l 179 806 q 172 814 179 813 l 65 825 l 61 868 l 346 871 q 720 754 588 872 q 853 442 853 636 m 774 421 q 659 717 774 607 q 331 826 544 826 l 253 826 l 253 58 l 392 44 q 670 158 567 54 q 774 421 774 263 z "},"E":{"ha":776,"x_min":61,"x_max":721,"o":"m 721 232 l 696 0 l 61 0 l 65 43 l 174 54 q 179 63 179 56 l 179 806 q 174 814 179 813 l 65 825 l 61 868 l 694 868 l 694 633 l 649 633 l 624 785 q 615 805 621 799 q 576 816 608 811 q 486 822 543 821 q 314 824 429 824 l 253 824 l 253 467 l 342 467 q 465 469 444 467 q 489 486 485 472 l 519 578 l 553 578 l 526 310 l 493 310 l 485 400 q 478 413 483 410 q 441 419 472 417 q 340 422 410 422 l 253 422 l 253 44 l 285 44 q 479 46 413 44 q 581 52 546 47 q 624 63 617 57 q 635 83 631 69 l 671 232 l 721 232 z "},"F":{"ha":753,"x_min":61,"x_max":694,"o":"m 694 633 l 649 633 l 624 785 q 615 805 621 799 q 576 816 608 811 q 486 822 543 821 q 314 824 429 824 l 253 824 l 253 458 l 342 458 q 465 461 444 458 q 489 478 485 464 l 519 569 l 553 569 l 526 301 l 493 301 l 485 392 q 478 405 483 401 q 441 411 472 408 q 340 414 410 414 l 253 414 l 253 63 q 260 54 253 57 l 394 43 l 399 0 l 61 0 l 65 43 l 172 54 q 179 63 179 57 l 179 806 q 174 814 179 813 l 65 825 l 61 868 l 694 868 l 694 633 z "},"G":{"ha":958,"x_min":63,"x_max":910,"o":"m 910 378 l 906 335 l 803 324 q 796 315 796 321 l 796 78 l 868 74 l 872 39 q 517 -19 676 -19 q 191 101 319 -19 q 63 413 63 221 q 190 754 63 621 q 518 888 317 888 q 714 865 622 888 l 808 889 l 808 615 l 764 615 l 732 801 q 506 843 632 843 q 244 726 347 843 q 140 429 140 610 q 244 138 140 250 q 524 25 347 25 q 724 61 618 25 l 724 315 q 717 324 724 324 l 590 335 l 586 378 l 910 378 z "},"H":{"ha":1004,"x_min":61,"x_max":943,"o":"m 943 0 l 633 0 l 638 43 l 744 54 q 751 63 751 57 l 751 421 l 253 421 l 253 63 q 260 54 253 57 l 367 43 l 371 0 l 61 0 l 65 43 l 172 54 q 179 63 179 57 l 179 806 q 172 814 179 813 l 65 825 l 61 868 l 371 868 l 367 825 l 260 814 q 253 806 253 811 l 253 474 l 751 474 l 751 806 q 744 814 751 813 l 638 825 l 633 868 l 943 868 l 939 825 l 832 814 q 825 806 825 811 l 825 63 q 832 54 825 57 l 939 43 l 943 0 z "},"I":{"ha":460,"x_min":61,"x_max":399,"o":"m 399 0 l 61 0 l 65 43 l 186 54 q 193 63 193 57 l 193 806 q 186 814 193 813 l 65 825 l 61 868 l 399 868 l 394 825 l 274 814 q 267 806 267 811 l 267 63 q 274 54 267 57 l 394 43 l 399 0 z "},"J":{"ha":486,"x_min":-12,"x_max":449,"o":"m 449 868 l 444 825 l 338 814 q 331 806 331 811 l 331 292 q 271 65 331 150 q 101 -21 211 -21 q 18 1 49 -21 q -12 57 -12 22 q 1 97 -12 82 q 38 111 15 111 q 90 89 68 111 q 126 24 115 64 l 128 24 q 227 102 197 39 q 257 288 257 165 l 257 806 q 250 814 257 813 l 129 825 l 125 868 l 449 868 z "},"K":{"ha":861,"x_min":61,"x_max":849,"o":"m 849 0 l 583 0 l 589 43 l 660 51 q 665 56 663 51 q 664 63 667 60 l 375 444 l 253 319 l 253 63 q 260 54 253 57 l 367 43 l 371 0 l 61 0 l 65 43 l 172 54 q 179 63 179 57 l 179 806 q 172 814 179 813 l 65 825 l 61 868 l 371 868 l 367 825 l 260 814 q 253 806 253 811 l 253 390 l 653 808 q 653 814 658 814 l 553 825 l 549 868 l 835 868 l 831 825 l 746 815 q 728 804 736 813 l 421 492 l 756 63 q 772 53 761 54 l 844 43 l 849 0 z "},"L":{"ha":754,"x_min":61,"x_max":703,"o":"m 703 272 l 672 0 l 61 0 l 65 43 l 174 54 q 179 63 179 56 l 179 806 q 174 814 179 813 l 65 825 l 61 868 l 385 868 l 381 825 l 260 814 q 253 806 253 811 l 253 47 l 269 47 q 464 48 401 47 q 563 53 526 49 q 604 64 599 58 q 614 83 610 69 l 656 272 l 703 272 z "},"M":{"ha":1138,"x_min":8,"x_max":1113,"o":"m 1113 0 l 790 0 l 794 43 l 914 46 q 917 49 915 44 l 919 63 l 893 811 l 883 811 l 581 28 l 542 28 l 254 790 l 244 790 l 207 63 q 213 54 207 54 l 331 43 l 335 0 l 8 0 l 15 43 l 143 54 q 151 63 151 54 l 188 792 q 182 808 188 806 l 46 825 l 42 868 l 297 868 l 565 151 l 574 151 l 844 868 l 1096 868 l 1094 825 l 974 821 q 972 819 972 821 q 970 812 971 817 q 969 804 969 807 l 992 63 q 1000 46 993 50 l 1108 43 l 1113 0 z "},"N":{"ha":972,"x_min":43,"x_max":972,"o":"m 972 868 l 968 825 l 843 814 q 836 806 836 814 l 836 -7 l 779 -7 l 240 792 l 235 792 l 235 63 q 242 54 235 57 l 363 43 l 367 0 l 43 0 l 47 43 l 172 54 q 179 63 179 57 l 179 796 q 172 804 179 803 l 63 825 l 58 868 l 271 868 l 779 121 l 781 121 l 781 806 q 774 814 781 814 l 653 825 l 649 868 l 972 868 z "},"O":{"ha":1006,"x_min":63,"x_max":943,"o":"m 943 439 q 820 115 943 250 q 500 -19 697 -19 q 186 103 310 -19 q 63 428 63 226 q 185 753 63 618 q 507 888 308 888 q 819 764 694 888 q 943 439 943 640 m 864 424 q 756 729 864 617 q 500 842 649 842 q 248 733 353 842 q 143 443 143 624 q 249 137 143 249 q 506 25 356 25 q 759 134 654 25 q 864 424 864 243 z "},"P":{"ha":736,"x_min":61,"x_max":704,"o":"m 704 619 q 611 430 704 504 q 379 356 518 356 q 253 363 315 356 l 253 63 q 260 54 253 54 l 394 43 l 399 0 l 61 0 l 65 43 l 172 54 q 179 63 179 54 l 179 806 q 174 814 179 814 l 65 825 l 61 868 l 350 868 q 615 800 525 868 q 704 619 704 732 m 626 610 q 552 771 626 715 q 340 822 478 826 l 253 819 l 253 410 q 382 396 328 396 q 563 453 500 396 q 626 610 626 510 z "},"Q":{"ha":1006,"x_min":63,"x_max":1001,"o":"m 1001 -232 q 833 -251 904 -251 q 642 -199 721 -251 q 499 -19 564 -147 q 188 106 313 -18 q 63 428 63 229 q 185 753 63 618 q 507 888 308 888 q 819 764 694 888 q 943 439 943 640 q 843 144 943 272 q 582 -12 743 17 q 740 -173 649 -136 q 999 -189 831 -210 l 1001 -232 m 864 424 q 756 729 864 617 q 500 842 649 842 q 248 733 353 842 q 143 443 143 624 q 249 137 143 249 q 506 25 356 25 q 759 134 654 25 q 864 424 864 243 z "},"R":{"ha":776,"x_min":61,"x_max":781,"o":"m 463 392 l 676 63 q 689 54 681 56 l 776 43 l 781 0 l 622 0 l 567 96 l 392 379 q 253 382 253 379 l 253 63 q 260 54 253 57 l 367 43 l 371 0 l 61 0 l 65 43 l 172 54 q 179 63 179 57 l 179 806 q 172 814 179 813 l 65 825 l 61 868 l 408 868 q 615 810 544 868 q 686 657 686 751 q 463 392 686 461 m 607 635 q 354 822 607 831 l 253 819 l 253 435 l 417 421 q 555 491 503 436 q 607 635 607 546 z "},"S":{"ha":658,"x_min":53,"x_max":614,"o":"m 614 226 q 530 48 614 117 q 313 -21 446 -21 q 76 8 185 -21 l 53 249 l 100 249 l 151 54 q 322 25 224 25 q 488 76 426 25 q 550 206 550 128 q 503 322 550 278 q 322 414 456 365 q 133 514 193 461 q 72 656 72 567 q 149 824 72 761 q 351 888 225 888 q 504 874 439 888 l 578 894 l 578 629 l 531 629 l 501 806 q 338 843 438 843 q 189 794 242 843 q 136 676 136 746 q 188 558 136 601 q 365 471 240 515 q 556 372 499 424 q 614 226 614 321 z "},"T":{"ha":829,"x_min":38,"x_max":779,"o":"m 779 613 l 735 613 l 710 785 q 703 806 707 800 q 675 817 700 811 q 608 823 650 822 q 476 824 567 824 l 451 824 l 451 63 q 458 54 451 57 l 579 43 l 583 0 l 246 0 l 250 43 l 371 54 q 378 63 378 57 l 378 824 l 350 824 q 191 820 238 824 q 135 810 144 817 q 121 785 125 804 l 85 615 l 38 615 l 63 868 l 779 868 l 779 613 z "},"U":{"ha":979,"x_min":40,"x_max":942,"o":"m 942 868 l 938 825 l 814 814 q 807 806 807 814 l 807 297 q 719 63 807 147 q 482 -21 632 -21 q 243 58 328 -21 q 158 318 158 138 l 158 806 q 151 814 158 814 l 44 825 l 40 868 l 350 868 l 346 825 l 239 814 q 232 806 232 814 l 232 293 q 499 32 232 32 q 689 104 626 32 q 751 288 751 176 l 751 806 q 744 814 751 814 l 624 825 l 619 868 l 942 868 z "},"V":{"ha":813,"x_min":-22,"x_max":835,"o":"m 835 868 l 831 825 l 738 815 q 728 806 732 815 l 451 -6 l 379 -6 l 90 804 q 78 815 88 814 l -18 825 l -22 868 l 283 868 l 279 825 l 174 817 q 165 807 164 814 l 421 69 l 426 69 l 665 803 q 661 813 668 813 l 564 825 l 560 868 l 835 868 z "},"W":{"ha":1251,"x_min":-17,"x_max":1265,"o":"m 1265 868 l 1261 825 l 1168 815 q 1158 806 1163 815 l 917 -6 l 844 -6 l 629 628 l 628 628 l 419 -6 l 343 -6 l 93 804 q 82 815 90 814 l -12 825 l -17 868 l 289 868 l 285 825 l 181 817 q 171 807 168 817 l 390 69 l 392 69 l 600 707 l 571 804 q 558 815 568 814 l 461 825 l 457 868 l 763 868 l 758 825 l 651 817 q 643 807 640 817 l 886 69 l 888 69 l 1096 803 q 1092 813 1099 813 l 985 825 l 981 868 l 1265 868 z "},"X":{"ha":829,"x_min":-4,"x_max":840,"o":"m 840 0 l 536 0 l 539 43 l 638 51 q 644 56 643 51 q 643 64 646 60 l 410 408 l 408 408 l 176 65 q 181 56 174 58 l 281 43 l 286 0 l -4 0 l -1 43 l 90 53 q 106 63 100 54 l 375 443 l 119 804 q 103 815 114 813 l 17 825 l 11 868 l 311 868 l 308 825 l 208 817 q 201 813 203 817 q 203 804 200 808 l 419 488 l 421 488 l 635 806 q 631 815 638 813 l 528 825 l 522 868 l 813 868 l 810 825 l 719 815 q 704 806 710 814 l 453 451 l 731 64 q 747 53 736 56 l 835 43 l 840 0 z "},"Y":{"ha":829,"x_min":-6,"x_max":831,"o":"m 831 868 l 826 825 l 735 815 q 719 806 725 814 l 451 371 l 451 63 q 458 54 451 57 l 579 43 l 583 0 l 246 0 l 250 43 l 371 54 q 378 63 378 57 l 378 368 l 101 804 q 85 815 96 813 l -1 825 l -6 868 l 292 868 l 288 825 l 189 817 q 183 804 176 817 l 417 415 l 424 415 l 660 806 q 656 815 663 813 l 556 825 l 551 868 l 831 868 z "},"Z":{"ha":718,"x_min":26,"x_max":696,"o":"m 696 256 l 667 0 l 26 0 l 26 39 l 589 822 l 589 824 l 438 824 q 265 823 321 824 q 176 817 210 822 q 136 806 142 813 q 128 785 131 800 l 103 633 l 57 633 l 57 868 l 679 868 l 679 826 l 119 46 l 119 44 l 256 44 q 450 46 383 44 q 553 52 517 47 q 597 63 589 57 q 608 83 604 69 l 647 256 l 696 256 z "},"[":{"ha":511,"x_min":136,"x_max":478,"o":"m 478 -299 l 136 -299 l 136 903 l 478 903 l 478 853 l 196 853 l 196 -249 l 478 -249 l 478 -299 z "},"\\":{"ha":388,"x_min":18,"x_max":369,"o":"m 369 -290 l 314 -290 l 18 917 l 74 917 l 369 -290 z "},"]":{"ha":511,"x_min":33,"x_max":375,"o":"m 33 -299 l 33 -249 l 315 -249 l 315 853 l 33 853 l 33 903 l 375 903 l 375 -299 l 33 -299 z "},"^":{"ha":556,"x_min":88,"x_max":468,"o":"m 468 701 l 432 701 q 279 918 281 918 l 276 918 l 124 701 l 88 701 l 256 989 l 300 989 l 468 701 z "},"_":{"ha":653,"x_min":-7,"x_max":660,"o":"m 660 -68 l -7 -68 l -3 -6 l 656 -6 l 660 -68 z "},"`":{"ha":554,"x_min":100,"x_max":349,"o":"m 349 701 l 319 701 l 100 947 l 208 947 l 349 701 z "},"a":{"ha":611,"x_min":57,"x_max":607,"o":"m 607 54 q 493 -19 546 -19 q 435 7 458 -19 q 418 86 411 33 l 413 86 q 235 -21 306 -21 q 110 23 161 -21 q 60 136 60 67 q 141 281 60 225 q 429 393 222 336 l 429 406 q 396 546 433 504 q 272 588 358 588 q 186 572 225 588 q 147 542 147 556 l 156 525 q 165 490 165 508 q 149 456 165 471 q 111 440 133 440 q 73 453 89 440 q 57 492 57 467 q 133 588 57 540 q 296 635 210 635 q 451 583 401 635 q 494 399 500 531 l 482 68 q 510 32 481 32 q 583 82 536 32 l 607 54 m 418 138 l 426 351 q 198 263 267 306 q 129 146 129 219 q 161 65 129 94 q 246 36 193 36 q 279 41 263 36 q 308 51 296 46 q 338 69 319 56 q 363 89 356 83 q 392 114 371 94 q 418 138 413 133 z "},"b":{"ha":706,"x_min":-25,"x_max":650,"o":"m 650 322 q 559 74 650 169 q 333 -21 468 -21 q 183 15 256 -21 l 176 15 l 126 -29 l 111 -29 l 111 883 q 104 893 111 893 l -25 904 l -21 939 l 176 968 l 176 546 l 181 546 q 389 635 267 635 q 574 548 499 635 q 650 322 650 461 m 579 310 q 519 505 579 429 q 363 581 460 581 q 176 496 264 581 l 176 85 q 340 25 261 25 q 514 105 449 25 q 579 310 579 185 z "},"c":{"ha":619,"x_min":53,"x_max":575,"o":"m 575 135 q 476 25 540 65 q 333 -15 411 -15 q 133 69 214 -15 q 53 293 53 153 q 144 536 53 438 q 365 635 235 635 q 509 599 451 635 q 567 515 567 564 q 551 469 567 486 q 513 451 536 451 q 461 480 475 451 q 471 558 447 508 l 471 561 q 356 592 432 592 q 191 509 257 592 q 125 308 125 426 q 188 117 125 193 q 350 40 251 40 q 547 154 468 40 l 575 135 z "},"d":{"ha":735,"x_min":56,"x_max":717,"o":"m 717 33 l 713 4 l 529 -19 l 529 68 l 525 68 q 317 -21 439 -21 q 131 66 207 -21 q 56 292 56 153 q 147 540 56 444 q 372 635 238 635 q 522 599 450 635 l 529 599 l 529 889 q 522 899 529 899 l 393 914 l 397 943 l 594 968 l 594 58 q 601 42 594 42 l 717 33 m 529 118 l 529 529 q 365 589 444 589 q 192 509 257 589 q 126 304 126 429 q 186 109 126 185 q 343 33 246 33 q 529 118 442 33 z "},"e":{"ha":624,"x_min":53,"x_max":575,"o":"m 575 135 q 476 25 540 65 q 333 -15 411 -15 q 133 69 214 -15 q 53 293 53 153 q 144 535 53 436 q 361 635 236 635 q 511 583 454 635 q 568 449 568 531 q 563 379 568 407 l 131 385 q 125 308 125 346 q 188 117 125 193 q 350 40 251 40 q 547 154 468 40 l 575 135 m 494 425 q 460 547 499 500 q 346 593 421 593 q 224 544 283 593 q 140 417 165 494 l 494 425 z "},"f":{"ha":406,"x_min":17,"x_max":514,"o":"m 514 894 q 501 860 514 875 q 468 846 489 846 q 422 866 442 846 q 396 919 403 886 l 394 926 l 371 929 q 248 838 292 913 q 204 638 204 763 l 204 607 l 401 607 l 392 556 l 204 556 l 204 60 q 210 51 204 51 l 339 43 l 343 0 l 28 0 l 32 43 l 133 51 q 139 60 139 51 l 139 556 l 17 561 l 26 607 l 131 607 l 133 654 q 216 876 139 783 q 407 968 293 968 q 483 949 451 968 q 514 894 514 929 z "},"g":{"ha":600,"x_min":14,"x_max":599,"o":"m 599 536 l 460 563 l 458 558 q 510 415 510 500 q 440 263 510 326 q 271 199 369 199 q 207 203 225 199 q 131 117 131 164 q 153 72 131 89 q 214 56 175 56 l 371 56 q 526 10 475 56 q 576 -106 576 -35 q 487 -276 576 -208 q 268 -343 397 -343 q 83 -295 151 -343 q 14 -172 14 -247 q 50 -73 14 -117 q 133 -4 86 -29 l 133 -1 q 80 31 101 7 q 58 90 58 56 q 92 161 58 126 q 167 215 125 196 l 167 217 q 76 290 113 238 q 40 408 40 343 q 109 569 40 503 q 279 636 178 636 q 410 608 351 636 l 599 606 l 599 536 m 513 -131 q 356 -7 513 -12 l 340 -7 l 333 -7 l 329 -7 q 319 -8 328 -7 q 298 -8 311 -8 q 256 -9 285 -8 q 186 -10 226 -10 q 111 -66 144 -28 q 78 -156 78 -104 q 140 -261 78 -225 q 290 -297 203 -297 q 447 -248 381 -297 q 513 -131 513 -199 m 436 418 q 382 563 436 517 q 278 597 339 597 q 158 546 201 597 q 114 417 114 494 q 182 264 114 308 q 275 236 221 236 q 371 267 329 236 q 436 418 436 315 z "},"h":{"ha":722,"x_min":3,"x_max":697,"o":"m 697 0 l 417 0 l 421 43 l 522 51 q 528 60 528 51 l 528 392 q 382 575 528 575 q 190 478 288 575 l 190 60 q 196 51 190 51 l 297 43 l 301 0 l 21 0 l 25 43 l 119 51 q 125 60 125 51 l 125 874 q 123 887 125 882 q 118 892 121 892 l 110 894 l 3 904 l 7 939 l 190 968 l 190 531 l 197 531 q 419 635 325 635 q 544 586 496 635 q 593 436 593 538 l 593 60 q 599 51 593 51 l 693 43 l 697 0 z "},"i":{"ha":351,"x_min":22,"x_max":321,"o":"m 222 842 q 205 793 222 814 q 160 772 188 772 q 117 792 133 772 q 100 839 100 813 q 117 888 100 867 q 163 908 135 908 q 206 888 189 908 q 222 842 222 868 m 321 0 l 33 0 l 38 43 l 139 51 q 144 60 144 51 l 144 540 q 142 553 144 549 q 138 558 140 558 l 129 561 l 22 571 l 26 606 l 210 635 l 210 60 q 215 51 210 51 l 317 43 l 321 0 z "},"j":{"ha":336,"x_min":-79,"x_max":218,"o":"m 218 842 q 201 793 218 814 q 156 772 183 772 q 113 792 129 772 q 96 839 96 813 q 113 888 96 867 q 158 908 131 908 q 201 888 185 908 q 218 842 218 868 m 206 -74 q 158 -285 203 -207 q 17 -362 113 -362 q -51 -342 -22 -362 q -79 -283 -79 -322 q -64 -245 -79 -261 q -26 -229 -49 -229 q 35 -318 32 -229 q 116 -258 92 -310 q 140 -89 140 -207 l 140 540 q 138 553 140 549 q 133 558 136 558 l 125 561 l 18 571 l 22 606 l 206 635 l 206 -74 z "},"k":{"ha":650,"x_min":3,"x_max":635,"o":"m 635 0 l 503 0 l 436 100 l 271 321 l 190 250 l 190 60 q 196 51 190 51 l 297 43 l 301 0 l 21 0 l 25 43 l 119 51 q 125 60 125 51 l 125 874 q 123 887 125 882 q 118 892 121 892 l 110 894 l 3 904 l 7 939 l 190 968 l 190 303 l 461 556 l 463 558 l 461 561 l 358 572 l 354 614 l 621 614 l 617 571 l 546 561 q 533 556 539 561 l 314 358 l 544 60 q 558 50 551 50 l 631 43 l 635 0 z "},"l":{"ha":357,"x_min":4,"x_max":317,"o":"m 317 0 l 29 0 l 33 43 l 135 51 q 140 60 140 51 l 140 874 q 138 887 140 882 q 133 892 136 892 l 125 894 l 4 904 l 8 939 l 206 968 l 206 60 q 211 51 206 51 l 313 43 l 317 0 z "},"m":{"ha":1111,"x_min":19,"x_max":1075,"o":"m 1075 0 l 801 0 l 806 43 l 900 51 q 906 60 906 51 l 906 406 q 776 576 906 576 q 675 549 726 576 q 589 486 624 521 l 589 60 q 594 51 589 51 l 703 43 l 707 0 l 419 0 l 424 43 l 518 51 q 524 60 524 51 l 524 406 q 394 576 524 576 q 293 549 344 576 q 207 486 242 521 l 207 60 q 213 51 207 51 l 321 43 l 325 0 l 38 0 l 42 43 l 136 51 q 142 60 142 51 l 142 540 q 140 553 142 549 q 135 558 138 558 l 126 561 l 19 571 l 24 606 l 207 635 l 207 529 l 214 529 q 428 636 333 636 q 539 594 497 636 q 581 521 568 565 l 583 521 q 803 636 704 636 q 925 586 875 636 q 971 444 971 540 l 971 60 q 976 51 971 51 l 1071 43 l 1075 0 z "},"n":{"ha":736,"x_min":19,"x_max":721,"o":"m 721 0 l 433 0 l 438 43 l 539 51 q 544 60 544 51 l 544 392 q 399 575 544 575 q 207 478 304 575 l 207 60 q 213 51 207 51 l 314 43 l 318 0 l 38 0 l 42 43 l 136 51 q 142 60 142 51 l 142 550 q 135 560 142 560 l 19 571 l 24 606 l 207 635 l 207 531 l 214 531 q 436 635 342 635 q 561 586 513 635 q 610 436 610 538 l 610 60 q 615 51 610 51 l 717 43 l 721 0 z "},"o":{"ha":719,"x_min":58,"x_max":667,"o":"m 667 311 q 578 72 667 164 q 360 -21 490 -21 q 144 68 231 -21 q 58 303 58 157 q 147 542 58 450 q 365 635 235 635 q 581 546 494 635 q 667 311 667 457 m 597 308 q 522 522 597 447 q 363 589 456 589 q 194 507 260 589 q 128 306 128 425 q 207 88 128 167 q 363 25 269 25 q 531 107 465 25 q 597 308 597 189 z "},"p":{"ha":724,"x_min":7,"x_max":668,"o":"m 668 322 q 577 74 668 169 q 351 -21 486 -21 q 201 15 274 -21 l 194 15 l 194 -282 q 200 -290 194 -290 l 315 -299 l 319 -342 l 18 -342 l 22 -299 l 124 -290 q 129 -282 129 -290 l 129 550 q 122 560 129 560 l 7 571 l 11 606 l 194 635 l 194 546 l 199 546 q 407 635 285 635 q 592 548 517 635 q 668 322 668 461 m 597 310 q 538 505 597 429 q 381 581 478 581 q 194 496 282 581 l 194 85 q 358 25 279 25 q 532 105 467 25 q 597 310 597 185 z "},"q":{"ha":713,"x_min":56,"x_max":706,"o":"m 706 -342 l 404 -342 l 408 -299 l 524 -290 q 529 -282 529 -290 l 529 68 l 525 68 q 317 -21 439 -21 q 131 66 207 -21 q 56 292 56 153 q 147 540 56 444 q 372 635 238 635 q 522 599 450 635 l 529 599 l 579 636 l 594 636 l 594 -282 q 600 -290 594 -290 l 701 -299 l 706 -342 m 529 118 l 529 529 q 365 589 444 589 q 192 509 257 589 q 126 304 126 429 q 186 109 126 185 q 343 33 246 33 q 529 118 442 33 z "},"r":{"ha":467,"x_min":26,"x_max":468,"o":"m 468 582 q 453 545 468 561 q 419 529 439 529 q 384 541 400 529 q 365 569 368 553 q 279 490 328 547 q 207 386 231 432 l 207 60 q 213 51 207 51 l 328 43 l 332 0 l 38 0 l 42 43 l 136 51 q 142 60 142 51 l 142 550 q 135 560 142 560 l 26 571 l 31 606 l 207 635 l 207 446 l 210 446 q 406 640 322 640 q 451 622 435 640 q 468 582 468 604 z "},"s":{"ha":544,"x_min":67,"x_max":479,"o":"m 479 168 q 419 35 479 90 q 242 -21 358 -21 q 75 7 156 -21 l 67 179 l 114 179 l 138 50 q 256 19 189 19 q 376 57 329 19 q 422 151 422 94 q 410 203 422 182 q 372 241 399 225 q 322 266 344 257 q 260 288 300 275 q 190 313 217 301 q 133 344 164 324 q 88 394 103 364 q 74 467 74 425 q 129 588 74 540 q 281 636 185 636 q 403 618 336 636 l 444 624 l 461 436 l 414 436 l 390 565 q 267 596 339 596 q 167 564 204 596 q 131 485 131 532 q 141 442 131 461 q 163 410 151 422 q 201 386 175 399 q 244 367 228 374 q 294 350 261 361 q 363 324 338 336 q 419 292 389 313 q 465 240 450 271 q 479 168 479 210 z "},"t":{"ha":433,"x_min":11,"x_max":401,"o":"m 401 32 q 257 -21 331 -21 q 113 124 110 -21 l 117 556 l 11 560 l 15 596 l 117 613 l 126 728 l 182 725 l 181 607 l 400 607 l 390 556 l 181 556 q 175 136 175 138 q 195 58 174 82 q 268 33 217 33 q 390 71 321 33 l 401 32 z "},"u":{"ha":722,"x_min":15,"x_max":715,"o":"m 715 33 l 711 4 l 528 -21 l 528 85 l 521 85 q 299 -19 393 -19 q 174 29 222 -19 q 125 179 125 78 l 126 556 q 121 564 126 564 l 19 572 l 15 615 l 193 615 l 190 224 q 336 40 190 40 q 528 138 431 40 l 528 556 q 522 564 528 564 l 421 572 l 417 615 l 593 615 l 593 58 q 600 42 593 42 l 715 33 z "},"v":{"ha":611,"x_min":-15,"x_max":636,"o":"m 636 615 l 632 572 l 561 563 q 551 553 556 563 l 344 -6 l 275 -6 l 69 551 q 57 563 67 561 l -11 572 l -15 615 l 222 615 l 218 572 l 140 564 q 132 554 131 561 l 318 54 l 497 550 q 493 560 500 560 l 406 572 l 401 615 l 636 615 z "},"w":{"ha":938,"x_min":-18,"x_max":956,"o":"m 956 615 l 951 572 l 878 563 q 868 553 872 563 l 689 -6 l 618 -6 l 474 403 l 318 -6 l 247 -6 l 68 551 q 56 563 65 561 l -14 572 l -18 615 l 222 615 l 218 572 l 142 564 q 133 554 132 561 l 292 54 l 447 469 l 418 551 q 406 563 415 561 l 336 572 l 332 615 l 575 615 l 571 572 l 493 564 q 485 554 483 561 l 661 54 l 813 550 q 808 560 815 560 l 732 572 l 728 615 l 956 615 z "},"x":{"ha":647,"x_min":6,"x_max":646,"o":"m 646 0 l 407 0 l 411 43 l 481 51 q 482 61 488 53 l 321 279 l 319 279 l 153 65 q 157 56 149 58 l 225 43 l 229 0 l 6 0 l 10 43 l 71 53 q 86 63 79 53 l 290 308 l 94 551 q 75 563 85 561 l 11 572 l 7 615 l 244 615 l 240 572 l 171 564 q 169 554 164 563 l 328 343 l 329 343 l 490 550 q 486 560 494 557 l 418 572 l 414 615 l 638 615 l 633 572 l 569 563 q 557 553 564 563 l 358 314 l 558 64 q 578 53 568 54 l 642 43 l 646 0 z "},"y":{"ha":606,"x_min":-15,"x_max":631,"o":"m 294 -42 l 69 551 q 57 563 67 561 l -11 572 l -15 615 l 224 615 l 219 572 l 146 564 q 138 554 135 564 l 325 47 l 494 550 q 490 560 497 560 l 407 572 l 403 615 l 631 615 l 626 572 l 557 563 q 547 553 551 563 l 358 15 l 299 -193 q 234 -326 274 -283 q 133 -368 194 -368 q 74 -349 99 -368 q 49 -303 49 -331 q 64 -260 49 -276 q 107 -243 79 -243 q 178 -310 158 -243 q 258 -165 222 -290 l 294 -42 z "},"z":{"ha":571,"x_min":31,"x_max":557,"o":"m 531 582 l 113 42 l 179 42 q 326 42 279 42 q 404 47 372 43 q 444 58 436 51 q 457 76 451 64 l 515 226 l 557 226 l 501 0 l 31 0 l 31 33 l 449 574 l 385 574 q 238 572 289 574 q 158 567 188 571 q 121 557 128 563 q 113 539 114 551 l 97 385 l 56 385 l 56 615 l 531 615 l 531 582 z "},"{":{"ha":453,"x_min":39,"x_max":414,"o":"m 414 -317 q 230 -257 292 -310 q 168 -112 168 -204 q 202 31 168 -50 q 236 156 236 111 q 53 268 236 257 l 39 303 l 53 336 q 236 449 236 344 q 202 574 236 493 q 168 718 168 656 q 414 922 168 906 l 414 885 q 289 839 335 876 q 243 750 243 801 q 277 624 243 706 q 311 479 311 542 q 254 365 311 414 q 133 308 197 315 l 133 294 q 255 236 199 285 q 311 124 311 188 q 277 -18 311 63 q 243 -143 243 -99 q 289 -234 243 -194 q 414 -282 335 -274 l 414 -317 z "},"|":{"ha":386,"x_min":165,"x_max":221,"o":"m 165 -256 l 165 951 l 221 951 l 221 -256 l 165 -256 z "},"}":{"ha":453,"x_min":39,"x_max":414,"o":"m 414 303 l 400 268 q 217 156 217 257 q 251 31 217 111 q 285 -112 285 -50 q 223 -257 285 -204 q 39 -317 161 -310 l 39 -282 q 164 -234 118 -274 q 210 -143 210 -194 q 176 -18 210 -99 q 142 124 142 63 q 198 236 142 188 q 319 294 254 285 l 319 308 q 199 365 256 315 q 142 479 142 414 q 176 624 142 542 q 210 750 210 706 q 164 839 210 801 q 39 885 118 876 l 39 922 q 285 718 285 906 q 251 574 285 656 q 217 449 217 493 q 400 336 217 344 l 414 303 z "},"~":{"ha":556,"x_min":61,"x_max":494,"o":"m 494 375 q 371 231 468 231 q 265 280 331 231 q 181 329 199 329 q 133 312 150 329 q 96 238 115 294 l 61 238 q 185 382 88 382 q 292 333 225 382 q 375 283 358 283 q 422 301 404 283 q 458 375 439 318 l 494 375 z "}," ":{"ha":317,"x_min":0,"x_max":0,"o":""},"¡":{"ha":381,"x_min":119,"x_max":260,"o":"m 260 818 q 241 772 260 792 q 192 753 222 753 q 140 772 160 753 q 119 818 119 792 q 140 867 119 846 q 192 888 160 888 q 241 867 222 888 q 260 818 260 847 m 243 13 q 222 -19 246 -19 l 161 -19 q 140 13 138 -19 l 176 589 q 191 597 178 597 q 206 589 204 597 l 243 13 z "},"¢":{"ha":604,"x_min":51,"x_max":578,"o":"m 306 -18 l 249 -231 l 206 -231 l 264 -11 q 110 101 168 14 q 51 299 51 188 q 142 536 51 436 q 365 636 233 636 q 433 629 401 636 l 501 882 l 544 882 l 474 615 q 535 572 513 599 q 558 519 558 546 q 545 488 558 501 q 513 474 532 474 q 450 529 467 474 q 321 39 321 40 q 350 38 329 38 q 550 154 468 38 l 578 139 q 473 22 538 63 q 332 -19 408 -19 q 306 -18 314 -19 m 281 50 l 422 583 q 344 596 389 596 q 188 519 249 596 q 126 311 126 443 q 169 147 126 218 q 281 50 211 76 z "},"£":{"ha":593,"x_min":4,"x_max":592,"o":"m 179 411 q 171 578 171 533 q 236 789 171 704 q 426 874 301 874 q 531 848 489 874 q 574 778 574 822 q 558 743 574 758 q 522 728 542 728 q 477 751 496 728 q 468 807 458 775 q 396 829 432 829 q 246 590 246 829 q 256 411 246 564 l 496 411 l 497 363 l 258 363 q 260 300 260 342 q 218 103 257 169 l 218 96 q 277 73 232 92 q 366 41 322 54 q 443 28 410 28 q 515 46 497 28 q 564 151 544 75 l 592 143 q 551 16 589 65 q 436 -33 514 -33 q 344 -10 394 -33 q 249 40 293 13 q 193 71 206 67 q 14 -36 140 -6 l 4 -6 q 142 90 96 19 q 188 254 188 160 q 183 363 188 303 l 60 363 l 64 411 l 179 411 z "},"¤":{"ha":601,"x_min":56,"x_max":546,"o":"m 539 696 l 461 618 q 496 499 496 565 q 460 379 496 433 l 546 293 l 504 251 l 419 336 q 299 299 368 299 q 178 335 229 299 l 100 257 l 60 297 l 138 375 q 100 499 100 431 q 136 619 100 568 l 56 700 l 97 742 l 178 661 q 299 699 229 699 q 422 660 369 699 l 499 736 l 539 696 m 404 392 q 424 414 404 392 q 444 499 444 436 q 404 605 444 561 q 299 649 364 649 q 192 605 232 649 q 151 499 151 561 q 192 392 151 436 q 299 349 232 349 q 404 392 364 349 z "},"¥":{"ha":849,"x_min":22,"x_max":826,"o":"m 826 868 l 822 825 l 731 815 q 715 806 721 814 l 482 426 l 740 426 l 744 378 l 460 378 l 460 243 l 740 243 l 744 194 l 460 194 l 460 63 q 467 54 460 57 l 589 43 l 593 0 l 256 0 l 260 43 l 382 54 q 389 63 389 57 l 389 194 l 104 194 l 108 243 l 389 243 l 389 378 l 104 378 l 108 426 l 363 426 l 129 804 q 113 815 124 813 l 26 825 l 22 868 l 311 868 l 307 825 l 208 817 q 203 804 196 817 l 428 432 l 432 432 l 653 806 q 649 815 656 813 l 547 825 l 543 868 l 826 868 z "},"¦":{"ha":386,"x_min":165,"x_max":221,"o":"m 165 426 l 165 892 l 221 892 l 221 426 l 165 426 m 165 -193 l 165 272 l 221 272 l 221 -193 l 165 -193 z "},"§":{"ha":626,"x_min":60,"x_max":567,"o":"m 567 340 q 440 174 567 236 q 463 86 463 133 q 411 -37 463 18 q 276 -92 360 -92 q 162 -65 206 -92 q 118 1 118 -37 q 131 35 118 21 q 164 49 144 49 q 210 26 189 49 q 233 -31 232 3 q 308 -44 263 -44 q 376 -17 349 -44 q 404 54 404 11 q 392 114 404 88 q 351 165 379 140 q 301 204 322 190 q 238 243 281 218 q 171 284 194 268 q 117 327 147 300 q 74 386 88 354 q 60 457 60 418 q 186 622 60 558 q 164 711 164 663 q 215 834 164 779 q 350 889 267 889 q 465 862 421 889 q 508 796 508 835 q 495 763 508 776 q 463 749 482 749 q 416 772 438 749 q 393 828 394 794 q 318 842 364 842 q 250 814 278 842 q 222 743 222 786 q 235 683 222 710 q 276 631 247 656 q 326 593 304 607 q 389 554 347 579 q 456 513 433 528 q 510 469 479 497 q 553 410 540 442 q 567 340 567 379 m 506 310 q 376 474 506 397 q 203 600 243 550 q 121 488 121 551 q 253 322 121 400 q 424 197 383 247 q 506 310 506 246 z "},"¨":{"ha":556,"x_min":76,"x_max":479,"o":"m 462 844 q 470 834 462 844 q 479 796 479 824 q 462 747 479 768 q 417 726 444 726 q 369 747 388 726 q 351 796 351 768 q 369 844 351 824 q 417 864 388 864 q 462 844 444 864 m 185 844 q 194 834 185 844 q 203 796 203 824 q 185 747 203 768 q 139 726 168 726 q 93 747 110 726 q 76 796 76 768 q 93 844 76 824 q 139 864 110 864 q 185 844 168 864 z "},"©":{"ha":1019,"x_min":56,"x_max":964,"o":"m 831 756 q 898 689 831 756 q 964 433 964 622 q 831 112 964 244 q 510 -21 699 -21 q 188 112 321 -21 q 56 433 56 244 q 188 756 56 622 q 510 889 321 889 q 831 756 699 889 m 799 144 q 859 204 799 144 q 919 433 919 264 q 799 724 919 603 q 510 844 679 844 q 220 724 340 844 q 100 433 100 603 q 220 144 100 264 q 510 24 340 24 q 799 144 679 24 m 706 329 l 685 176 l 651 185 q 522 167 585 167 q 333 238 408 167 q 258 422 258 308 q 333 622 258 543 q 526 700 408 700 q 640 688 585 700 l 701 700 l 701 533 l 668 533 l 647 642 q 521 667 593 667 q 372 601 431 667 q 314 432 314 535 q 372 264 314 328 q 526 200 429 200 q 636 222 592 200 l 671 329 l 706 329 z "},"ª":{"ha":442,"x_min":53,"x_max":453,"o":"m 453 443 q 369 399 414 399 q 307 464 311 399 l 303 464 q 164 399 228 399 q 90 428 122 399 q 57 504 57 458 q 122 605 57 568 q 313 663 188 642 l 314 726 q 289 812 317 782 q 207 842 261 842 q 151 832 179 842 q 124 814 124 822 l 128 808 q 133 793 131 803 q 136 774 136 783 q 94 738 136 738 q 64 749 75 738 q 53 781 53 761 q 113 846 53 813 q 231 879 174 879 q 344 839 314 879 q 371 700 374 799 l 364 483 q 394 446 361 446 q 449 463 418 446 l 453 443 m 307 493 l 311 635 q 119 521 119 601 q 140 469 119 490 q 196 449 161 449 q 307 493 236 449 z "},"«":{"ha":667,"x_min":28,"x_max":592,"o":"m 592 92 l 579 64 l 285 282 l 285 332 l 579 550 l 592 522 l 374 307 l 592 92 m 342 106 l 329 78 l 28 282 l 28 332 l 329 536 l 342 508 l 131 307 l 342 106 z "},"¬":{"ha":667,"x_min":49,"x_max":618,"o":"m 618 426 l 618 135 l 556 135 l 556 367 l 49 367 l 53 426 l 618 426 z "},"­":{"ha":456,"x_min":51,"x_max":407,"o":"m 407 294 l 51 294 l 56 357 l 403 357 l 407 294 z "},"®":{"ha":1019,"x_min":56,"x_max":964,"o":"m 831 756 q 898 689 831 756 q 964 433 964 622 q 831 112 964 244 q 510 -21 699 -21 q 188 112 321 -21 q 56 433 56 244 q 188 756 56 622 q 510 889 321 889 q 831 756 699 889 m 799 144 q 859 204 799 144 q 919 433 919 264 q 799 724 919 603 q 510 844 679 844 q 220 724 340 844 q 100 433 100 603 q 220 144 100 264 q 510 24 340 24 q 799 144 679 24 m 767 186 l 658 186 l 624 243 l 524 399 l 431 401 l 431 233 q 435 226 431 226 l 526 219 l 529 186 l 290 186 l 294 219 l 374 226 q 378 233 378 226 l 378 642 q 374 649 378 649 l 294 656 l 290 689 l 528 689 q 658 653 613 689 q 703 561 703 617 q 574 410 703 454 l 694 231 q 703 225 700 225 l 763 219 l 767 186 m 646 549 q 497 656 646 663 l 431 653 l 431 438 l 522 429 q 610 468 575 438 q 646 549 646 499 z "},"¯":{"ha":556,"x_min":117,"x_max":443,"o":"m 443 744 l 117 744 l 121 797 l 439 797 l 443 744 z "},"°":{"ha":572,"x_min":56,"x_max":517,"o":"m 517 669 q 453 507 517 574 q 286 440 390 440 q 119 507 183 440 q 56 669 56 574 q 119 834 56 767 q 286 901 182 901 q 453 835 390 901 q 517 669 517 768 m 416 802 q 391 829 416 802 q 286 856 367 856 q 156 802 206 856 q 107 669 107 749 q 156 540 107 594 q 286 486 206 486 q 416 540 367 486 q 465 669 465 594 q 416 802 465 749 z "},"±":{"ha":667,"x_min":49,"x_max":618,"o":"m 618 324 l 365 324 l 365 115 l 303 115 l 303 324 l 49 324 l 53 383 l 303 383 l 303 613 l 365 613 l 365 383 l 614 383 l 618 324 m 614 28 l 51 28 l 56 88 l 610 88 l 614 28 z "},"²":{"ha":458,"x_min":31,"x_max":421,"o":"m 33 379 l 31 419 q 101 483 57 443 q 166 542 146 524 q 217 591 186 561 q 263 638 249 621 q 292 678 276 656 q 314 721 308 701 q 319 761 319 740 q 289 835 319 808 q 213 863 258 863 q 60 778 115 863 l 44 793 q 229 915 111 915 q 346 874 300 915 q 392 775 392 833 q 378 710 392 742 q 331 644 364 679 q 267 584 297 610 q 177 510 236 558 q 79 429 118 463 l 99 428 l 168 428 q 326 435 296 428 q 368 474 356 442 l 385 519 l 421 519 l 397 379 l 33 379 z "},"³":{"ha":458,"x_min":40,"x_max":400,"o":"m 158 363 q 73 379 106 363 q 40 422 40 396 q 52 449 40 439 q 82 458 64 458 q 125 441 106 458 q 150 397 144 424 q 182 394 158 394 q 289 431 246 394 q 331 521 332 468 q 296 598 331 569 q 210 626 261 626 q 115 604 163 626 l 106 625 q 267 725 233 693 q 297 789 299 757 q 192 863 297 863 q 56 788 117 863 l 40 803 q 224 915 119 915 q 328 888 286 915 q 369 813 369 861 q 329 731 369 765 q 208 658 289 696 l 208 657 q 343 640 289 672 q 399 539 397 607 q 328 417 400 471 q 158 363 257 363 z "},"´":{"ha":554,"x_min":207,"x_max":456,"o":"m 456 947 l 236 701 l 207 701 l 347 947 l 456 947 z "},"µ":{"ha":722,"x_min":15,"x_max":715,"o":"m 125 193 l 126 556 q 121 564 126 564 l 19 572 l 15 615 l 193 615 l 190 190 q 233 76 189 111 q 336 40 278 40 q 528 138 431 40 l 528 556 q 522 564 528 564 l 421 572 l 417 615 l 593 615 l 593 58 q 600 42 593 42 l 715 33 l 711 4 l 528 -21 l 528 85 l 521 85 l 492 60 q 463 37 472 43 q 438 19 454 31 q 413 2 422 7 q 388 -9 403 -3 q 358 -17 372 -15 q 326 -19 343 -19 q 186 63 242 -19 l 182 63 l 188 -336 l 114 -349 l 125 193 z "},"¶":{"ha":665,"x_min":57,"x_max":557,"o":"m 557 -44 l 501 -44 l 501 401 q 364 379 426 379 q 135 447 214 379 q 57 624 57 515 q 133 803 57 738 q 357 868 208 868 l 557 868 l 557 -44 z "},"·":{"ha":296,"x_min":79,"x_max":218,"o":"m 218 314 q 199 265 218 286 q 149 244 179 244 q 99 265 118 244 q 79 314 79 286 q 99 361 79 342 q 149 381 118 381 q 199 360 179 381 q 218 314 218 340 z "},"¸":{"ha":556,"x_min":153,"x_max":426,"o":"m 426 -203 q 359 -306 426 -262 q 161 -362 292 -350 l 153 -337 q 317 -290 265 -321 q 369 -207 369 -258 q 338 -151 369 -172 q 250 -129 307 -129 q 182 -135 229 -129 l 182 -118 l 310 21 l 354 21 l 253 -86 q 376 -112 326 -81 q 426 -203 426 -144 z "},"¹":{"ha":458,"x_min":79,"x_max":385,"o":"m 86 379 l 89 410 l 193 421 q 214 440 214 428 l 214 856 l 79 863 l 82 886 l 272 914 l 272 440 q 293 421 272 422 l 382 410 l 385 379 l 86 379 z "},"º":{"ha":515,"x_min":35,"x_max":481,"o":"m 481 639 q 416 469 481 540 q 254 397 351 397 q 94 466 154 397 q 35 636 35 535 q 99 806 35 735 q 261 878 164 878 q 421 809 361 878 q 481 639 481 740 m 414 626 q 356 799 414 740 q 251 846 308 846 q 142 793 183 846 q 100 650 100 740 q 165 471 100 536 q 264 431 206 431 q 373 483 332 431 q 414 626 414 536 z "},"»":{"ha":667,"x_min":71,"x_max":633,"o":"m 633 282 l 332 78 l 319 106 l 532 307 l 319 508 l 332 536 l 633 332 l 633 282 m 376 282 l 83 64 l 71 92 l 289 307 l 71 522 l 83 550 l 376 332 l 376 282 z "},"¼":{"ha":993,"x_min":79,"x_max":968,"o":"m 813 -199 l 813 -39 l 558 -39 l 554 -10 l 829 335 l 872 335 l 872 -1 l 968 -1 l 963 -39 l 872 -39 l 872 -199 l 813 -199 m 600 -1 l 813 -1 l 813 258 l 808 258 l 600 -1 m 117 -161 l 869 868 l 932 868 l 179 -161 l 117 -161 m 86 379 l 89 410 l 193 421 q 214 440 214 428 l 214 856 l 79 863 l 82 886 l 272 914 l 272 440 q 293 421 272 422 l 382 410 l 385 379 l 86 379 z "},"½":{"ha":993,"x_min":79,"x_max":956,"o":"m 96 -161 l 849 868 l 911 868 l 158 -161 l 96 -161 m 86 379 l 89 410 l 193 421 q 214 440 214 428 l 214 856 l 79 863 l 82 886 l 272 914 l 272 440 q 293 421 272 422 l 382 410 l 385 379 l 86 379 m 568 -199 l 565 -158 q 636 -94 592 -135 q 701 -35 681 -54 q 752 13 721 -17 q 797 60 783 43 q 827 101 811 78 q 849 143 843 124 q 854 183 854 163 q 824 258 854 231 q 747 285 793 285 q 594 200 650 285 l 579 215 q 764 338 646 338 q 881 297 835 338 q 926 197 926 256 q 913 133 926 164 q 865 67 899 101 q 801 6 832 32 q 712 -67 771 -19 q 614 -149 653 -115 l 633 -150 l 703 -150 q 860 -143 831 -150 q 903 -104 890 -136 l 919 -58 l 956 -58 l 932 -199 l 568 -199 z "},"¾":{"ha":993,"x_min":40,"x_max":968,"o":"m 813 -199 l 813 -39 l 558 -39 l 554 -10 l 829 335 l 872 335 l 872 -1 l 968 -1 l 963 -39 l 872 -39 l 872 -199 l 813 -199 m 600 -1 l 813 -1 l 813 258 l 808 258 l 600 -1 m 117 -161 l 869 868 l 932 868 l 179 -161 l 117 -161 m 158 363 q 73 379 106 363 q 40 422 40 396 q 52 449 40 439 q 82 458 64 458 q 125 441 106 458 q 150 397 144 424 q 182 394 158 394 q 289 431 246 394 q 331 521 332 468 q 296 598 331 569 q 210 626 261 626 q 115 604 163 626 l 106 625 q 267 725 233 693 q 297 789 299 757 q 192 863 297 863 q 56 788 117 863 l 40 803 q 224 915 119 915 q 328 888 286 915 q 369 813 369 861 q 329 731 369 765 q 208 658 289 696 l 208 657 q 343 640 289 672 q 399 539 397 607 q 328 417 400 471 q 158 363 257 363 z "},"¿":{"ha":476,"x_min":64,"x_max":396,"o":"m 347 817 q 327 771 347 790 q 275 751 307 751 q 226 771 244 751 q 207 817 207 790 q 226 866 207 846 q 275 886 244 886 q 327 865 307 886 q 347 817 347 844 m 396 38 q 372 -4 396 13 q 313 -21 349 -21 q 133 46 203 -21 q 64 194 64 113 q 75 263 64 233 q 109 311 86 292 q 151 342 132 331 q 203 367 171 353 q 249 388 236 381 q 285 409 263 394 q 315 442 307 424 q 324 486 324 461 q 229 618 324 551 l 272 618 q 374 460 374 538 q 361 399 374 425 q 324 351 349 372 q 278 319 299 331 q 222 292 257 308 q 162 263 181 274 q 124 232 143 253 q 104 188 104 211 q 163 101 104 136 q 322 65 221 65 q 390 72 356 65 q 396 38 396 61 z "},"À":{"ha":818,"x_min":-22,"x_max":840,"o":"m 840 0 l 532 0 l 536 43 l 642 51 q 650 61 653 51 l 563 318 l 231 318 l 143 63 q 147 53 140 53 l 249 43 l 253 0 l -22 0 l -18 43 l 75 53 q 85 63 81 53 l 354 825 l 354 857 l 447 885 l 728 64 q 740 53 731 54 l 836 43 l 840 0 m 544 371 l 403 800 l 396 800 l 249 371 l 544 371 m 431 940 l 401 940 l 182 1186 l 290 1186 l 431 940 z "},"Á":{"ha":818,"x_min":-22,"x_max":840,"o":"m 840 0 l 532 0 l 536 43 l 642 51 q 650 61 653 51 l 563 318 l 231 318 l 143 63 q 147 53 140 53 l 249 43 l 253 0 l -22 0 l -18 43 l 75 53 q 85 63 81 53 l 354 825 l 354 857 l 447 885 l 728 64 q 740 53 731 54 l 836 43 l 840 0 m 544 371 l 403 800 l 396 800 l 249 371 l 544 371 m 589 1186 l 369 940 l 340 940 l 481 1186 l 589 1186 z "},"Â":{"ha":818,"x_min":-22,"x_max":840,"o":"m 840 0 l 532 0 l 536 43 l 642 51 q 650 61 653 51 l 563 318 l 231 318 l 143 63 q 147 53 140 53 l 249 43 l 253 0 l -22 0 l -18 43 l 75 53 q 85 63 81 53 l 354 825 l 354 857 l 447 885 l 728 64 q 740 53 731 54 l 836 43 l 840 0 m 544 371 l 403 800 l 396 800 l 249 371 l 544 371 m 576 940 l 540 940 q 388 1157 389 1157 l 385 1157 l 232 940 l 196 940 l 364 1228 l 408 1228 l 576 940 z "},"Ã":{"ha":818,"x_min":-22,"x_max":840,"o":"m 840 0 l 532 0 l 536 43 l 642 51 q 650 61 653 51 l 563 318 l 231 318 l 143 63 q 147 53 140 53 l 249 43 l 253 0 l -22 0 l -18 43 l 75 53 q 85 63 81 53 l 354 825 l 354 857 l 447 885 l 728 64 q 740 53 731 54 l 836 43 l 840 0 m 544 371 l 403 800 l 396 800 l 249 371 l 544 371 m 603 1106 q 479 961 576 961 q 373 1010 439 961 q 289 1060 307 1060 q 241 1042 258 1060 q 204 968 224 1025 l 169 968 q 293 1113 196 1113 q 400 1063 333 1113 q 483 1014 467 1014 q 530 1032 513 1014 q 567 1106 547 1050 l 603 1106 z "},"Ä":{"ha":818,"x_min":-22,"x_max":840,"o":"m 840 0 l 532 0 l 536 43 l 642 51 q 650 61 653 51 l 563 318 l 231 318 l 143 63 q 147 53 140 53 l 249 43 l 253 0 l -22 0 l -18 43 l 75 53 q 85 63 81 53 l 354 825 l 354 857 l 447 885 l 728 64 q 740 53 731 54 l 836 43 l 840 0 m 544 371 l 403 800 l 396 800 l 249 371 l 544 371 m 570 1056 q 579 1046 570 1056 q 588 1008 588 1036 q 570 960 588 981 q 525 939 553 939 q 478 960 496 939 q 460 1008 460 981 q 478 1056 460 1036 q 525 1076 496 1076 q 570 1056 553 1076 m 294 1056 q 302 1046 294 1056 q 311 1008 311 1036 q 294 960 311 981 q 247 939 276 939 q 201 960 218 939 q 185 1008 185 981 q 201 1056 185 1036 q 247 1076 218 1076 q 294 1056 276 1076 z "},"Å":{"ha":818,"x_min":-22,"x_max":840,"o":"m 360 840 q 281 958 281 869 q 315 1047 281 1011 q 404 1083 349 1083 q 494 1047 460 1083 q 528 958 528 1011 q 461 846 528 879 l 728 64 q 740 53 731 54 l 836 43 l 840 0 l 532 0 l 536 43 l 642 51 q 650 61 653 51 l 563 318 l 231 318 l 143 63 q 147 53 140 53 l 249 43 l 253 0 l -22 0 l -18 43 l 75 53 q 85 63 81 53 l 360 840 m 465 894 q 476 908 465 894 q 488 958 488 921 q 465 1022 488 996 q 404 1049 442 1049 q 344 1022 367 1049 q 321 958 321 996 q 344 894 321 921 q 404 868 367 868 q 465 894 442 868 m 544 371 l 403 800 l 396 800 l 249 371 l 544 371 z "},"Æ":{"ha":1121,"x_min":-76,"x_max":1065,"o":"m 1065 232 l 1040 0 l 406 0 l 410 43 l 518 54 q 524 63 524 56 l 524 318 l 243 318 l 108 65 q 113 56 103 56 l 219 43 l 224 0 l -76 0 l -72 43 l 24 53 q 39 68 29 53 l 449 806 q 443 814 454 814 l 332 825 l 328 868 l 1039 868 l 1039 633 l 997 633 l 972 785 q 950 811 968 806 q 668 821 914 821 l 597 821 l 597 467 l 686 467 q 809 469 789 467 q 833 486 829 472 l 864 578 l 897 578 l 871 310 l 838 310 l 829 400 q 822 413 828 410 q 785 419 817 417 q 685 422 754 422 l 597 422 l 597 47 l 639 47 q 833 48 771 47 q 932 53 896 49 q 974 64 968 58 q 983 83 979 69 l 1019 232 l 1065 232 m 524 371 l 524 815 l 514 815 l 272 371 l 524 371 z "},"Ç":{"ha":865,"x_min":63,"x_max":818,"o":"m 492 -19 q 184 107 306 -12 q 63 413 63 226 q 190 754 63 621 q 519 888 318 888 q 715 865 624 888 l 810 889 l 810 615 l 765 615 l 733 801 q 507 843 633 843 q 244 726 349 843 q 140 429 140 610 q 242 138 140 251 q 517 25 344 25 q 715 65 610 25 l 771 247 l 818 247 l 781 -3 l 733 13 q 535 -18 633 -14 l 471 -86 q 594 -112 544 -81 q 644 -203 644 -144 q 577 -306 644 -262 q 379 -362 510 -350 l 371 -337 q 535 -290 483 -321 q 588 -207 588 -258 q 556 -151 588 -172 q 468 -129 525 -129 q 400 -135 447 -129 l 400 -118 l 492 -19 z "},"È":{"ha":776,"x_min":61,"x_max":721,"o":"m 721 232 l 696 0 l 61 0 l 65 43 l 174 54 q 179 63 179 56 l 179 806 q 174 814 179 813 l 65 825 l 61 868 l 694 868 l 694 633 l 649 633 l 624 785 q 615 805 621 799 q 576 816 608 811 q 486 822 543 821 q 314 824 429 824 l 253 824 l 253 467 l 342 467 q 465 469 444 467 q 489 486 485 472 l 519 578 l 553 578 l 526 310 l 493 310 l 485 400 q 478 413 483 410 q 441 419 472 417 q 340 422 410 422 l 253 422 l 253 44 l 285 44 q 479 46 413 44 q 581 52 546 47 q 624 63 617 57 q 635 83 631 69 l 671 232 l 721 232 m 460 940 l 431 940 l 211 1186 l 319 1186 l 460 940 z "},"É":{"ha":776,"x_min":61,"x_max":721,"o":"m 721 232 l 696 0 l 61 0 l 65 43 l 174 54 q 179 63 179 56 l 179 806 q 174 814 179 813 l 65 825 l 61 868 l 694 868 l 694 633 l 649 633 l 624 785 q 615 805 621 799 q 576 816 608 811 q 486 822 543 821 q 314 824 429 824 l 253 824 l 253 467 l 342 467 q 465 469 444 467 q 489 486 485 472 l 519 578 l 553 578 l 526 310 l 493 310 l 485 400 q 478 413 483 410 q 441 419 472 417 q 340 422 410 422 l 253 422 l 253 44 l 285 44 q 479 46 413 44 q 581 52 546 47 q 624 63 617 57 q 635 83 631 69 l 671 232 l 721 232 m 567 1186 l 347 940 l 318 940 l 458 1186 l 567 1186 z "},"Ê":{"ha":776,"x_min":61,"x_max":721,"o":"m 721 232 l 696 0 l 61 0 l 65 43 l 174 54 q 179 63 179 56 l 179 806 q 174 814 179 813 l 65 825 l 61 868 l 694 868 l 694 633 l 649 633 l 624 785 q 615 805 621 799 q 576 816 608 811 q 486 822 543 821 q 314 824 429 824 l 253 824 l 253 467 l 342 467 q 465 469 444 467 q 489 486 485 472 l 519 578 l 553 578 l 526 310 l 493 310 l 485 400 q 478 413 483 410 q 441 419 472 417 q 340 422 410 422 l 253 422 l 253 44 l 285 44 q 479 46 413 44 q 581 52 546 47 q 624 63 617 57 q 635 83 631 69 l 671 232 l 721 232 m 578 940 l 542 940 q 389 1157 390 1157 l 386 1157 l 233 940 l 197 940 l 365 1228 l 410 1228 l 578 940 z "},"Ë":{"ha":776,"x_min":61,"x_max":721,"o":"m 721 232 l 696 0 l 61 0 l 65 43 l 174 54 q 179 63 179 56 l 179 806 q 174 814 179 813 l 65 825 l 61 868 l 694 868 l 694 633 l 649 633 l 624 785 q 615 805 621 799 q 576 816 608 811 q 486 822 543 821 q 314 824 429 824 l 253 824 l 253 467 l 342 467 q 465 469 444 467 q 489 486 485 472 l 519 578 l 553 578 l 526 310 l 493 310 l 485 400 q 478 413 483 410 q 441 419 472 417 q 340 422 410 422 l 253 422 l 253 44 l 285 44 q 479 46 413 44 q 581 52 546 47 q 624 63 617 57 q 635 83 631 69 l 671 232 l 721 232 m 572 1056 q 580 1046 572 1056 q 589 1008 589 1036 q 572 960 589 981 q 526 939 554 939 q 479 960 497 939 q 461 1008 461 981 q 479 1056 461 1036 q 526 1076 497 1076 q 572 1056 554 1076 m 295 1056 q 304 1046 295 1056 q 313 1008 313 1036 q 295 960 313 981 q 249 939 278 939 q 203 960 219 939 q 186 1008 186 981 q 203 1056 186 1036 q 249 1076 219 1076 q 295 1056 278 1076 z "},"Ì":{"ha":460,"x_min":11,"x_max":399,"o":"m 399 0 l 61 0 l 65 43 l 186 54 q 193 63 193 57 l 193 806 q 186 814 193 813 l 65 825 l 61 868 l 399 868 l 394 825 l 274 814 q 267 806 267 811 l 267 63 q 274 54 267 57 l 394 43 l 399 0 m 260 940 l 231 940 l 11 1186 l 119 1186 l 260 940 z "},"Í":{"ha":460,"x_min":61,"x_max":454,"o":"m 399 0 l 61 0 l 65 43 l 186 54 q 193 63 193 57 l 193 806 q 186 814 193 813 l 65 825 l 61 868 l 399 868 l 394 825 l 274 814 q 267 806 267 811 l 267 63 q 274 54 267 57 l 394 43 l 399 0 m 454 1186 l 235 940 l 206 940 l 346 1186 l 454 1186 z "},"Î":{"ha":460,"x_min":39,"x_max":419,"o":"m 399 0 l 61 0 l 65 43 l 186 54 q 193 63 193 57 l 193 806 q 186 814 193 813 l 65 825 l 61 868 l 399 868 l 394 825 l 274 814 q 267 806 267 811 l 267 63 q 274 54 267 57 l 394 43 l 399 0 m 419 940 l 383 940 q 231 1157 232 1157 l 228 1157 l 75 940 l 39 940 l 207 1228 l 251 1228 l 419 940 z "},"Ï":{"ha":460,"x_min":28,"x_max":431,"o":"m 399 0 l 61 0 l 65 43 l 186 54 q 193 63 193 57 l 193 806 q 186 814 193 813 l 65 825 l 61 868 l 399 868 l 394 825 l 274 814 q 267 806 267 811 l 267 63 q 274 54 267 57 l 394 43 l 399 0 m 413 1070 q 422 1060 413 1070 q 431 1022 431 1050 q 413 974 431 994 q 368 953 396 953 q 321 974 339 953 q 303 1022 303 994 q 321 1070 303 1050 q 368 1090 339 1090 q 413 1070 396 1090 m 137 1070 q 145 1060 137 1070 q 154 1022 154 1050 q 137 974 154 994 q 90 953 119 953 q 44 974 61 953 q 28 1022 28 994 q 44 1070 28 1050 q 90 1090 61 1090 q 137 1070 119 1090 z "},"Ð":{"ha":915,"x_min":46,"x_max":853,"o":"m 179 422 l 46 422 l 50 471 l 179 471 l 179 806 q 172 814 179 813 l 65 825 l 61 868 l 346 871 q 720 754 588 872 q 853 442 853 636 q 822 276 853 354 q 731 136 790 199 q 574 37 671 74 q 354 0 476 0 l 61 0 l 65 43 l 172 54 q 179 63 179 57 l 179 422 m 253 471 l 449 471 l 453 422 l 253 422 l 253 58 l 392 44 q 670 158 567 54 q 774 421 774 263 q 659 717 774 607 q 331 826 544 826 l 253 826 l 253 471 z "},"Ñ":{"ha":972,"x_min":43,"x_max":972,"o":"m 972 868 l 968 825 l 843 814 q 836 806 836 814 l 836 -7 l 779 -7 l 240 792 l 235 792 l 235 63 q 242 54 235 57 l 363 43 l 367 0 l 43 0 l 47 43 l 172 54 q 179 63 179 57 l 179 796 q 172 804 179 803 l 63 825 l 58 868 l 271 868 l 779 121 l 781 121 l 781 806 q 774 814 781 814 l 653 825 l 649 868 l 972 868 m 700 1106 q 576 961 674 961 q 470 1010 536 961 q 386 1060 404 1060 q 338 1042 356 1060 q 301 968 321 1025 l 267 968 q 390 1113 293 1113 q 497 1063 431 1113 q 581 1014 564 1014 q 627 1032 610 1014 q 664 1106 644 1050 l 700 1106 z "},"Ò":{"ha":1006,"x_min":63,"x_max":943,"o":"m 943 439 q 820 115 943 250 q 500 -19 697 -19 q 186 103 310 -19 q 63 428 63 226 q 185 753 63 618 q 507 888 308 888 q 819 764 694 888 q 943 439 943 640 m 864 424 q 756 729 864 617 q 500 842 649 842 q 248 733 353 842 q 143 443 143 624 q 249 137 143 249 q 506 25 356 25 q 759 134 654 25 q 864 424 864 243 m 528 940 l 499 940 l 279 1186 l 388 1186 l 528 940 z "},"Ó":{"ha":1006,"x_min":63,"x_max":943,"o":"m 943 439 q 820 115 943 250 q 500 -19 697 -19 q 186 103 310 -19 q 63 428 63 226 q 185 753 63 618 q 507 888 308 888 q 819 764 694 888 q 943 439 943 640 m 864 424 q 756 729 864 617 q 500 842 649 842 q 248 733 353 842 q 143 443 143 624 q 249 137 143 249 q 506 25 356 25 q 759 134 654 25 q 864 424 864 243 m 682 1186 l 463 940 l 433 940 l 574 1186 l 682 1186 z "},"Ô":{"ha":1006,"x_min":63,"x_max":943,"o":"m 943 439 q 820 115 943 250 q 500 -19 697 -19 q 186 103 310 -19 q 63 428 63 226 q 185 753 63 618 q 507 888 308 888 q 819 764 694 888 q 943 439 943 640 m 864 424 q 756 729 864 617 q 500 842 649 842 q 248 733 353 842 q 143 443 143 624 q 249 137 143 249 q 506 25 356 25 q 759 134 654 25 q 864 424 864 243 m 693 940 l 657 940 q 504 1157 506 1157 l 501 1157 l 349 940 l 313 940 l 481 1228 l 525 1228 l 693 940 z "},"Õ":{"ha":1006,"x_min":63,"x_max":943,"o":"m 943 439 q 820 115 943 250 q 500 -19 697 -19 q 186 103 310 -19 q 63 428 63 226 q 185 753 63 618 q 507 888 308 888 q 819 764 694 888 q 943 439 943 640 m 864 424 q 756 729 864 617 q 500 842 649 842 q 248 733 353 842 q 143 443 143 624 q 249 137 143 249 q 506 25 356 25 q 759 134 654 25 q 864 424 864 243 m 719 1106 q 596 961 693 961 q 490 1010 556 961 q 406 1060 424 1060 q 358 1042 375 1060 q 321 968 340 1025 l 286 968 q 410 1113 313 1113 q 517 1063 450 1113 q 600 1014 583 1014 q 647 1032 629 1014 q 683 1106 664 1050 l 719 1106 z "},"Ö":{"ha":1006,"x_min":63,"x_max":943,"o":"m 943 439 q 820 115 943 250 q 500 -19 697 -19 q 186 103 310 -19 q 63 428 63 226 q 185 753 63 618 q 507 888 308 888 q 819 764 694 888 q 943 439 943 640 m 864 424 q 756 729 864 617 q 500 842 649 842 q 248 733 353 842 q 143 443 143 624 q 249 137 143 249 q 506 25 356 25 q 759 134 654 25 q 864 424 864 243 m 687 1056 q 695 1046 687 1056 q 704 1008 704 1036 q 687 960 704 981 q 642 939 669 939 q 594 960 613 939 q 576 1008 576 981 q 594 1056 576 1036 q 642 1076 613 1076 q 687 1056 669 1076 m 410 1056 q 419 1046 410 1056 q 428 1008 428 1036 q 410 960 428 981 q 364 939 393 939 q 318 960 335 939 q 301 1008 301 981 q 318 1056 301 1036 q 364 1076 335 1076 q 410 1056 393 1076 z "},"×":{"ha":667,"x_min":90,"x_max":576,"o":"m 576 526 l 376 326 l 576 128 l 532 83 l 332 283 l 133 83 l 90 125 l 290 325 l 90 525 l 135 568 l 335 369 l 533 568 l 576 526 z "},"Ø":{"ha":1006,"x_min":63,"x_max":943,"o":"m 943 439 q 819 116 943 251 q 500 -19 694 -19 q 294 28 389 -19 l 218 -103 l 167 -103 q 181 -77 172 -93 q 210 -28 190 -61 q 242 28 229 6 l 254 50 q 113 206 164 108 q 63 428 63 303 q 187 752 63 617 q 507 888 311 888 q 715 838 624 888 l 783 956 l 835 956 l 754 817 q 892 660 842 758 q 943 439 943 563 m 685 785 q 500 838 600 838 q 251 731 353 838 q 149 443 149 624 q 288 106 149 219 l 685 785 m 858 424 q 721 758 858 644 q 324 79 325 79 q 506 29 406 29 q 756 136 654 29 q 858 424 858 243 z "},"Ù":{"ha":979,"x_min":40,"x_max":942,"o":"m 942 868 l 938 825 l 814 814 q 807 806 807 814 l 807 297 q 719 63 807 147 q 482 -21 632 -21 q 243 58 328 -21 q 158 318 158 138 l 158 806 q 151 814 158 814 l 44 825 l 40 868 l 350 868 l 346 825 l 239 814 q 232 806 232 814 l 232 293 q 499 32 232 32 q 689 104 626 32 q 751 288 751 176 l 751 806 q 744 814 751 814 l 624 825 l 619 868 l 942 868 m 507 940 l 478 940 l 258 1186 l 367 1186 l 507 940 z "},"Ú":{"ha":979,"x_min":40,"x_max":942,"o":"m 942 868 l 938 825 l 814 814 q 807 806 807 814 l 807 297 q 719 63 807 147 q 482 -21 632 -21 q 243 58 328 -21 q 158 318 158 138 l 158 806 q 151 814 158 814 l 44 825 l 40 868 l 350 868 l 346 825 l 239 814 q 232 806 232 814 l 232 293 q 499 32 232 32 q 689 104 626 32 q 751 288 751 176 l 751 806 q 744 814 751 814 l 624 825 l 619 868 l 942 868 m 671 1186 l 451 940 l 422 940 l 563 1186 l 671 1186 z "},"Û":{"ha":979,"x_min":40,"x_max":942,"o":"m 942 868 l 938 825 l 814 814 q 807 806 807 814 l 807 297 q 719 63 807 147 q 482 -21 632 -21 q 243 58 328 -21 q 158 318 158 138 l 158 806 q 151 814 158 814 l 44 825 l 40 868 l 350 868 l 346 825 l 239 814 q 232 806 232 814 l 232 293 q 499 32 232 32 q 689 104 626 32 q 751 288 751 176 l 751 806 q 744 814 751 814 l 624 825 l 619 868 l 942 868 m 678 940 l 642 940 q 489 1157 490 1157 l 486 1157 l 333 940 l 297 940 l 465 1228 l 510 1228 l 678 940 z "},"Ü":{"ha":979,"x_min":40,"x_max":942,"o":"m 942 868 l 938 825 l 814 814 q 807 806 807 814 l 807 297 q 719 63 807 147 q 482 -21 632 -21 q 243 58 328 -21 q 158 318 158 138 l 158 806 q 151 814 158 814 l 44 825 l 40 868 l 350 868 l 346 825 l 239 814 q 232 806 232 814 l 232 293 q 499 32 232 32 q 689 104 626 32 q 751 288 751 176 l 751 806 q 744 814 751 814 l 624 825 l 619 868 l 942 868 m 672 1056 q 680 1046 672 1056 q 689 1008 689 1036 q 672 960 689 981 q 626 939 654 939 q 579 960 597 939 q 561 1008 561 981 q 579 1056 561 1036 q 626 1076 597 1076 q 672 1056 654 1076 m 395 1056 q 404 1046 395 1056 q 413 1008 413 1036 q 395 960 413 981 q 349 939 378 939 q 303 960 319 939 q 286 1008 286 981 q 303 1056 286 1036 q 349 1076 319 1076 q 395 1056 378 1076 z "},"Ý":{"ha":829,"x_min":-6,"x_max":831,"o":"m 831 868 l 826 825 l 735 815 q 719 806 725 814 l 451 371 l 451 63 q 458 54 451 57 l 579 43 l 583 0 l 246 0 l 250 43 l 371 54 q 378 63 378 57 l 378 368 l 101 804 q 85 815 96 813 l -1 825 l -6 868 l 292 868 l 288 825 l 189 817 q 183 804 176 817 l 417 415 l 424 415 l 660 806 q 656 815 663 813 l 556 825 l 551 868 l 831 868 m 604 1200 l 385 954 l 356 954 l 496 1200 l 604 1200 z "},"Þ":{"ha":767,"x_min":61,"x_max":704,"o":"m 704 453 q 611 263 704 338 q 379 189 518 189 q 253 196 315 189 l 253 63 q 260 54 253 54 l 394 43 l 399 0 l 61 0 l 65 43 l 172 54 q 179 63 179 54 l 179 806 q 174 814 179 814 l 65 825 l 61 868 l 371 868 l 367 825 l 260 814 q 253 806 253 811 l 253 701 l 350 701 q 615 633 525 701 q 704 453 704 565 m 626 443 q 552 604 626 549 q 340 656 478 660 l 253 653 l 253 243 q 382 229 328 229 q 563 286 500 229 q 626 443 626 343 z "},"ß":{"ha":700,"x_min":17,"x_max":657,"o":"m 401 578 q 578 424 500 522 q 657 217 657 326 q 598 47 657 115 q 451 -21 539 -21 q 321 8 367 -21 q 275 85 275 36 q 288 117 275 103 q 321 131 301 131 q 370 103 351 131 q 388 35 389 76 q 456 17 418 17 q 549 69 510 17 q 588 193 588 122 q 522 392 588 296 q 324 556 456 488 l 324 585 q 461 650 418 604 q 504 782 504 696 q 464 887 504 842 q 364 932 424 932 q 246 874 288 932 q 204 707 204 817 l 204 0 l 28 0 l 32 43 l 133 51 q 139 60 139 51 l 139 549 l 17 560 l 21 594 l 132 613 l 135 682 q 202 884 139 803 q 371 965 265 965 q 517 914 464 965 q 571 782 571 863 q 525 649 571 700 q 401 578 479 597 z "},"à":{"ha":611,"x_min":57,"x_max":607,"o":"m 607 54 q 493 -19 546 -19 q 435 7 458 -19 q 418 86 411 33 l 413 86 q 235 -21 306 -21 q 110 23 161 -21 q 60 136 60 67 q 141 281 60 225 q 429 393 222 336 l 429 406 q 396 546 433 504 q 272 588 358 588 q 186 572 225 588 q 147 542 147 556 l 156 525 q 165 490 165 508 q 149 456 165 471 q 111 440 133 440 q 73 453 89 440 q 57 492 57 467 q 133 588 57 540 q 296 635 210 635 q 451 583 401 635 q 494 399 500 531 l 482 68 q 510 32 481 32 q 583 82 536 32 l 607 54 m 418 138 l 426 351 q 198 263 267 306 q 129 146 129 219 q 161 65 129 94 q 246 36 193 36 q 279 41 263 36 q 308 51 296 46 q 338 69 319 56 q 363 89 356 83 q 392 114 371 94 q 418 138 413 133 m 347 701 l 318 701 l 99 947 l 207 947 l 347 701 z "},"á":{"ha":611,"x_min":57,"x_max":607,"o":"m 607 54 q 493 -19 546 -19 q 435 7 458 -19 q 418 86 411 33 l 413 86 q 235 -21 306 -21 q 110 23 161 -21 q 60 136 60 67 q 141 281 60 225 q 429 393 222 336 l 429 406 q 396 546 433 504 q 272 588 358 588 q 186 572 225 588 q 147 542 147 556 l 156 525 q 165 490 165 508 q 149 456 165 471 q 111 440 133 440 q 73 453 89 440 q 57 492 57 467 q 133 588 57 540 q 296 635 210 635 q 451 583 401 635 q 494 399 500 531 l 482 68 q 510 32 481 32 q 583 82 536 32 l 607 54 m 418 138 l 426 351 q 198 263 267 306 q 129 146 129 219 q 161 65 129 94 q 246 36 193 36 q 279 41 263 36 q 308 51 296 46 q 338 69 319 56 q 363 89 356 83 q 392 114 371 94 q 418 138 413 133 m 475 947 l 256 701 l 226 701 l 367 947 l 475 947 z "},"â":{"ha":611,"x_min":57,"x_max":607,"o":"m 607 54 q 493 -19 546 -19 q 435 7 458 -19 q 418 86 411 33 l 413 86 q 235 -21 306 -21 q 110 23 161 -21 q 60 136 60 67 q 141 281 60 225 q 429 393 222 336 l 429 406 q 396 546 433 504 q 272 588 358 588 q 186 572 225 588 q 147 542 147 556 l 156 525 q 165 490 165 508 q 149 456 165 471 q 111 440 133 440 q 73 453 89 440 q 57 492 57 467 q 133 588 57 540 q 296 635 210 635 q 451 583 401 635 q 494 399 500 531 l 482 68 q 510 32 481 32 q 583 82 536 32 l 607 54 m 418 138 l 426 351 q 198 263 267 306 q 129 146 129 219 q 161 65 129 94 q 246 36 193 36 q 279 41 263 36 q 308 51 296 46 q 338 69 319 56 q 363 89 356 83 q 392 114 371 94 q 418 138 413 133 m 472 701 l 436 701 q 283 918 285 918 l 281 918 l 128 701 l 92 701 l 260 989 l 304 989 l 472 701 z "},"ã":{"ha":611,"x_min":57,"x_max":607,"o":"m 607 54 q 493 -19 546 -19 q 435 7 458 -19 q 418 86 411 33 l 413 86 q 235 -21 306 -21 q 110 23 161 -21 q 60 136 60 67 q 141 281 60 225 q 429 393 222 336 l 429 406 q 396 546 433 504 q 272 588 358 588 q 186 572 225 588 q 147 542 147 556 l 156 525 q 165 490 165 508 q 149 456 165 471 q 111 440 133 440 q 73 453 89 440 q 57 492 57 467 q 133 588 57 540 q 296 635 210 635 q 451 583 401 635 q 494 399 500 531 l 482 68 q 510 32 481 32 q 583 82 536 32 l 607 54 m 418 138 l 426 351 q 198 263 267 306 q 129 146 129 219 q 161 65 129 94 q 246 36 193 36 q 279 41 263 36 q 308 51 296 46 q 338 69 319 56 q 363 89 356 83 q 392 114 371 94 q 418 138 413 133 m 506 867 q 382 722 479 722 q 276 772 342 722 q 192 821 210 821 q 144 803 161 821 q 107 729 126 786 l 72 729 q 196 874 99 874 q 303 824 236 874 q 386 775 369 775 q 433 792 415 775 q 469 867 450 810 l 506 867 z "},"ä":{"ha":611,"x_min":57,"x_max":607,"o":"m 607 54 q 493 -19 546 -19 q 435 7 458 -19 q 418 86 411 33 l 413 86 q 235 -21 306 -21 q 110 23 161 -21 q 60 136 60 67 q 141 281 60 225 q 429 393 222 336 l 429 406 q 396 546 433 504 q 272 588 358 588 q 186 572 225 588 q 147 542 147 556 l 156 525 q 165 490 165 508 q 149 456 165 471 q 111 440 133 440 q 73 453 89 440 q 57 492 57 467 q 133 588 57 540 q 296 635 210 635 q 451 583 401 635 q 494 399 500 531 l 482 68 q 510 32 481 32 q 583 82 536 32 l 607 54 m 418 138 l 426 351 q 198 263 267 306 q 129 146 129 219 q 161 65 129 94 q 246 36 193 36 q 279 41 263 36 q 308 51 296 46 q 338 69 319 56 q 363 89 356 83 q 392 114 371 94 q 418 138 413 133 m 470 844 q 479 834 470 844 q 488 796 488 824 q 470 747 488 768 q 425 726 453 726 q 378 747 396 726 q 360 796 360 768 q 378 844 360 824 q 425 864 396 864 q 470 844 453 864 m 194 844 q 202 834 194 844 q 211 796 211 824 q 194 747 211 768 q 147 726 176 726 q 101 747 118 726 q 85 796 85 768 q 101 844 85 824 q 147 864 118 864 q 194 844 176 864 z "},"å":{"ha":611,"x_min":57,"x_max":607,"o":"m 385 925 q 402 907 385 925 q 419 836 419 889 q 385 747 419 783 q 296 711 351 711 q 206 747 240 711 q 172 836 172 783 q 206 925 172 889 q 296 961 240 961 q 385 925 351 961 m 607 54 q 493 -19 546 -19 q 435 7 458 -19 q 418 86 411 33 l 413 86 q 235 -21 306 -21 q 110 23 161 -21 q 60 136 60 67 q 141 281 60 225 q 429 393 222 336 l 429 406 q 396 546 433 504 q 272 588 358 588 q 186 572 225 588 q 147 542 147 556 l 156 525 q 165 490 165 508 q 149 456 165 471 q 111 440 133 440 q 73 453 89 440 q 57 492 57 467 q 133 588 57 540 q 296 635 210 635 q 451 583 401 635 q 494 399 500 531 l 482 68 q 510 32 481 32 q 583 82 536 32 l 607 54 m 356 772 q 368 785 356 772 q 379 836 379 799 q 356 900 379 874 q 296 926 333 926 q 235 900 258 926 q 213 836 213 874 q 235 772 213 799 q 296 746 258 746 q 356 772 333 746 m 418 138 l 426 351 q 198 263 267 306 q 129 146 129 219 q 161 65 129 94 q 246 36 193 36 q 279 41 263 36 q 308 51 296 46 q 338 69 319 56 q 363 89 356 83 q 392 114 371 94 q 418 138 413 133 z "},"æ":{"ha":993,"x_min":57,"x_max":944,"o":"m 458 132 q 351 22 417 64 q 232 -21 285 -21 q 108 23 157 -21 q 60 136 60 67 q 142 280 60 224 q 429 393 224 336 l 429 406 q 396 546 433 504 q 272 588 358 588 q 186 572 225 588 q 147 542 147 556 l 156 525 q 165 490 165 508 q 149 456 165 471 q 111 440 133 440 q 73 453 89 440 q 57 492 57 467 q 133 588 57 540 q 296 635 210 635 q 489 504 463 635 q 597 600 533 565 q 731 635 660 635 q 881 583 824 635 q 938 449 938 531 q 932 379 938 407 l 500 385 q 494 308 494 346 q 558 117 494 193 q 719 40 621 40 q 917 154 838 40 l 944 135 q 845 25 910 65 q 703 -15 781 -15 q 560 24 625 -15 q 458 132 494 63 m 864 425 q 829 547 868 500 q 715 593 790 593 q 594 544 653 593 q 510 417 535 494 l 864 425 m 426 351 q 199 263 268 307 q 129 146 129 219 q 161 65 129 94 q 246 36 193 36 q 443 165 351 36 q 422 293 422 224 q 426 351 422 310 z "},"ç":{"ha":619,"x_min":53,"x_max":575,"o":"m 329 -15 q 132 70 211 -14 q 53 293 53 154 q 144 536 53 438 q 365 635 235 635 q 509 599 451 635 q 567 515 567 564 q 551 469 567 486 q 513 451 536 451 q 461 480 475 451 q 471 558 447 508 l 471 561 q 356 592 432 592 q 191 509 257 592 q 125 308 125 426 q 188 117 125 193 q 350 40 251 40 q 547 154 468 40 l 575 135 q 493 37 546 75 q 376 -12 440 -1 l 306 -86 q 429 -112 379 -81 q 479 -203 479 -144 q 412 -306 479 -262 q 214 -362 344 -350 l 206 -337 q 370 -290 318 -321 q 422 -207 422 -258 q 391 -151 422 -172 q 303 -129 360 -129 q 235 -135 282 -129 l 235 -118 l 329 -15 z "},"è":{"ha":624,"x_min":53,"x_max":575,"o":"m 575 135 q 476 25 540 65 q 333 -15 411 -15 q 133 69 214 -15 q 53 293 53 153 q 144 535 53 436 q 361 635 236 635 q 511 583 454 635 q 568 449 568 531 q 563 379 568 407 l 131 385 q 125 308 125 346 q 188 117 125 193 q 350 40 251 40 q 547 154 468 40 l 575 135 m 494 425 q 460 547 499 500 q 346 593 421 593 q 224 544 283 593 q 140 417 165 494 l 494 425 m 375 701 l 346 701 l 126 947 l 235 947 l 375 701 z "},"é":{"ha":624,"x_min":53,"x_max":575,"o":"m 575 135 q 476 25 540 65 q 333 -15 411 -15 q 133 69 214 -15 q 53 293 53 153 q 144 535 53 436 q 361 635 236 635 q 511 583 454 635 q 568 449 568 531 q 563 379 568 407 l 131 385 q 125 308 125 346 q 188 117 125 193 q 350 40 251 40 q 547 154 468 40 l 575 135 m 494 425 q 460 547 499 500 q 346 593 421 593 q 224 544 283 593 q 140 417 165 494 l 494 425 m 510 947 l 290 701 l 261 701 l 401 947 l 510 947 z "},"ê":{"ha":624,"x_min":53,"x_max":575,"o":"m 575 135 q 476 25 540 65 q 333 -15 411 -15 q 133 69 214 -15 q 53 293 53 153 q 144 535 53 436 q 361 635 236 635 q 511 583 454 635 q 568 449 568 531 q 563 379 568 407 l 131 385 q 125 308 125 346 q 188 117 125 193 q 350 40 251 40 q 547 154 468 40 l 575 135 m 494 425 q 460 547 499 500 q 346 593 421 593 q 224 544 283 593 q 140 417 165 494 l 494 425 m 517 701 l 481 701 q 328 918 329 918 l 325 918 l 172 701 l 136 701 l 304 989 l 349 989 l 517 701 z "},"ë":{"ha":624,"x_min":53,"x_max":575,"o":"m 575 135 q 476 25 540 65 q 333 -15 411 -15 q 133 69 214 -15 q 53 293 53 153 q 144 535 53 436 q 361 635 236 635 q 511 583 454 635 q 568 449 568 531 q 563 379 568 407 l 131 385 q 125 308 125 346 q 188 117 125 193 q 350 40 251 40 q 547 154 468 40 l 575 135 m 494 425 q 460 547 499 500 q 346 593 421 593 q 224 544 283 593 q 140 417 165 494 l 494 425 m 510 844 q 519 834 510 844 q 528 796 528 824 q 510 747 528 768 q 465 726 493 726 q 418 747 436 726 q 400 796 400 768 q 418 844 400 824 q 465 864 436 864 q 510 844 493 864 m 234 844 q 243 834 234 844 q 251 796 251 824 q 234 747 251 768 q 188 726 217 726 q 142 747 158 726 q 125 796 125 768 q 142 844 125 824 q 188 864 158 864 q 234 844 217 864 z "},"ì":{"ha":351,"x_min":-43,"x_max":321,"o":"m 321 0 l 33 0 l 38 43 l 139 51 q 144 60 144 51 l 144 540 q 142 553 144 549 q 138 558 140 558 l 129 561 l 22 571 l 26 606 l 210 635 l 210 60 q 215 51 210 51 l 317 43 l 321 0 m 206 701 l 176 701 l -43 947 l 65 947 l 206 701 z "},"í":{"ha":351,"x_min":22,"x_max":354,"o":"m 321 0 l 33 0 l 38 43 l 139 51 q 144 60 144 51 l 144 540 q 142 553 144 549 q 138 558 140 558 l 129 561 l 22 571 l 26 606 l 210 635 l 210 60 q 215 51 210 51 l 317 43 l 321 0 m 354 947 l 135 701 l 106 701 l 246 947 l 354 947 z "},"î":{"ha":351,"x_min":-22,"x_max":358,"o":"m 321 0 l 33 0 l 38 43 l 139 51 q 144 60 144 51 l 144 540 q 142 553 144 549 q 138 558 140 558 l 129 561 l 22 571 l 26 606 l 210 635 l 210 60 q 215 51 210 51 l 317 43 l 321 0 m 358 701 l 322 701 q 169 918 171 918 l 167 918 l 14 701 l -22 701 l 146 989 l 190 989 l 358 701 z "},"ï":{"ha":351,"x_min":-33,"x_max":369,"o":"m 321 0 l 33 0 l 38 43 l 139 51 q 144 60 144 51 l 144 540 q 142 553 144 549 q 138 558 140 558 l 129 561 l 22 571 l 26 606 l 210 635 l 210 60 q 215 51 210 51 l 317 43 l 321 0 m 352 844 q 361 834 352 844 q 369 796 369 824 q 352 747 369 768 q 307 726 335 726 q 260 747 278 726 q 242 796 242 768 q 260 844 242 824 q 307 864 278 864 q 352 844 335 864 m 76 844 q 84 834 76 844 q 93 796 93 824 q 76 747 93 768 q 29 726 58 726 q -17 747 0 726 q -33 796 -33 768 q -17 844 -33 824 q 29 864 0 864 q 76 844 58 864 z "},"ð":{"ha":658,"x_min":17,"x_max":622,"o":"m 371 781 l 321 764 q 219 731 271 747 l 169 714 l 169 767 l 325 818 q 161 899 251 872 l 192 924 q 383 838 299 899 l 574 901 l 574 849 q 431 801 432 801 q 572 607 522 719 q 622 375 622 494 q 542 94 622 210 q 313 -21 463 -21 q 97 72 178 -21 q 17 304 17 165 q 102 536 17 438 q 310 635 188 635 q 441 597 381 635 q 538 488 501 558 q 371 781 501 664 m 93 317 q 185 78 93 169 q 326 19 243 19 q 484 94 425 19 q 543 297 543 168 q 461 526 543 444 q 310 594 393 594 q 152 520 211 594 q 93 317 93 446 z "},"ñ":{"ha":736,"x_min":19,"x_max":721,"o":"m 721 0 l 433 0 l 438 43 l 539 51 q 544 60 544 51 l 544 392 q 399 575 544 575 q 207 478 304 575 l 207 60 q 213 51 207 51 l 314 43 l 318 0 l 38 0 l 42 43 l 136 51 q 142 60 142 51 l 142 550 q 135 560 142 560 l 19 571 l 24 606 l 207 635 l 207 531 l 214 531 q 436 635 342 635 q 561 586 513 635 q 610 436 610 538 l 610 60 q 615 51 610 51 l 717 43 l 721 0 m 585 867 q 461 722 558 722 q 355 772 421 722 q 271 821 289 821 q 224 803 242 821 q 186 729 206 786 l 151 729 q 275 874 178 874 q 382 824 315 874 q 465 775 449 775 q 513 792 494 775 q 549 867 531 810 l 585 867 z "},"ò":{"ha":719,"x_min":58,"x_max":667,"o":"m 667 311 q 578 72 667 164 q 360 -21 490 -21 q 144 68 231 -21 q 58 303 58 157 q 147 542 58 450 q 365 635 235 635 q 581 546 494 635 q 667 311 667 457 m 597 308 q 522 522 597 447 q 363 589 456 589 q 194 507 260 589 q 128 306 128 425 q 207 88 128 167 q 363 25 269 25 q 531 107 465 25 q 597 308 597 189 m 432 701 l 403 701 l 183 947 l 292 947 l 432 701 z "},"ó":{"ha":719,"x_min":58,"x_max":667,"o":"m 667 311 q 578 72 667 164 q 360 -21 490 -21 q 144 68 231 -21 q 58 303 58 157 q 147 542 58 450 q 365 635 235 635 q 581 546 494 635 q 667 311 667 457 m 597 308 q 522 522 597 447 q 363 589 456 589 q 194 507 260 589 q 128 306 128 425 q 207 88 128 167 q 363 25 269 25 q 531 107 465 25 q 597 308 597 189 m 539 947 l 319 701 l 290 701 l 431 947 l 539 947 z "},"ô":{"ha":719,"x_min":58,"x_max":667,"o":"m 667 311 q 578 72 667 164 q 360 -21 490 -21 q 144 68 231 -21 q 58 303 58 157 q 147 542 58 450 q 365 635 235 635 q 581 546 494 635 q 667 311 667 457 m 597 308 q 522 522 597 447 q 363 589 456 589 q 194 507 260 589 q 128 306 128 425 q 207 88 128 167 q 363 25 269 25 q 531 107 465 25 q 597 308 597 189 m 550 701 l 514 701 q 361 918 363 918 l 358 918 l 206 701 l 169 701 l 338 989 l 382 989 l 550 701 z "},"õ":{"ha":719,"x_min":58,"x_max":667,"o":"m 667 311 q 578 72 667 164 q 360 -21 490 -21 q 144 68 231 -21 q 58 303 58 157 q 147 542 58 450 q 365 635 235 635 q 581 546 494 635 q 667 311 667 457 m 597 308 q 522 522 597 447 q 363 589 456 589 q 194 507 260 589 q 128 306 128 425 q 207 88 128 167 q 363 25 269 25 q 531 107 465 25 q 597 308 597 189 m 576 867 q 453 722 550 722 q 347 772 413 722 q 263 821 281 821 q 215 803 233 821 q 178 729 197 786 l 143 729 q 267 874 169 874 q 374 824 307 874 q 457 775 440 775 q 504 792 486 775 q 540 867 522 810 l 576 867 z "},"ö":{"ha":719,"x_min":58,"x_max":667,"o":"m 667 311 q 578 72 667 164 q 360 -21 490 -21 q 144 68 231 -21 q 58 303 58 157 q 147 542 58 450 q 365 635 235 635 q 581 546 494 635 q 667 311 667 457 m 597 308 q 522 522 597 447 q 363 589 456 589 q 194 507 260 589 q 128 306 128 425 q 207 88 128 167 q 363 25 269 25 q 531 107 465 25 q 597 308 597 189 m 544 844 q 552 834 544 844 q 561 796 561 824 q 544 747 561 768 q 499 726 526 726 q 451 747 469 726 q 433 796 433 768 q 451 844 433 824 q 499 864 469 864 q 544 844 526 864 m 267 844 q 276 834 267 844 q 285 796 285 824 q 267 747 285 768 q 221 726 250 726 q 175 747 192 726 q 158 796 158 768 q 175 844 158 824 q 221 864 192 864 q 267 844 250 864 z "},"÷":{"ha":667,"x_min":49,"x_max":618,"o":"m 618 296 l 49 296 l 53 356 l 614 356 l 618 296 m 269 518 q 288 565 269 546 q 333 583 307 583 q 380 564 361 583 q 399 518 399 544 q 380 473 399 492 q 333 454 361 454 q 288 473 306 454 q 269 518 269 492 m 269 132 q 288 178 269 160 q 333 197 307 197 q 380 178 361 197 q 399 132 399 158 q 380 87 399 106 q 333 68 361 68 q 288 87 306 68 q 269 132 269 106 z "},"ø":{"ha":719,"x_min":58,"x_max":661,"o":"m 624 717 l 543 576 q 661 310 661 485 q 574 78 661 176 q 354 -21 486 -21 q 215 13 279 -21 l 149 -103 l 97 -103 l 179 35 q 58 304 58 128 q 146 536 58 438 q 365 635 233 635 q 508 600 443 635 l 576 717 l 624 717 m 478 549 q 351 594 418 594 q 194 520 253 594 q 135 317 135 446 q 213 93 135 185 l 478 549 m 585 297 q 510 519 585 438 l 244 63 q 368 19 297 19 q 526 94 467 19 q 585 297 585 168 z "},"ù":{"ha":722,"x_min":15,"x_max":715,"o":"m 715 33 l 711 4 l 528 -21 l 528 85 l 521 85 q 299 -19 393 -19 q 174 29 222 -19 q 125 179 125 78 l 126 556 q 121 564 126 564 l 19 572 l 15 615 l 193 615 l 190 224 q 336 40 190 40 q 528 138 431 40 l 528 556 q 522 564 528 564 l 421 572 l 417 615 l 593 615 l 593 58 q 600 42 593 42 l 715 33 m 406 701 l 376 701 l 157 947 l 265 947 l 406 701 z "},"ú":{"ha":722,"x_min":15,"x_max":715,"o":"m 715 33 l 711 4 l 528 -21 l 528 85 l 521 85 q 299 -19 393 -19 q 174 29 222 -19 q 125 179 125 78 l 126 556 q 121 564 126 564 l 19 572 l 15 615 l 193 615 l 190 224 q 336 40 190 40 q 528 138 431 40 l 528 556 q 522 564 528 564 l 421 572 l 417 615 l 593 615 l 593 58 q 600 42 593 42 l 715 33 m 554 947 l 335 701 l 306 701 l 446 947 l 554 947 z "},"û":{"ha":722,"x_min":15,"x_max":715,"o":"m 715 33 l 711 4 l 528 -21 l 528 85 l 521 85 q 299 -19 393 -19 q 174 29 222 -19 q 125 179 125 78 l 126 556 q 121 564 126 564 l 19 572 l 15 615 l 193 615 l 190 224 q 336 40 190 40 q 528 138 431 40 l 528 556 q 522 564 528 564 l 421 572 l 417 615 l 593 615 l 593 58 q 600 42 593 42 l 715 33 m 531 701 l 494 701 q 342 918 343 918 l 339 918 l 186 701 l 150 701 l 318 989 l 363 989 l 531 701 z "},"ü":{"ha":722,"x_min":15,"x_max":715,"o":"m 715 33 l 711 4 l 528 -21 l 528 85 l 521 85 q 299 -19 393 -19 q 174 29 222 -19 q 125 179 125 78 l 126 556 q 121 564 126 564 l 19 572 l 15 615 l 193 615 l 190 224 q 336 40 190 40 q 528 138 431 40 l 528 556 q 522 564 528 564 l 421 572 l 417 615 l 593 615 l 593 58 q 600 42 593 42 l 715 33 m 524 844 q 533 834 524 844 q 542 796 542 824 q 524 747 542 768 q 479 726 507 726 q 432 747 450 726 q 414 796 414 768 q 432 844 414 824 q 479 864 450 864 q 524 844 507 864 m 248 844 q 257 834 248 844 q 265 796 265 824 q 248 747 265 768 q 201 726 231 726 q 156 747 172 726 q 139 796 139 768 q 156 844 139 824 q 201 864 172 864 q 248 844 231 864 z "},"ý":{"ha":606,"x_min":-15,"x_max":631,"o":"m 294 -42 l 69 551 q 57 563 67 561 l -11 572 l -15 615 l 224 615 l 219 572 l 146 564 q 138 554 135 564 l 325 47 l 494 550 q 490 560 497 560 l 407 572 l 403 615 l 631 615 l 626 572 l 557 563 q 547 553 551 563 l 358 15 l 299 -193 q 234 -326 274 -283 q 133 -368 194 -368 q 74 -349 99 -368 q 49 -303 49 -331 q 64 -260 49 -276 q 107 -243 79 -243 q 178 -310 158 -243 q 258 -165 222 -290 l 294 -42 m 482 947 l 263 701 l 233 701 l 374 947 l 482 947 z "},"þ":{"ha":706,"x_min":-25,"x_max":650,"o":"m 650 339 q 556 84 650 189 q 326 -21 463 -21 q 183 14 253 -21 l 176 14 l 176 -282 q 182 -290 176 -290 l 297 -299 l 301 -342 l 0 -342 l 4 -299 l 106 -290 q 111 -282 111 -290 l 111 874 q 109 887 111 882 q 104 892 107 892 l 96 894 l -25 904 l -21 939 l 176 968 l 176 535 l 181 535 q 240 583 218 567 q 304 616 263 599 q 388 633 346 633 q 574 549 499 633 q 650 339 650 464 m 574 308 q 513 496 574 419 q 357 572 453 572 q 176 479 260 572 l 176 83 q 343 25 260 25 q 506 105 439 25 q 574 308 574 185 z "},"ÿ":{"ha":606,"x_min":-15,"x_max":631,"o":"m 294 -42 l 69 551 q 57 563 67 561 l -11 572 l -15 615 l 224 615 l 219 572 l 146 564 q 138 554 135 564 l 325 47 l 494 550 q 490 560 497 560 l 407 572 l 403 615 l 631 615 l 626 572 l 557 563 q 547 553 551 563 l 358 15 l 299 -193 q 234 -326 274 -283 q 133 -368 194 -368 q 74 -349 99 -368 q 49 -303 49 -331 q 64 -260 49 -276 q 107 -243 79 -243 q 178 -310 158 -243 q 258 -165 222 -290 l 294 -42 m 499 844 q 508 834 499 844 q 517 796 517 824 q 499 747 517 768 q 454 726 482 726 q 407 747 425 726 q 389 796 389 768 q 407 844 389 824 q 454 864 425 864 q 499 844 482 864 m 223 844 q 232 834 223 844 q 240 796 240 824 q 223 747 240 768 q 176 726 206 726 q 131 747 147 726 q 114 796 114 768 q 131 844 114 824 q 176 864 147 864 q 223 844 206 864 z "},"Ā":{"ha":818,"x_min":-22,"x_max":840,"o":"m 840 0 l 532 0 l 536 43 l 642 51 q 650 61 653 51 l 563 318 l 231 318 l 143 63 q 147 53 140 53 l 249 43 l 253 0 l -22 0 l -18 43 l 75 53 q 85 63 81 53 l 354 825 l 354 857 l 447 885 l 728 64 q 740 53 731 54 l 836 43 l 840 0 m 544 371 l 403 800 l 396 800 l 249 371 l 544 371 m 574 997 l 247 997 l 251 1050 l 569 1050 l 574 997 z "},"ā":{"ha":611,"x_min":57,"x_max":607,"o":"m 607 54 q 493 -19 546 -19 q 435 7 458 -19 q 418 86 411 33 l 413 86 q 235 -21 306 -21 q 110 23 161 -21 q 60 136 60 67 q 141 281 60 225 q 429 393 222 336 l 429 406 q 396 546 433 504 q 272 588 358 588 q 186 572 225 588 q 147 542 147 556 l 156 525 q 165 490 165 508 q 149 456 165 471 q 111 440 133 440 q 73 453 89 440 q 57 492 57 467 q 133 588 57 540 q 296 635 210 635 q 451 583 401 635 q 494 399 500 531 l 482 68 q 510 32 481 32 q 583 82 536 32 l 607 54 m 418 138 l 426 351 q 198 263 267 306 q 129 146 129 219 q 161 65 129 94 q 246 36 193 36 q 279 41 263 36 q 308 51 296 46 q 338 69 319 56 q 363 89 356 83 q 392 114 371 94 q 418 138 413 133 m 463 744 l 136 744 l 140 797 l 458 797 l 463 744 z "},"Ă":{"ha":818,"x_min":-22,"x_max":840,"o":"m 840 0 l 532 0 l 536 43 l 642 51 q 650 61 653 51 l 563 318 l 231 318 l 143 63 q 147 53 140 53 l 249 43 l 253 0 l -22 0 l -18 43 l 75 53 q 85 63 81 53 l 354 825 l 354 857 l 447 885 l 728 64 q 740 53 731 54 l 836 43 l 840 0 m 544 371 l 403 800 l 396 800 l 249 371 l 544 371 m 606 1200 q 588 1133 596 1161 q 564 1068 581 1104 q 528 1009 547 1032 q 481 970 510 986 q 415 954 451 954 q 350 970 379 954 q 302 1009 321 986 q 267 1068 283 1032 q 242 1133 250 1104 q 225 1200 235 1161 l 261 1200 q 327 1052 290 1096 q 415 1008 364 1008 q 503 1052 467 1008 q 569 1200 540 1096 l 606 1200 z "},"ă":{"ha":611,"x_min":57,"x_max":607,"o":"m 607 54 q 493 -19 546 -19 q 435 7 458 -19 q 418 86 411 33 l 413 86 q 235 -21 306 -21 q 110 23 161 -21 q 60 136 60 67 q 141 281 60 225 q 429 393 222 336 l 429 406 q 396 546 433 504 q 272 588 358 588 q 186 572 225 588 q 147 542 147 556 l 156 525 q 165 490 165 508 q 149 456 165 471 q 111 440 133 440 q 73 453 89 440 q 57 492 57 467 q 133 588 57 540 q 296 635 210 635 q 451 583 401 635 q 494 399 500 531 l 482 68 q 510 32 481 32 q 583 82 536 32 l 607 54 m 418 138 l 426 351 q 198 263 267 306 q 129 146 129 219 q 161 65 129 94 q 246 36 193 36 q 279 41 263 36 q 308 51 296 46 q 338 69 319 56 q 363 89 356 83 q 392 114 371 94 q 418 138 413 133 m 496 947 q 478 880 486 908 q 454 815 471 851 q 419 756 438 779 q 371 717 400 733 q 306 701 342 701 q 240 717 269 701 q 192 756 211 733 q 157 815 174 779 q 133 880 140 851 q 115 947 125 908 l 151 947 q 217 799 181 843 q 306 756 254 756 q 394 799 357 756 q 460 947 431 843 l 496 947 z "},"Ą":{"ha":818,"x_min":-22,"x_max":840,"o":"m 735 -279 q 659 -253 689 -279 q 629 -178 629 -226 q 765 0 629 -69 l 532 0 l 536 43 l 642 51 q 650 61 650 51 l 563 318 l 231 318 l 143 63 q 147 53 143 53 l 249 43 l 253 0 l -22 0 l -18 43 l 75 53 q 85 63 81 53 l 354 825 l 354 857 l 447 885 l 728 64 q 740 53 731 54 l 836 43 l 840 0 q 728 -67 771 -22 q 685 -160 685 -111 q 702 -214 685 -193 q 749 -235 719 -235 q 817 -201 797 -235 l 835 -217 q 735 -279 801 -279 m 544 371 l 403 800 l 396 800 l 249 371 l 544 371 z "},"ą":{"ha":611,"x_min":57,"x_max":607,"o":"m 497 -279 q 421 -252 451 -279 q 390 -176 390 -225 q 489 -17 390 -86 q 432 10 453 -18 q 418 86 411 38 l 413 86 q 235 -21 306 -21 q 110 23 161 -21 q 60 136 60 67 q 141 281 60 225 q 429 393 222 336 l 429 406 q 396 546 433 504 q 272 588 358 588 q 186 572 225 588 q 147 542 147 556 l 156 525 q 165 490 165 508 q 149 456 165 471 q 111 440 133 440 q 73 453 89 440 q 57 492 57 467 q 133 588 57 540 q 296 635 210 635 q 451 583 401 635 q 494 399 500 531 l 482 68 q 510 32 481 32 q 583 82 536 32 l 607 54 q 535 -14 568 7 q 446 -161 446 -75 q 464 -213 446 -192 q 510 -235 482 -235 q 578 -201 558 -235 l 596 -217 q 497 -279 563 -279 m 418 138 l 426 351 q 198 263 267 306 q 129 146 129 219 q 161 65 129 94 q 246 36 193 36 q 279 41 263 36 q 308 51 296 46 q 338 69 319 56 q 363 89 356 83 q 392 114 371 94 q 418 138 413 133 z "},"Ć":{"ha":865,"x_min":63,"x_max":818,"o":"m 818 247 l 781 -3 l 733 13 q 510 -19 613 -19 q 190 101 317 -19 q 63 413 63 221 q 190 754 63 621 q 519 888 318 888 q 715 865 624 888 l 810 889 l 810 615 l 765 615 l 733 801 q 507 843 633 843 q 244 726 349 843 q 140 429 140 610 q 242 138 140 251 q 517 25 344 25 q 715 65 610 25 l 771 247 l 818 247 m 694 1200 l 475 954 l 446 954 l 586 1200 l 694 1200 z "},"ć":{"ha":619,"x_min":53,"x_max":575,"o":"m 575 135 q 476 25 540 65 q 333 -15 411 -15 q 133 69 214 -15 q 53 293 53 153 q 144 536 53 438 q 365 635 235 635 q 509 599 451 635 q 567 515 567 564 q 551 469 567 486 q 513 451 536 451 q 461 480 475 451 q 471 558 447 508 l 471 561 q 356 592 432 592 q 191 509 257 592 q 125 308 125 426 q 188 117 125 193 q 350 40 251 40 q 547 154 468 40 l 575 135 m 504 947 l 285 701 l 256 701 l 396 947 l 504 947 z "},"Ĉ":{"ha":865,"x_min":63,"x_max":818,"o":"m 818 247 l 781 -3 l 733 13 q 510 -19 613 -19 q 190 101 317 -19 q 63 413 63 221 q 190 754 63 621 q 519 888 318 888 q 715 865 624 888 l 810 889 l 810 615 l 765 615 l 733 801 q 507 843 633 843 q 244 726 349 843 q 140 429 140 610 q 242 138 140 251 q 517 25 344 25 q 715 65 610 25 l 771 247 l 818 247 m 678 954 l 642 954 q 489 1171 490 1171 l 486 1171 l 333 954 l 297 954 l 465 1242 l 510 1242 l 678 954 z "},"ĉ":{"ha":619,"x_min":53,"x_max":575,"o":"m 575 135 q 476 25 540 65 q 333 -15 411 -15 q 133 69 214 -15 q 53 293 53 153 q 144 536 53 438 q 365 635 235 635 q 509 599 451 635 q 567 515 567 564 q 551 469 567 486 q 513 451 536 451 q 461 480 475 451 q 471 558 447 508 l 471 561 q 356 592 432 592 q 191 509 257 592 q 125 308 125 426 q 188 117 125 193 q 350 40 251 40 q 547 154 468 40 l 575 135 m 524 701 l 488 701 q 335 918 336 918 l 332 918 l 179 701 l 143 701 l 311 989 l 356 989 l 524 701 z "},"Ċ":{"ha":865,"x_min":63,"x_max":818,"o":"m 818 247 l 781 -3 l 733 13 q 510 -19 613 -19 q 190 101 317 -19 q 63 413 63 221 q 190 754 63 621 q 519 888 318 888 q 715 865 624 888 l 810 889 l 810 615 l 765 615 l 733 801 q 507 843 633 843 q 244 726 349 843 q 140 429 140 610 q 242 138 140 251 q 517 25 344 25 q 715 65 610 25 l 771 247 l 818 247 m 563 1129 q 572 1118 563 1129 q 582 1076 582 1107 q 563 1023 582 1046 q 511 1000 543 1000 q 460 1023 479 1000 q 442 1076 442 1046 q 460 1129 442 1107 q 511 1151 479 1151 q 563 1129 543 1151 z "},"ċ":{"ha":619,"x_min":53,"x_max":575,"o":"m 575 135 q 476 25 540 65 q 333 -15 411 -15 q 133 69 214 -15 q 53 293 53 153 q 144 536 53 438 q 365 635 235 635 q 509 599 451 635 q 567 515 567 564 q 551 469 567 486 q 513 451 536 451 q 461 480 475 451 q 471 558 447 508 l 471 561 q 356 592 432 592 q 191 509 257 592 q 125 308 125 426 q 188 117 125 193 q 350 40 251 40 q 547 154 468 40 l 575 135 m 399 876 q 408 865 399 876 q 418 824 418 854 q 399 770 418 793 q 347 747 379 747 q 297 770 315 747 q 278 824 278 793 q 297 876 278 854 q 347 899 315 899 q 399 876 379 899 z "},"Č":{"ha":865,"x_min":63,"x_max":818,"o":"m 818 247 l 781 -3 l 733 13 q 510 -19 613 -19 q 190 101 317 -19 q 63 413 63 221 q 190 754 63 621 q 519 888 318 888 q 715 865 624 888 l 810 889 l 810 615 l 765 615 l 733 801 q 507 843 633 843 q 244 726 349 843 q 140 429 140 610 q 242 138 140 251 q 517 25 344 25 q 715 65 610 25 l 771 247 l 818 247 m 692 1242 l 524 954 l 479 954 l 311 1242 l 347 1242 l 500 1025 l 503 1025 l 656 1242 l 692 1242 z "},"č":{"ha":619,"x_min":53,"x_max":575,"o":"m 575 135 q 476 25 540 65 q 333 -15 411 -15 q 133 69 214 -15 q 53 293 53 153 q 144 536 53 438 q 365 635 235 635 q 509 599 451 635 q 567 515 567 564 q 551 469 567 486 q 513 451 536 451 q 461 480 475 451 q 471 558 447 508 l 471 561 q 356 592 432 592 q 191 509 257 592 q 125 308 125 426 q 188 117 125 193 q 350 40 251 40 q 547 154 468 40 l 575 135 m 525 989 l 357 701 l 313 701 l 144 989 l 181 989 l 333 772 l 336 772 l 489 989 l 525 989 z "},"Ď":{"ha":915,"x_min":61,"x_max":853,"o":"m 853 442 q 822 276 853 354 q 731 136 790 199 q 574 37 671 74 q 354 0 476 0 l 61 0 l 65 43 l 172 54 q 179 63 179 57 l 179 806 q 172 814 179 813 l 65 825 l 61 868 l 346 871 q 720 754 588 872 q 853 442 853 636 m 774 421 q 659 717 774 607 q 331 826 544 826 l 253 826 l 253 58 l 392 44 q 670 158 567 54 q 774 421 774 263 m 628 1242 l 460 954 l 415 954 l 247 1242 l 283 1242 l 436 1025 l 439 1025 l 592 1242 l 628 1242 z "},"ď":{"ha":1029,"x_min":56,"x_max":933,"o":"m 717 33 l 713 4 l 529 -19 l 529 68 l 525 68 q 317 -21 439 -21 q 131 66 207 -21 q 56 292 56 153 q 147 540 56 444 q 372 635 238 635 q 522 599 450 635 l 529 599 l 529 889 q 522 899 529 899 l 393 914 l 397 943 l 594 968 l 594 58 q 601 42 594 42 l 717 33 m 529 118 l 529 529 q 365 589 444 589 q 192 509 257 589 q 126 304 126 429 q 186 109 126 185 q 343 33 246 33 q 529 118 442 33 m 933 863 q 754 606 933 726 l 736 628 q 849 815 849 715 q 840 853 849 836 q 818 881 831 871 q 792 899 806 892 q 770 910 779 907 q 761 915 761 914 q 776 960 761 942 q 825 979 792 979 q 903 946 872 979 q 933 863 933 913 z "},"Đ":{"ha":915,"x_min":46,"x_max":853,"o":"m 179 422 l 46 422 l 50 471 l 179 471 l 179 806 q 172 814 179 813 l 65 825 l 61 868 l 346 871 q 720 754 588 872 q 853 442 853 636 q 822 276 853 354 q 731 136 790 199 q 574 37 671 74 q 354 0 476 0 l 61 0 l 65 43 l 172 54 q 179 63 179 57 l 179 422 m 253 471 l 449 471 l 453 422 l 253 422 l 253 58 l 392 44 q 670 158 567 54 q 774 421 774 263 q 659 717 774 607 q 331 826 544 826 l 253 826 l 253 471 z "},"đ":{"ha":735,"x_min":56,"x_max":719,"o":"m 717 33 l 713 4 l 529 -19 l 529 68 l 525 68 q 317 -21 439 -21 q 131 66 207 -21 q 56 292 56 153 q 147 540 56 444 q 372 635 238 635 q 522 599 450 635 l 529 599 l 529 756 l 360 756 l 364 801 l 529 801 l 529 889 q 522 899 529 899 l 393 914 l 397 943 l 594 968 l 594 801 l 715 801 l 719 756 l 594 754 l 594 58 q 601 42 594 42 l 717 33 m 529 118 l 529 529 q 365 589 444 589 q 192 509 257 589 q 126 304 126 429 q 186 109 126 185 q 343 33 246 33 q 529 118 442 33 z "},"Ē":{"ha":776,"x_min":61,"x_max":721,"o":"m 721 232 l 696 0 l 61 0 l 65 43 l 174 54 q 179 63 179 56 l 179 806 q 174 814 179 813 l 65 825 l 61 868 l 694 868 l 694 633 l 649 633 l 624 785 q 615 805 621 799 q 576 816 608 811 q 486 822 543 821 q 314 824 429 824 l 253 824 l 253 467 l 342 467 q 465 469 444 467 q 489 486 485 472 l 519 578 l 553 578 l 526 310 l 493 310 l 485 400 q 478 413 483 410 q 441 419 472 417 q 340 422 410 422 l 253 422 l 253 44 l 285 44 q 479 46 413 44 q 581 52 546 47 q 624 63 617 57 q 635 83 631 69 l 671 232 l 721 232 m 574 997 l 247 997 l 251 1050 l 569 1050 l 574 997 z "},"ē":{"ha":624,"x_min":53,"x_max":575,"o":"m 575 135 q 476 25 540 65 q 333 -15 411 -15 q 133 69 214 -15 q 53 293 53 153 q 144 535 53 436 q 361 635 236 635 q 511 583 454 635 q 568 449 568 531 q 563 379 568 407 l 131 385 q 125 308 125 346 q 188 117 125 193 q 350 40 251 40 q 547 154 468 40 l 575 135 m 494 425 q 460 547 499 500 q 346 593 421 593 q 224 544 283 593 q 140 417 165 494 l 494 425 m 506 744 l 179 744 l 183 797 l 501 797 l 506 744 z "},"Ĕ":{"ha":776,"x_min":61,"x_max":721,"o":"m 721 232 l 696 0 l 61 0 l 65 43 l 174 54 q 179 63 179 56 l 179 806 q 174 814 179 813 l 65 825 l 61 868 l 694 868 l 694 633 l 649 633 l 624 785 q 615 805 621 799 q 576 816 608 811 q 486 822 543 821 q 314 824 429 824 l 253 824 l 253 467 l 342 467 q 465 469 444 467 q 489 486 485 472 l 519 578 l 553 578 l 526 310 l 493 310 l 485 400 q 478 413 483 410 q 441 419 472 417 q 340 422 410 422 l 253 422 l 253 44 l 285 44 q 479 46 413 44 q 581 52 546 47 q 624 63 617 57 q 635 83 631 69 l 671 232 l 721 232 m 590 1200 q 573 1133 581 1161 q 549 1068 565 1104 q 513 1009 532 1032 q 465 970 494 986 q 400 954 436 954 q 335 970 364 954 q 287 1009 306 986 q 251 1068 268 1032 q 227 1133 235 1104 q 210 1200 219 1161 l 246 1200 q 312 1052 275 1096 q 400 1008 349 1008 q 488 1052 451 1008 q 554 1200 525 1096 l 590 1200 z "},"ĕ":{"ha":624,"x_min":53,"x_max":575,"o":"m 575 135 q 476 25 540 65 q 333 -15 411 -15 q 133 69 214 -15 q 53 293 53 153 q 144 535 53 436 q 361 635 236 635 q 511 583 454 635 q 568 449 568 531 q 563 379 568 407 l 131 385 q 125 308 125 346 q 188 117 125 193 q 350 40 251 40 q 547 154 468 40 l 575 135 m 494 425 q 460 547 499 500 q 346 593 421 593 q 224 544 283 593 q 140 417 165 494 l 494 425 m 507 947 q 490 880 497 908 q 465 815 482 851 q 430 756 449 779 q 382 717 411 733 q 317 701 353 701 q 251 717 281 701 q 203 756 222 733 q 168 815 185 779 q 144 880 151 851 q 126 947 136 908 l 163 947 q 228 799 192 843 q 317 756 265 756 q 405 799 368 756 q 471 947 442 843 l 507 947 z "},"Ė":{"ha":776,"x_min":61,"x_max":721,"o":"m 721 232 l 696 0 l 61 0 l 65 43 l 174 54 q 179 63 179 56 l 179 806 q 174 814 179 813 l 65 825 l 61 868 l 694 868 l 694 633 l 649 633 l 624 785 q 615 805 621 799 q 576 816 608 811 q 486 822 543 821 q 314 824 429 824 l 253 824 l 253 467 l 342 467 q 465 469 444 467 q 489 486 485 472 l 519 578 l 553 578 l 526 310 l 493 310 l 485 400 q 478 413 483 410 q 441 419 472 417 q 340 422 410 422 l 253 422 l 253 44 l 285 44 q 479 46 413 44 q 581 52 546 47 q 624 63 617 57 q 635 83 631 69 l 671 232 l 721 232 m 460 1129 q 469 1118 460 1129 q 479 1076 479 1107 q 460 1023 479 1046 q 408 1000 440 1000 q 358 1023 376 1000 q 339 1076 339 1046 q 358 1129 339 1107 q 408 1151 376 1151 q 460 1129 440 1151 z "},"ė":{"ha":624,"x_min":53,"x_max":575,"o":"m 575 135 q 476 25 540 65 q 333 -15 411 -15 q 133 69 214 -15 q 53 293 53 153 q 144 535 53 436 q 361 635 236 635 q 511 583 454 635 q 568 449 568 531 q 563 379 568 407 l 131 385 q 125 308 125 346 q 188 117 125 193 q 350 40 251 40 q 547 154 468 40 l 575 135 m 494 425 q 460 547 499 500 q 346 593 421 593 q 224 544 283 593 q 140 417 165 494 l 494 425 m 386 876 q 396 865 386 876 q 406 824 406 854 q 386 770 406 793 q 335 747 367 747 q 284 770 303 747 q 265 824 265 793 q 284 876 265 854 q 335 899 303 899 q 386 876 367 899 z "},"Ę":{"ha":776,"x_min":61,"x_max":721,"o":"m 596 -279 q 522 -252 550 -279 q 493 -175 493 -225 q 594 0 493 -85 l 61 0 l 65 43 l 174 54 q 179 63 179 56 l 179 806 q 174 814 179 813 l 65 825 l 61 868 l 694 868 l 694 633 l 649 633 l 624 785 q 615 805 621 799 q 576 816 608 811 q 486 822 543 821 q 314 824 429 824 l 253 824 l 253 467 l 342 467 q 465 469 444 467 q 489 486 485 472 l 519 578 l 553 578 l 526 310 l 493 310 l 485 400 q 478 413 483 410 q 441 419 472 417 q 340 422 410 422 l 253 422 l 253 44 l 285 44 q 479 46 413 44 q 581 52 546 47 q 624 63 617 57 q 635 83 631 69 l 671 232 l 721 232 l 696 0 l 639 0 q 549 -156 549 -76 q 565 -212 549 -190 q 610 -235 582 -235 q 678 -201 658 -235 l 696 -217 q 596 -279 663 -279 z "},"ę":{"ha":624,"x_min":53,"x_max":575,"o":"m 397 -279 q 323 -252 351 -279 q 294 -175 294 -225 q 383 -11 294 -93 q 333 -15 358 -15 q 133 69 214 -15 q 53 293 53 153 q 144 535 53 436 q 361 635 236 635 q 511 583 454 635 q 568 449 568 531 q 563 379 568 407 l 131 385 q 125 308 125 346 q 188 117 125 193 q 350 40 251 40 q 547 154 468 40 l 575 135 q 460 10 539 63 q 350 -156 350 -60 q 367 -212 350 -190 q 411 -235 383 -235 q 479 -201 460 -235 l 497 -217 q 397 -279 464 -279 m 494 425 q 460 547 499 500 q 346 593 421 593 q 224 544 283 593 q 140 417 165 494 l 494 425 z "},"Ě":{"ha":776,"x_min":61,"x_max":721,"o":"m 721 232 l 696 0 l 61 0 l 65 43 l 174 54 q 179 63 179 56 l 179 806 q 174 814 179 813 l 65 825 l 61 868 l 694 868 l 694 633 l 649 633 l 624 785 q 615 805 621 799 q 576 816 608 811 q 486 822 543 821 q 314 824 429 824 l 253 824 l 253 467 l 342 467 q 465 469 444 467 q 489 486 485 472 l 519 578 l 553 578 l 526 310 l 493 310 l 485 400 q 478 413 483 410 q 441 419 472 417 q 340 422 410 422 l 253 422 l 253 44 l 285 44 q 479 46 413 44 q 581 52 546 47 q 624 63 617 57 q 635 83 631 69 l 671 232 l 721 232 m 599 1242 l 431 954 l 386 954 l 218 1242 l 254 1242 l 407 1025 l 410 1025 l 563 1242 l 599 1242 z "},"ě":{"ha":624,"x_min":53,"x_max":575,"o":"m 575 135 q 476 25 540 65 q 333 -15 411 -15 q 133 69 214 -15 q 53 293 53 153 q 144 535 53 436 q 361 635 236 635 q 511 583 454 635 q 568 449 568 531 q 563 379 568 407 l 131 385 q 125 308 125 346 q 188 117 125 193 q 350 40 251 40 q 547 154 468 40 l 575 135 m 494 425 q 460 547 499 500 q 346 593 421 593 q 224 544 283 593 q 140 417 165 494 l 494 425 m 518 989 l 350 701 l 306 701 l 138 989 l 174 989 l 326 772 l 329 772 l 482 989 l 518 989 z "},"Ĝ":{"ha":958,"x_min":63,"x_max":910,"o":"m 910 378 l 906 335 l 803 324 q 796 315 796 321 l 796 78 l 868 74 l 872 39 q 517 -19 676 -19 q 191 101 319 -19 q 63 413 63 221 q 190 754 63 621 q 518 888 317 888 q 714 865 622 888 l 808 889 l 808 615 l 764 615 l 732 801 q 506 843 632 843 q 244 726 347 843 q 140 429 140 610 q 244 138 140 250 q 524 25 347 25 q 724 61 618 25 l 724 315 q 717 324 724 324 l 590 335 l 586 378 l 910 378 m 694 954 l 658 954 q 506 1171 507 1171 l 503 1171 l 350 954 l 314 954 l 482 1242 l 526 1242 l 694 954 z "},"ĝ":{"ha":600,"x_min":14,"x_max":599,"o":"m 599 536 l 460 563 l 458 558 q 510 415 510 500 q 440 263 510 326 q 271 199 369 199 q 207 203 225 199 q 131 117 131 164 q 153 72 131 89 q 214 56 175 56 l 371 56 q 526 10 475 56 q 576 -106 576 -35 q 487 -276 576 -208 q 268 -343 397 -343 q 83 -295 151 -343 q 14 -172 14 -247 q 50 -73 14 -117 q 133 -4 86 -29 l 133 -1 q 80 31 101 7 q 58 90 58 56 q 92 161 58 126 q 167 215 125 196 l 167 217 q 76 290 113 238 q 40 408 40 343 q 109 569 40 503 q 279 636 178 636 q 410 608 351 636 l 599 606 l 599 536 m 513 -131 q 356 -7 513 -12 l 340 -7 l 333 -7 l 329 -7 q 319 -8 328 -7 q 298 -8 311 -8 q 256 -9 285 -8 q 186 -10 226 -10 q 111 -66 144 -28 q 78 -156 78 -104 q 140 -261 78 -225 q 290 -297 203 -297 q 447 -248 381 -297 q 513 -131 513 -199 m 436 418 q 382 563 436 517 q 278 597 339 597 q 158 546 201 597 q 114 417 114 494 q 182 264 114 308 q 275 236 221 236 q 371 267 329 236 q 436 418 436 315 m 490 701 l 454 701 q 301 918 303 918 l 299 918 l 146 701 l 110 701 l 278 989 l 322 989 l 490 701 z "},"Ğ":{"ha":958,"x_min":63,"x_max":910,"o":"m 910 378 l 906 335 l 803 324 q 796 315 796 321 l 796 78 l 868 74 l 872 39 q 517 -19 676 -19 q 191 101 319 -19 q 63 413 63 221 q 190 754 63 621 q 518 888 317 888 q 714 865 622 888 l 808 889 l 808 615 l 764 615 l 732 801 q 506 843 632 843 q 244 726 347 843 q 140 429 140 610 q 244 138 140 250 q 524 25 347 25 q 724 61 618 25 l 724 315 q 717 324 724 324 l 590 335 l 586 378 l 910 378 m 704 1200 q 687 1133 694 1161 q 663 1068 679 1104 q 627 1009 646 1032 q 579 970 608 986 q 514 954 550 954 q 449 970 478 954 q 401 1009 419 986 q 365 1068 382 1032 q 341 1133 349 1104 q 324 1200 333 1161 l 360 1200 q 426 1052 389 1096 q 514 1008 463 1008 q 602 1052 565 1008 q 668 1200 639 1096 l 704 1200 z "},"ğ":{"ha":600,"x_min":14,"x_max":599,"o":"m 599 536 l 460 563 l 458 558 q 510 415 510 500 q 440 263 510 326 q 271 199 369 199 q 207 203 225 199 q 131 117 131 164 q 153 72 131 89 q 214 56 175 56 l 371 56 q 526 10 475 56 q 576 -106 576 -35 q 487 -276 576 -208 q 268 -343 397 -343 q 83 -295 151 -343 q 14 -172 14 -247 q 50 -73 14 -117 q 133 -4 86 -29 l 133 -1 q 80 31 101 7 q 58 90 58 56 q 92 161 58 126 q 167 215 125 196 l 167 217 q 76 290 113 238 q 40 408 40 343 q 109 569 40 503 q 279 636 178 636 q 410 608 351 636 l 599 606 l 599 536 m 513 -131 q 356 -7 513 -12 l 340 -7 l 333 -7 l 329 -7 q 319 -8 328 -7 q 298 -8 311 -8 q 256 -9 285 -8 q 186 -10 226 -10 q 111 -66 144 -28 q 78 -156 78 -104 q 140 -261 78 -225 q 290 -297 203 -297 q 447 -248 381 -297 q 513 -131 513 -199 m 436 418 q 382 563 436 517 q 278 597 339 597 q 158 546 201 597 q 114 417 114 494 q 182 264 114 308 q 275 236 221 236 q 371 267 329 236 q 436 418 436 315 m 481 947 q 463 880 471 908 q 439 815 456 851 q 403 756 422 779 q 356 717 385 733 q 290 701 326 701 q 225 717 254 701 q 177 756 196 733 q 142 815 158 779 q 117 880 125 851 q 100 947 110 908 l 136 947 q 202 799 165 843 q 290 756 239 756 q 378 799 342 756 q 444 947 415 843 l 481 947 z "},"Ġ":{"ha":958,"x_min":63,"x_max":910,"o":"m 910 378 l 906 335 l 803 324 q 796 315 796 321 l 796 78 l 868 74 l 872 39 q 517 -19 676 -19 q 191 101 319 -19 q 63 413 63 221 q 190 754 63 621 q 518 888 317 888 q 714 865 622 888 l 808 889 l 808 615 l 764 615 l 732 801 q 506 843 632 843 q 244 726 347 843 q 140 429 140 610 q 244 138 140 250 q 524 25 347 25 q 724 61 618 25 l 724 315 q 717 324 724 324 l 590 335 l 586 378 l 910 378 m 563 1129 q 572 1118 563 1129 q 582 1076 582 1107 q 563 1023 582 1046 q 511 1000 543 1000 q 460 1023 479 1000 q 442 1076 442 1046 q 460 1129 442 1107 q 511 1151 479 1151 q 563 1129 543 1151 z "},"ġ":{"ha":600,"x_min":14,"x_max":599,"o":"m 599 536 l 460 563 l 458 558 q 510 415 510 500 q 440 263 510 326 q 271 199 369 199 q 207 203 225 199 q 131 117 131 164 q 153 72 131 89 q 214 56 175 56 l 371 56 q 526 10 475 56 q 576 -106 576 -35 q 487 -276 576 -208 q 268 -343 397 -343 q 83 -295 151 -343 q 14 -172 14 -247 q 50 -73 14 -117 q 133 -4 86 -29 l 133 -1 q 80 31 101 7 q 58 90 58 56 q 92 161 58 126 q 167 215 125 196 l 167 217 q 76 290 113 238 q 40 408 40 343 q 109 569 40 503 q 279 636 178 636 q 410 608 351 636 l 599 606 l 599 536 m 513 -131 q 356 -7 513 -12 l 340 -7 l 333 -7 l 329 -7 q 319 -8 328 -7 q 298 -8 311 -8 q 256 -9 285 -8 q 186 -10 226 -10 q 111 -66 144 -28 q 78 -156 78 -104 q 140 -261 78 -225 q 290 -297 203 -297 q 447 -248 381 -297 q 513 -131 513 -199 m 436 418 q 382 563 436 517 q 278 597 339 597 q 158 546 201 597 q 114 417 114 494 q 182 264 114 308 q 275 236 221 236 q 371 267 329 236 q 436 418 436 315 m 351 876 q 361 865 351 876 q 371 824 371 854 q 351 770 371 793 q 300 747 332 747 q 249 770 268 747 q 231 824 231 793 q 249 876 231 854 q 300 899 268 899 q 351 876 332 899 z "},"Ģ":{"ha":958,"x_min":63,"x_max":910,"o":"m 910 378 l 906 335 l 803 324 q 796 315 796 321 l 796 78 l 868 74 l 872 39 q 517 -19 676 -19 q 191 101 319 -19 q 63 413 63 221 q 190 754 63 621 q 518 888 317 888 q 714 865 622 888 l 808 889 l 808 615 l 764 615 l 732 801 q 506 843 632 843 q 244 726 347 843 q 140 429 140 610 q 244 138 140 250 q 524 25 347 25 q 724 61 618 25 l 724 315 q 717 324 724 324 l 590 335 l 586 378 l 910 378 m 599 -169 q 454 -349 599 -279 l 439 -331 q 529 -203 529 -282 q 512 -158 529 -176 q 478 -133 494 -140 l 460 -126 q 475 -87 460 -103 q 517 -71 490 -71 q 575 -100 551 -71 q 599 -169 599 -129 z "},"ģ":{"ha":600,"x_min":14,"x_max":599,"o":"m 599 536 l 460 563 l 458 558 q 510 415 510 500 q 440 263 510 326 q 271 199 369 199 q 207 203 225 199 q 131 117 131 164 q 153 72 131 89 q 214 56 175 56 l 371 56 q 526 10 475 56 q 576 -106 576 -35 q 487 -276 576 -208 q 268 -343 397 -343 q 83 -295 151 -343 q 14 -172 14 -247 q 50 -73 14 -117 q 133 -4 86 -29 l 133 -1 q 80 31 101 7 q 58 90 58 56 q 92 161 58 126 q 167 215 125 196 l 167 217 q 76 290 113 238 q 40 408 40 343 q 109 569 40 503 q 279 636 178 636 q 410 608 351 636 l 599 606 l 599 536 m 513 -131 q 356 -7 513 -12 l 340 -7 l 333 -7 l 329 -7 q 319 -8 328 -7 q 298 -8 311 -8 q 256 -9 285 -8 q 186 -10 226 -10 q 111 -66 144 -28 q 78 -156 78 -104 q 140 -261 78 -225 q 290 -297 203 -297 q 447 -248 381 -297 q 513 -131 513 -199 m 436 418 q 382 563 436 517 q 278 597 339 597 q 158 546 201 597 q 114 417 114 494 q 182 264 114 308 q 275 236 221 236 q 371 267 329 236 q 436 418 436 315 m 204 778 q 349 957 204 888 l 364 939 q 274 811 274 890 q 291 767 274 785 q 325 742 308 749 l 343 735 q 328 695 343 711 q 286 679 313 679 q 228 708 251 679 q 204 778 204 738 z "},"Ĥ":{"ha":1004,"x_min":61,"x_max":943,"o":"m 943 0 l 633 0 l 638 43 l 744 54 q 751 63 751 57 l 751 421 l 253 421 l 253 63 q 260 54 253 57 l 367 43 l 371 0 l 61 0 l 65 43 l 172 54 q 179 63 179 57 l 179 806 q 172 814 179 813 l 65 825 l 61 868 l 371 868 l 367 825 l 260 814 q 253 806 253 811 l 253 474 l 751 474 l 751 806 q 744 814 751 813 l 638 825 l 633 868 l 943 868 l 939 825 l 832 814 q 825 806 825 811 l 825 63 q 832 54 825 57 l 939 43 l 943 0 m 692 954 l 656 954 q 503 1171 504 1171 l 500 1171 l 347 954 l 311 954 l 479 1242 l 524 1242 l 692 954 z "},"ĥ":{"ha":722,"x_min":3,"x_max":697,"o":"m 697 0 l 417 0 l 421 43 l 522 51 q 528 60 528 51 l 528 392 q 382 575 528 575 q 190 478 288 575 l 190 60 q 196 51 190 51 l 297 43 l 301 0 l 21 0 l 25 43 l 119 51 q 125 60 125 51 l 125 874 q 123 887 125 882 q 118 892 121 892 l 110 894 l 3 904 l 7 939 l 190 968 l 190 531 l 197 531 q 419 635 325 635 q 544 586 496 635 q 593 436 593 538 l 593 60 q 599 51 593 51 l 693 43 l 697 0 m 494 1032 l 458 1032 q 306 1249 307 1249 l 303 1249 l 150 1032 l 114 1032 l 282 1319 l 326 1319 l 494 1032 z "},"Ħ":{"ha":1004,"x_min":47,"x_max":947,"o":"m 943 0 l 633 0 l 638 43 l 744 54 q 751 63 751 57 l 751 421 l 253 421 l 253 63 q 260 54 253 57 l 367 43 l 371 0 l 61 0 l 65 43 l 172 54 q 179 63 179 57 l 179 642 l 47 642 l 51 692 l 179 692 l 179 806 q 172 814 179 813 l 65 825 l 61 868 l 371 868 l 367 825 l 260 814 q 253 806 253 811 l 253 692 l 751 692 l 751 806 q 744 814 751 813 l 638 825 l 633 868 l 943 868 l 939 825 l 832 814 q 825 806 825 811 l 825 692 l 943 692 l 947 642 l 825 642 l 825 63 q 832 54 825 57 l 939 43 l 943 0 m 253 474 l 751 474 l 751 642 l 253 642 l 253 474 z "},"ħ":{"ha":722,"x_min":-1,"x_max":697,"o":"m 697 0 l 417 0 l 421 43 l 522 51 q 528 60 528 51 l 528 392 q 382 575 528 575 q 190 478 288 575 l 190 60 q 196 51 190 51 l 297 43 l 301 0 l 21 0 l 25 43 l 119 51 q 125 60 125 51 l 125 756 l -1 756 l 3 801 l 125 801 l 125 874 q 123 887 125 882 q 118 892 121 892 l 110 894 l 3 904 l 7 939 l 190 968 l 190 801 l 354 801 l 358 756 l 190 756 l 190 531 l 197 531 q 419 635 325 635 q 544 586 496 635 q 593 436 593 538 l 593 60 q 599 51 593 51 l 693 43 l 697 0 z "},"Ī":{"ha":460,"x_min":61,"x_max":399,"o":"m 399 0 l 61 0 l 65 43 l 186 54 q 193 63 193 57 l 193 806 q 186 814 193 813 l 65 825 l 61 868 l 399 868 l 394 825 l 274 814 q 267 806 267 811 l 267 63 q 274 54 267 57 l 394 43 l 399 0 m 394 997 l 68 997 l 72 1050 l 390 1050 l 394 997 z "},"ī":{"ha":351,"x_min":14,"x_max":340,"o":"m 321 0 l 33 0 l 38 43 l 139 51 q 144 60 144 51 l 144 540 q 142 553 144 549 q 138 558 140 558 l 129 561 l 22 571 l 26 606 l 210 635 l 210 60 q 215 51 210 51 l 317 43 l 321 0 m 340 744 l 14 744 l 18 797 l 336 797 l 340 744 z "},"Ĭ":{"ha":460,"x_min":39,"x_max":419,"o":"m 399 0 l 61 0 l 65 43 l 186 54 q 193 63 193 57 l 193 806 q 186 814 193 813 l 65 825 l 61 868 l 399 868 l 394 825 l 274 814 q 267 806 267 811 l 267 63 q 274 54 267 57 l 394 43 l 399 0 m 419 1200 q 402 1133 410 1161 q 378 1068 394 1104 q 342 1009 361 1032 q 294 970 324 986 q 229 954 265 954 q 164 970 193 954 q 116 1009 135 986 q 81 1068 97 1032 q 56 1133 64 1104 q 39 1200 49 1161 l 75 1200 q 141 1052 104 1096 q 229 1008 178 1008 q 317 1052 281 1008 q 383 1200 354 1096 l 419 1200 z "},"ĭ":{"ha":351,"x_min":-15,"x_max":365,"o":"m 321 0 l 33 0 l 38 43 l 139 51 q 144 60 144 51 l 144 540 q 142 553 144 549 q 138 558 140 558 l 129 561 l 22 571 l 26 606 l 210 635 l 210 60 q 215 51 210 51 l 317 43 l 321 0 m 365 947 q 348 880 356 908 q 324 815 340 851 q 288 756 307 779 q 240 717 269 733 q 175 701 211 701 q 110 717 139 701 q 62 756 81 733 q 26 815 43 779 q 2 880 10 851 q -15 947 -6 908 l 21 947 q 87 799 50 843 q 175 756 124 756 q 263 799 226 756 q 329 947 300 843 l 365 947 z "},"Į":{"ha":460,"x_min":61,"x_max":399,"o":"m 297 -279 q 192 -182 192 -279 q 226 -77 192 -125 q 313 0 261 -29 l 61 0 l 65 43 l 186 54 q 193 63 193 57 l 193 806 q 186 814 193 813 l 65 825 l 61 868 l 399 868 l 394 825 l 274 814 q 267 806 267 811 l 267 63 q 274 54 267 57 l 394 43 l 399 0 q 292 -56 336 -6 q 247 -162 247 -106 q 265 -214 247 -193 q 311 -235 283 -235 q 379 -201 360 -235 l 397 -217 q 297 -279 364 -279 z "},"į":{"ha":351,"x_min":22,"x_max":321,"o":"m 221 -279 q 143 -253 172 -279 q 114 -181 114 -226 q 151 -79 114 -128 q 247 0 188 -31 l 33 0 l 38 43 l 139 51 q 144 60 144 51 l 144 540 q 142 553 144 549 q 138 558 140 558 l 129 561 l 22 571 l 26 606 l 210 635 l 210 60 q 215 51 210 51 l 317 43 l 321 0 q 169 -158 169 -53 q 235 -235 169 -235 q 303 -201 283 -235 l 321 -217 q 221 -279 288 -279 m 222 842 q 205 793 222 814 q 160 772 188 772 q 117 792 133 772 q 100 839 100 813 q 117 888 100 867 q 163 908 135 908 q 206 888 189 908 q 222 842 222 868 z "},"İ":{"ha":460,"x_min":61,"x_max":399,"o":"m 399 0 l 61 0 l 65 43 l 186 54 q 193 63 193 57 l 193 806 q 186 814 193 813 l 65 825 l 61 868 l 399 868 l 394 825 l 274 814 q 267 806 267 811 l 267 63 q 274 54 267 57 l 394 43 l 399 0 m 281 1129 q 290 1118 281 1129 q 300 1076 300 1107 q 281 1023 300 1046 q 229 1000 261 1000 q 178 1023 197 1000 q 160 1076 160 1046 q 178 1129 160 1107 q 229 1151 197 1151 q 281 1129 261 1151 z "},"ı":{"ha":351,"x_min":22,"x_max":321,"o":"m 321 0 l 33 0 l 38 43 l 139 51 q 144 60 144 51 l 144 540 q 142 553 144 549 q 138 558 140 558 l 129 561 l 22 571 l 26 606 l 210 635 l 210 60 q 215 51 210 51 l 317 43 l 321 0 z "},"Ĵ":{"ha":486,"x_min":-12,"x_max":489,"o":"m 449 868 l 444 825 l 338 814 q 331 806 331 811 l 331 292 q 271 65 331 150 q 101 -21 211 -21 q 18 1 49 -21 q -12 57 -12 22 q 1 97 -12 82 q 38 111 15 111 q 90 89 68 111 q 126 24 115 64 l 128 24 q 227 102 197 39 q 257 288 257 165 l 257 806 q 250 814 257 813 l 129 825 l 125 868 l 449 868 m 489 954 l 453 954 q 300 1171 301 1171 l 297 1171 l 144 954 l 108 954 l 276 1242 l 321 1242 l 489 954 z "},"ĵ":{"ha":336,"x_min":-79,"x_max":332,"o":"m 206 -74 q 158 -285 203 -207 q 17 -362 113 -362 q -51 -342 -22 -362 q -79 -283 -79 -322 q -64 -245 -79 -261 q -26 -229 -49 -229 q 35 -318 32 -229 q 116 -258 92 -310 q 140 -89 140 -207 l 140 540 q 138 553 140 549 q 133 558 136 558 l 125 561 l 18 571 l 22 606 l 206 635 l 206 -74 m 332 701 l 296 701 q 143 918 144 918 l 140 918 l -12 701 l -49 701 l 119 989 l 164 989 l 332 701 z "},"Ķ":{"ha":861,"x_min":61,"x_max":849,"o":"m 849 0 l 583 0 l 589 43 l 660 51 q 665 56 663 51 q 664 63 667 60 l 375 444 l 253 319 l 253 63 q 260 54 253 57 l 367 43 l 371 0 l 61 0 l 65 43 l 172 54 q 179 63 179 57 l 179 806 q 172 814 179 813 l 65 825 l 61 868 l 371 868 l 367 825 l 260 814 q 253 806 253 811 l 253 390 l 653 808 q 653 814 658 814 l 553 825 l 549 868 l 835 868 l 831 825 l 746 815 q 728 804 736 813 l 421 492 l 756 63 q 772 53 761 54 l 844 43 l 849 0 m 540 -169 q 396 -349 540 -279 l 381 -331 q 471 -203 471 -282 q 453 -158 471 -176 q 419 -133 436 -140 l 401 -126 q 417 -87 401 -103 q 458 -71 432 -71 q 517 -100 493 -71 q 540 -169 540 -129 z "},"ķ":{"ha":650,"x_min":3,"x_max":635,"o":"m 635 0 l 503 0 l 436 100 l 271 321 l 190 250 l 190 60 q 196 51 190 51 l 297 43 l 301 0 l 21 0 l 25 43 l 119 51 q 125 60 125 51 l 125 874 q 123 887 125 882 q 118 892 121 892 l 110 894 l 3 904 l 7 939 l 190 968 l 190 303 l 461 556 l 463 558 l 461 561 l 358 572 l 354 614 l 621 614 l 617 571 l 546 561 q 533 556 539 561 l 314 358 l 544 60 q 558 50 551 50 l 631 43 l 635 0 m 449 -169 q 304 -349 449 -279 l 289 -331 q 379 -203 379 -282 q 362 -158 379 -176 q 328 -133 344 -140 l 310 -126 q 325 -87 310 -103 q 367 -71 340 -71 q 425 -100 401 -71 q 449 -169 449 -129 z "},"Ĺ":{"ha":754,"x_min":61,"x_max":703,"o":"m 703 272 l 672 0 l 61 0 l 65 43 l 174 54 q 179 63 179 56 l 179 806 q 174 814 179 813 l 65 825 l 61 868 l 385 868 l 381 825 l 260 814 q 253 806 253 811 l 253 47 l 269 47 q 464 48 401 47 q 563 53 526 49 q 604 64 599 58 q 614 83 610 69 l 656 272 l 703 272 m 414 1200 l 194 954 l 165 954 l 306 1200 l 414 1200 z "},"ĺ":{"ha":357,"x_min":4,"x_max":343,"o":"m 317 0 l 29 0 l 33 43 l 135 51 q 140 60 140 51 l 140 874 q 138 887 140 882 q 133 892 136 892 l 125 894 l 4 904 l 8 939 l 206 968 l 206 60 q 211 51 206 51 l 313 43 l 317 0 m 343 1269 l 124 1024 l 94 1024 l 235 1269 l 343 1269 z "},"Ļ":{"ha":754,"x_min":61,"x_max":703,"o":"m 703 272 l 672 0 l 61 0 l 65 43 l 174 54 q 179 63 179 56 l 179 806 q 174 814 179 813 l 65 825 l 61 868 l 385 868 l 381 825 l 260 814 q 253 806 253 811 l 253 47 l 269 47 q 464 48 401 47 q 563 53 526 49 q 604 64 599 58 q 614 83 610 69 l 656 272 l 703 272 m 472 -169 q 328 -349 472 -279 l 313 -331 q 403 -203 403 -282 q 385 -158 403 -176 q 350 -133 368 -140 l 333 -126 q 349 -87 333 -103 q 390 -71 364 -71 q 449 -100 425 -71 q 472 -169 472 -129 z "},"ļ":{"ha":357,"x_min":4,"x_max":317,"o":"m 317 0 l 29 0 l 33 43 l 135 51 q 140 60 140 51 l 140 874 q 138 887 140 882 q 133 892 136 892 l 125 894 l 4 904 l 8 939 l 206 968 l 206 60 q 211 51 206 51 l 313 43 l 317 0 m 257 -169 q 113 -349 257 -279 l 97 -331 q 188 -203 188 -282 q 170 -158 188 -176 q 136 -133 153 -140 l 118 -126 q 133 -87 118 -103 q 175 -71 149 -71 q 233 -100 210 -71 q 257 -169 257 -129 z "},"Ľ":{"ha":901,"x_min":61,"x_max":965,"o":"m 703 272 l 672 0 l 61 0 l 65 43 l 174 54 q 179 63 179 56 l 179 806 q 174 814 179 813 l 65 825 l 61 868 l 385 868 l 381 825 l 260 814 q 253 806 253 811 l 253 47 l 269 47 q 464 48 401 47 q 563 53 526 49 q 604 64 599 58 q 614 83 610 69 l 656 272 l 703 272 m 965 757 q 786 500 965 621 l 768 522 q 881 710 881 610 q 872 748 881 731 q 849 776 863 765 q 824 794 836 786 q 802 805 811 801 q 793 810 793 808 q 808 855 793 836 q 857 874 824 874 q 935 840 904 874 q 965 757 965 807 z "},"ľ":{"ha":646,"x_min":4,"x_max":550,"o":"m 317 0 l 29 0 l 33 43 l 135 51 q 140 60 140 51 l 140 874 q 138 887 140 882 q 133 892 136 892 l 125 894 l 4 904 l 8 939 l 206 968 l 206 60 q 211 51 206 51 l 313 43 l 317 0 m 550 857 q 371 600 550 721 l 353 622 q 465 810 465 710 q 456 848 465 831 q 435 876 447 865 q 409 894 422 886 q 387 905 396 901 q 378 910 378 908 q 393 955 378 936 q 442 974 408 974 q 519 940 489 974 q 550 857 550 907 z "},"Ŀ":{"ha":972,"x_min":61,"x_max":996,"o":"m 703 272 l 672 0 l 61 0 l 65 43 l 174 54 q 179 63 179 56 l 179 806 q 174 814 179 813 l 65 825 l 61 868 l 385 868 l 381 825 l 260 814 q 253 806 253 811 l 253 47 l 269 47 q 464 48 401 47 q 563 53 526 49 q 604 64 599 58 q 614 83 610 69 l 656 272 l 703 272 m 996 393 q 976 344 996 365 q 926 324 957 324 q 876 344 896 324 q 857 393 857 365 q 876 440 857 421 q 926 460 896 460 q 976 440 957 460 q 996 393 996 419 z "},"ŀ":{"ha":518,"x_min":4,"x_max":526,"o":"m 317 0 l 29 0 l 33 43 l 135 51 q 140 60 140 51 l 140 874 q 138 887 140 882 q 133 892 136 892 l 125 894 l 4 904 l 8 939 l 206 968 l 206 60 q 211 51 206 51 l 313 43 l 317 0 m 526 432 q 507 383 526 404 q 457 363 488 363 q 407 383 426 363 q 388 432 388 404 q 407 479 388 460 q 457 499 426 499 q 507 478 488 499 q 526 432 526 458 z "},"Ł":{"ha":754,"x_min":61,"x_max":703,"o":"m 179 289 l 61 257 l 61 310 l 179 342 l 179 806 q 174 814 179 813 l 65 825 l 61 868 l 385 868 l 381 825 l 260 814 q 253 806 253 811 l 253 361 l 424 407 l 424 354 l 253 308 l 253 47 l 269 47 q 464 48 401 47 q 563 53 526 49 q 604 64 599 58 q 614 83 610 69 l 656 272 l 703 272 l 672 0 l 61 0 l 65 43 l 174 54 q 179 63 179 56 l 179 289 z "},"ł":{"ha":357,"x_min":4,"x_max":317,"o":"m 206 306 l 206 60 q 211 51 206 51 l 313 43 l 317 0 l 29 0 l 33 43 l 135 51 q 140 60 140 51 l 140 288 l 29 257 l 29 310 l 140 340 l 140 874 q 138 887 140 882 q 133 892 136 892 l 125 894 l 4 904 l 8 939 l 206 968 l 206 358 l 317 389 l 317 336 l 206 306 z "},"Ń":{"ha":972,"x_min":43,"x_max":972,"o":"m 972 868 l 968 825 l 843 814 q 836 806 836 814 l 836 -7 l 779 -7 l 240 792 l 235 792 l 235 63 q 242 54 235 57 l 363 43 l 367 0 l 43 0 l 47 43 l 172 54 q 179 63 179 57 l 179 796 q 172 804 179 803 l 63 825 l 58 868 l 271 868 l 779 121 l 781 121 l 781 806 q 774 814 781 814 l 653 825 l 649 868 l 972 868 m 714 1200 l 494 954 l 465 954 l 606 1200 l 714 1200 z "},"ń":{"ha":736,"x_min":19,"x_max":721,"o":"m 721 0 l 433 0 l 438 43 l 539 51 q 544 60 544 51 l 544 392 q 399 575 544 575 q 207 478 304 575 l 207 60 q 213 51 207 51 l 314 43 l 318 0 l 38 0 l 42 43 l 136 51 q 142 60 142 51 l 142 550 q 135 560 142 560 l 19 571 l 24 606 l 207 635 l 207 531 l 214 531 q 436 635 342 635 q 561 586 513 635 q 610 436 610 538 l 610 60 q 615 51 610 51 l 717 43 l 721 0 m 538 947 l 318 701 l 289 701 l 429 947 l 538 947 z "},"Ņ":{"ha":972,"x_min":43,"x_max":972,"o":"m 972 868 l 968 825 l 843 814 q 836 806 836 814 l 836 -7 l 779 -7 l 240 792 l 235 792 l 235 63 q 242 54 235 57 l 363 43 l 367 0 l 43 0 l 47 43 l 172 54 q 179 63 179 57 l 179 796 q 172 804 179 803 l 63 825 l 58 868 l 271 868 l 779 121 l 781 121 l 781 806 q 774 814 781 814 l 653 825 l 649 868 l 972 868 m 596 -169 q 451 -349 596 -279 l 436 -331 q 526 -203 526 -282 q 509 -158 526 -176 q 475 -133 492 -140 l 457 -126 q 472 -87 457 -103 q 514 -71 488 -71 q 572 -100 549 -71 q 596 -169 596 -129 z "},"ņ":{"ha":736,"x_min":19,"x_max":721,"o":"m 721 0 l 433 0 l 438 43 l 539 51 q 544 60 544 51 l 544 392 q 399 575 544 575 q 207 478 304 575 l 207 60 q 213 51 207 51 l 314 43 l 318 0 l 38 0 l 42 43 l 136 51 q 142 60 142 51 l 142 550 q 135 560 142 560 l 19 571 l 24 606 l 207 635 l 207 531 l 214 531 q 436 635 342 635 q 561 586 513 635 q 610 436 610 538 l 610 60 q 615 51 610 51 l 717 43 l 721 0 m 450 -169 q 306 -349 450 -279 l 290 -331 q 381 -203 381 -282 q 363 -158 381 -176 q 328 -133 346 -140 l 311 -126 q 326 -87 311 -103 q 368 -71 342 -71 q 426 -100 403 -71 q 450 -169 450 -129 z "},"Ň":{"ha":972,"x_min":43,"x_max":972,"o":"m 972 868 l 968 825 l 843 814 q 836 806 836 814 l 836 -7 l 779 -7 l 240 792 l 235 792 l 235 63 q 242 54 235 57 l 363 43 l 367 0 l 43 0 l 47 43 l 172 54 q 179 63 179 57 l 179 796 q 172 804 179 803 l 63 825 l 58 868 l 271 868 l 779 121 l 781 121 l 781 806 q 774 814 781 814 l 653 825 l 649 868 l 972 868 m 704 1242 l 536 954 l 492 954 l 324 1242 l 360 1242 l 513 1025 l 515 1025 l 668 1242 l 704 1242 z "},"ň":{"ha":736,"x_min":19,"x_max":721,"o":"m 721 0 l 433 0 l 438 43 l 539 51 q 544 60 544 51 l 544 392 q 399 575 544 575 q 207 478 304 575 l 207 60 q 213 51 207 51 l 314 43 l 318 0 l 38 0 l 42 43 l 136 51 q 142 60 142 51 l 142 550 q 135 560 142 560 l 19 571 l 24 606 l 207 635 l 207 531 l 214 531 q 436 635 342 635 q 561 586 513 635 q 610 436 610 538 l 610 60 q 615 51 610 51 l 717 43 l 721 0 m 544 989 l 376 701 l 332 701 l 164 989 l 200 989 l 353 772 l 356 772 l 508 989 l 544 989 z "},"Ō":{"ha":1006,"x_min":63,"x_max":943,"o":"m 943 439 q 820 115 943 250 q 500 -19 697 -19 q 186 103 310 -19 q 63 428 63 226 q 185 753 63 618 q 507 888 308 888 q 819 764 694 888 q 943 439 943 640 m 864 424 q 756 729 864 617 q 500 842 649 842 q 248 733 353 842 q 143 443 143 624 q 249 137 143 249 q 506 25 356 25 q 759 134 654 25 q 864 424 864 243 m 696 997 l 369 997 l 374 1050 l 692 1050 l 696 997 z "},"ō":{"ha":719,"x_min":58,"x_max":667,"o":"m 667 311 q 578 72 667 164 q 360 -21 490 -21 q 144 68 231 -21 q 58 303 58 157 q 147 542 58 450 q 365 635 235 635 q 581 546 494 635 q 667 311 667 457 m 597 308 q 522 522 597 447 q 363 589 456 589 q 194 507 260 589 q 128 306 128 425 q 207 88 128 167 q 363 25 269 25 q 531 107 465 25 q 597 308 597 189 m 539 744 l 213 744 l 217 797 l 535 797 l 539 744 z "},"Ŏ":{"ha":1006,"x_min":63,"x_max":943,"o":"m 943 439 q 820 115 943 250 q 500 -19 697 -19 q 186 103 310 -19 q 63 428 63 226 q 185 753 63 618 q 507 888 308 888 q 819 764 694 888 q 943 439 943 640 m 864 424 q 756 729 864 617 q 500 842 649 842 q 248 733 353 842 q 143 443 143 624 q 249 137 143 249 q 506 25 356 25 q 759 134 654 25 q 864 424 864 243 m 721 1200 q 703 1133 711 1161 q 679 1068 696 1104 q 644 1009 663 1032 q 596 970 625 986 q 531 954 567 954 q 465 970 494 954 q 417 1009 436 986 q 382 1068 399 1032 q 358 1133 365 1104 q 340 1200 350 1161 l 376 1200 q 442 1052 406 1096 q 531 1008 479 1008 q 619 1052 582 1008 q 685 1200 656 1096 l 721 1200 z "},"ŏ":{"ha":719,"x_min":58,"x_max":667,"o":"m 667 311 q 578 72 667 164 q 360 -21 490 -21 q 144 68 231 -21 q 58 303 58 157 q 147 542 58 450 q 365 635 235 635 q 581 546 494 635 q 667 311 667 457 m 597 308 q 522 522 597 447 q 363 589 456 589 q 194 507 260 589 q 128 306 128 425 q 207 88 128 167 q 363 25 269 25 q 531 107 465 25 q 597 308 597 189 m 564 947 q 547 880 554 908 q 522 815 539 851 q 487 756 506 779 q 439 717 468 733 q 374 701 410 701 q 308 717 338 701 q 260 756 279 733 q 225 815 242 779 q 201 880 208 851 q 183 947 193 908 l 219 947 q 285 799 249 843 q 374 756 322 756 q 462 799 425 756 q 528 947 499 843 l 564 947 z "},"Ő":{"ha":1006,"x_min":63,"x_max":943,"o":"m 943 439 q 820 115 943 250 q 500 -19 697 -19 q 186 103 310 -19 q 63 428 63 226 q 185 753 63 618 q 507 888 308 888 q 819 764 694 888 q 943 439 943 640 m 864 424 q 756 729 864 617 q 500 842 649 842 q 248 733 353 842 q 143 443 143 624 q 249 137 143 249 q 506 25 356 25 q 759 134 654 25 q 864 424 864 243 m 781 1200 l 593 954 l 563 954 l 685 1200 l 781 1200 m 575 1200 l 388 954 l 357 954 l 479 1200 l 575 1200 z "},"ő":{"ha":719,"x_min":58,"x_max":667,"o":"m 667 311 q 578 72 667 164 q 360 -21 490 -21 q 144 68 231 -21 q 58 303 58 157 q 147 542 58 450 q 365 635 235 635 q 581 546 494 635 q 667 311 667 457 m 597 308 q 522 522 597 447 q 363 589 456 589 q 194 507 260 589 q 128 306 128 425 q 207 88 128 167 q 363 25 269 25 q 531 107 465 25 q 597 308 597 189 m 640 947 l 453 701 l 422 701 l 544 947 l 640 947 m 435 947 l 247 701 l 217 701 l 339 947 l 435 947 z "},"Œ":{"ha":1260,"x_min":63,"x_max":1204,"o":"m 1204 232 l 1179 0 l 569 -1 q 201 110 339 -4 q 63 425 63 225 q 94 591 63 513 q 185 732 125 669 q 342 831 244 794 q 561 868 439 868 l 1178 868 l 1178 633 l 1136 633 l 1111 785 q 1089 811 1107 806 q 807 821 1053 821 l 736 821 l 736 467 l 825 467 q 948 469 928 467 q 972 486 968 472 l 1003 578 l 1036 578 l 1010 310 l 976 310 l 968 400 q 961 413 967 410 q 924 419 956 417 q 824 422 893 422 l 736 422 l 736 47 l 778 47 q 972 48 910 47 q 1071 53 1035 49 q 1113 64 1107 58 q 1122 83 1118 69 l 1158 232 l 1204 232 m 663 46 l 663 801 l 524 826 q 248 713 349 817 q 147 451 147 608 q 259 154 147 263 q 585 46 371 46 l 663 46 z "},"œ":{"ha":1165,"x_min":58,"x_max":1117,"o":"m 626 140 q 517 22 588 65 q 360 -21 446 -21 q 144 68 231 -21 q 58 303 58 157 q 147 542 58 450 q 365 635 235 635 q 528 589 456 635 q 636 463 600 543 q 749 588 678 542 q 903 635 821 635 q 1053 583 996 635 q 1110 449 1110 531 q 1104 379 1110 407 l 672 385 q 667 308 667 346 q 730 117 667 193 q 892 40 793 40 q 1089 154 1010 40 l 1117 135 q 1017 25 1082 65 q 875 -15 953 -15 q 728 26 794 -15 q 626 140 661 67 m 1036 425 q 1001 547 1040 500 q 888 593 963 593 q 766 544 825 593 q 682 417 707 494 l 1036 425 m 597 308 q 522 522 597 447 q 363 589 456 589 q 194 507 260 589 q 128 306 128 425 q 207 88 128 167 q 363 25 269 25 q 531 107 465 25 q 597 308 597 189 z "},"Ŕ":{"ha":776,"x_min":61,"x_max":781,"o":"m 463 392 l 676 63 q 689 54 681 56 l 776 43 l 781 0 l 622 0 l 567 96 l 392 379 q 253 382 253 379 l 253 63 q 260 54 253 57 l 367 43 l 371 0 l 61 0 l 65 43 l 172 54 q 179 63 179 57 l 179 806 q 172 814 179 813 l 65 825 l 61 868 l 408 868 q 615 810 544 868 q 686 657 686 751 q 463 392 686 461 m 607 635 q 354 822 607 831 l 253 819 l 253 435 l 417 421 q 555 491 503 436 q 607 635 607 546 m 539 1200 l 319 954 l 290 954 l 431 1200 l 539 1200 z "},"ŕ":{"ha":467,"x_min":26,"x_max":468,"o":"m 468 582 q 453 545 468 561 q 419 529 439 529 q 384 541 400 529 q 365 569 368 553 q 279 490 328 547 q 207 386 231 432 l 207 60 q 213 51 207 51 l 328 43 l 332 0 l 38 0 l 42 43 l 136 51 q 142 60 142 51 l 142 550 q 135 560 142 560 l 26 571 l 31 606 l 207 635 l 207 446 l 210 446 q 406 640 322 640 q 451 622 435 640 q 468 582 468 604 m 454 947 l 235 701 l 206 701 l 346 947 l 454 947 z "},"Ŗ":{"ha":776,"x_min":61,"x_max":781,"o":"m 463 392 l 676 63 q 689 54 681 56 l 776 43 l 781 0 l 622 0 l 567 96 l 392 379 q 253 382 253 379 l 253 63 q 260 54 253 57 l 367 43 l 371 0 l 61 0 l 65 43 l 172 54 q 179 63 179 57 l 179 806 q 172 814 179 813 l 65 825 l 61 868 l 408 868 q 615 810 544 868 q 686 657 686 751 q 463 392 686 461 m 607 635 q 354 822 607 831 l 253 819 l 253 435 l 417 421 q 555 491 503 436 q 607 635 607 546 m 531 -169 q 386 -349 531 -279 l 371 -331 q 461 -203 461 -282 q 444 -158 461 -176 q 408 -133 426 -140 l 392 -126 q 407 -87 392 -103 q 449 -71 422 -71 q 507 -100 483 -71 q 531 -169 531 -129 z "},"ŗ":{"ha":467,"x_min":26,"x_max":468,"o":"m 468 582 q 453 545 468 561 q 419 529 439 529 q 384 541 400 529 q 365 569 368 553 q 279 490 328 547 q 207 386 231 432 l 207 60 q 213 51 207 51 l 328 43 l 332 0 l 38 0 l 42 43 l 136 51 q 142 60 142 51 l 142 550 q 135 560 142 560 l 26 571 l 31 606 l 207 635 l 207 446 l 210 446 q 406 640 322 640 q 451 622 435 640 q 468 582 468 604 m 265 -169 q 121 -349 265 -279 l 106 -331 q 196 -203 196 -282 q 178 -158 196 -176 q 144 -133 161 -140 l 126 -126 q 142 -87 126 -103 q 183 -71 157 -71 q 242 -100 218 -71 q 265 -169 265 -129 z "},"Ř":{"ha":776,"x_min":61,"x_max":781,"o":"m 463 392 l 676 63 q 689 54 681 56 l 776 43 l 781 0 l 622 0 l 567 96 l 392 379 q 253 382 253 379 l 253 63 q 260 54 253 57 l 367 43 l 371 0 l 61 0 l 65 43 l 172 54 q 179 63 179 57 l 179 806 q 172 814 179 813 l 65 825 l 61 868 l 408 868 q 615 810 544 868 q 686 657 686 751 q 463 392 686 461 m 607 635 q 354 822 607 831 l 253 819 l 253 435 l 417 421 q 555 491 503 436 q 607 635 607 546 m 568 1242 l 400 954 l 356 954 l 188 1242 l 224 1242 l 376 1025 l 379 1025 l 532 1242 l 568 1242 z "},"ř":{"ha":467,"x_min":26,"x_max":468,"o":"m 468 582 q 453 545 468 561 q 419 529 439 529 q 384 541 400 529 q 365 569 368 553 q 279 490 328 547 q 207 386 231 432 l 207 60 q 213 51 207 51 l 328 43 l 332 0 l 38 0 l 42 43 l 136 51 q 142 60 142 51 l 142 550 q 135 560 142 560 l 26 571 l 31 606 l 207 635 l 207 446 l 210 446 q 406 640 322 640 q 451 622 435 640 q 468 582 468 604 m 451 989 l 283 701 l 239 701 l 71 989 l 107 989 l 260 772 l 263 772 l 415 989 l 451 989 z "},"Ś":{"ha":658,"x_min":53,"x_max":614,"o":"m 614 226 q 530 48 614 117 q 313 -21 446 -21 q 76 8 185 -21 l 53 249 l 100 249 l 151 54 q 322 25 224 25 q 488 76 426 25 q 550 206 550 128 q 503 322 550 278 q 322 414 456 365 q 133 514 193 461 q 72 656 72 567 q 149 824 72 761 q 351 888 225 888 q 504 874 439 888 l 578 894 l 578 629 l 531 629 l 501 806 q 338 843 438 843 q 189 794 242 843 q 136 676 136 746 q 188 558 136 601 q 365 471 240 515 q 556 372 499 424 q 614 226 614 321 m 515 1200 l 296 954 l 267 954 l 407 1200 l 515 1200 z "},"ś":{"ha":544,"x_min":67,"x_max":479,"o":"m 479 168 q 419 35 479 90 q 242 -21 358 -21 q 75 7 156 -21 l 67 179 l 114 179 l 138 50 q 256 19 189 19 q 376 57 329 19 q 422 151 422 94 q 410 203 422 182 q 372 241 399 225 q 322 266 344 257 q 260 288 300 275 q 190 313 217 301 q 133 344 164 324 q 88 394 103 364 q 74 467 74 425 q 129 588 74 540 q 281 636 185 636 q 403 618 336 636 l 444 624 l 461 436 l 414 436 l 390 565 q 267 596 339 596 q 167 564 204 596 q 131 485 131 532 q 141 442 131 461 q 163 410 151 422 q 201 386 175 399 q 244 367 228 374 q 294 350 261 361 q 363 324 338 336 q 419 292 389 313 q 465 240 450 271 q 479 168 479 210 m 458 947 l 239 701 l 210 701 l 350 947 l 458 947 z "},"Ŝ":{"ha":658,"x_min":53,"x_max":614,"o":"m 614 226 q 530 48 614 117 q 313 -21 446 -21 q 76 8 185 -21 l 53 249 l 100 249 l 151 54 q 322 25 224 25 q 488 76 426 25 q 550 206 550 128 q 503 322 550 278 q 322 414 456 365 q 133 514 193 461 q 72 656 72 567 q 149 824 72 761 q 351 888 225 888 q 504 874 439 888 l 578 894 l 578 629 l 531 629 l 501 806 q 338 843 438 843 q 189 794 242 843 q 136 676 136 746 q 188 558 136 601 q 365 471 240 515 q 556 372 499 424 q 614 226 614 321 m 519 954 l 483 954 q 331 1171 332 1171 l 328 1171 l 175 954 l 139 954 l 307 1242 l 351 1242 l 519 954 z "},"ŝ":{"ha":544,"x_min":67,"x_max":479,"o":"m 479 168 q 419 35 479 90 q 242 -21 358 -21 q 75 7 156 -21 l 67 179 l 114 179 l 138 50 q 256 19 189 19 q 376 57 329 19 q 422 151 422 94 q 410 203 422 182 q 372 241 399 225 q 322 266 344 257 q 260 288 300 275 q 190 313 217 301 q 133 344 164 324 q 88 394 103 364 q 74 467 74 425 q 129 588 74 540 q 281 636 185 636 q 403 618 336 636 l 444 624 l 461 436 l 414 436 l 390 565 q 267 596 339 596 q 167 564 204 596 q 131 485 131 532 q 141 442 131 461 q 163 410 151 422 q 201 386 175 399 q 244 367 228 374 q 294 350 261 361 q 363 324 338 336 q 419 292 389 313 q 465 240 450 271 q 479 168 479 210 m 469 701 l 433 701 q 281 918 282 918 l 278 918 l 125 701 l 89 701 l 257 989 l 301 989 l 469 701 z "},"Ş":{"ha":658,"x_min":53,"x_max":614,"o":"m 478 -203 q 410 -306 478 -262 q 213 -362 343 -350 l 204 -337 q 369 -290 317 -321 q 421 -207 421 -258 q 390 -151 421 -172 q 301 -129 358 -129 q 233 -135 281 -129 l 233 -118 l 322 -21 l 313 -21 q 76 8 185 -21 l 53 249 l 100 249 l 151 54 q 322 25 224 25 q 488 76 426 25 q 550 206 550 128 q 503 322 550 278 q 322 414 456 365 q 133 514 193 461 q 72 656 72 567 q 149 824 72 761 q 351 888 225 888 q 504 874 439 888 l 578 894 l 578 629 l 531 629 l 501 806 q 338 843 438 843 q 189 794 242 843 q 136 676 136 746 q 188 558 136 601 q 365 471 240 515 q 556 372 499 424 q 614 226 614 321 q 547 63 614 129 q 369 -17 479 -3 l 304 -86 q 428 -112 378 -81 q 478 -203 478 -144 z "},"ş":{"ha":544,"x_min":67,"x_max":479,"o":"m 404 -203 q 337 -306 404 -262 q 139 -362 269 -350 l 131 -337 q 295 -290 243 -321 q 347 -207 347 -258 q 316 -151 347 -172 q 228 -129 285 -129 q 160 -135 207 -129 l 160 -118 l 249 -21 l 242 -21 q 75 7 156 -21 l 67 179 l 114 179 l 138 50 q 256 19 189 19 q 376 57 329 19 q 422 151 422 94 q 410 203 422 182 q 372 241 399 225 q 322 266 344 257 q 260 288 300 275 q 190 313 217 301 q 133 344 164 324 q 88 394 103 364 q 74 467 74 425 q 129 588 74 540 q 281 636 185 636 q 403 618 336 636 l 444 624 l 461 436 l 414 436 l 390 565 q 267 596 339 596 q 167 564 204 596 q 131 485 131 532 q 141 442 131 461 q 163 410 151 422 q 201 386 175 399 q 244 367 228 374 q 294 350 261 361 q 363 324 338 336 q 419 292 389 313 q 465 240 450 271 q 479 168 479 210 q 433 47 479 100 q 296 -17 386 -6 l 231 -86 q 354 -112 304 -81 q 404 -203 404 -144 z "},"Š":{"ha":658,"x_min":53,"x_max":614,"o":"m 614 226 q 530 48 614 117 q 313 -21 446 -21 q 76 8 185 -21 l 53 249 l 100 249 l 151 54 q 322 25 224 25 q 488 76 426 25 q 550 206 550 128 q 503 322 550 278 q 322 414 456 365 q 133 514 193 461 q 72 656 72 567 q 149 824 72 761 q 351 888 225 888 q 504 874 439 888 l 578 894 l 578 629 l 531 629 l 501 806 q 338 843 438 843 q 189 794 242 843 q 136 676 136 746 q 188 558 136 601 q 365 471 240 515 q 556 372 499 424 q 614 226 614 321 m 521 1242 l 353 954 l 308 954 l 140 1242 l 176 1242 l 329 1025 l 332 1025 l 485 1242 l 521 1242 z "},"š":{"ha":544,"x_min":67,"x_max":479,"o":"m 479 168 q 419 35 479 90 q 242 -21 358 -21 q 75 7 156 -21 l 67 179 l 114 179 l 138 50 q 256 19 189 19 q 376 57 329 19 q 422 151 422 94 q 410 203 422 182 q 372 241 399 225 q 322 266 344 257 q 260 288 300 275 q 190 313 217 301 q 133 344 164 324 q 88 394 103 364 q 74 467 74 425 q 129 588 74 540 q 281 636 185 636 q 403 618 336 636 l 444 624 l 461 436 l 414 436 l 390 565 q 267 596 339 596 q 167 564 204 596 q 131 485 131 532 q 141 442 131 461 q 163 410 151 422 q 201 386 175 399 q 244 367 228 374 q 294 350 261 361 q 363 324 338 336 q 419 292 389 313 q 465 240 450 271 q 479 168 479 210 m 454 989 l 286 701 l 242 701 l 74 989 l 110 989 l 263 772 l 265 772 l 418 989 l 454 989 z "},"Ţ":{"ha":829,"x_min":38,"x_max":779,"o":"m 779 613 l 735 613 l 710 785 q 703 806 707 800 q 675 817 700 811 q 608 823 650 822 q 476 824 567 824 l 451 824 l 451 63 q 458 54 451 57 l 579 43 l 583 0 l 246 0 l 250 43 l 371 54 q 378 63 378 57 l 378 824 l 350 824 q 191 820 238 824 q 135 810 144 817 q 121 785 125 804 l 85 615 l 38 615 l 63 868 l 779 868 l 779 613 m 492 -169 q 347 -349 492 -279 l 332 -331 q 422 -203 422 -282 q 405 -158 422 -176 q 369 -133 388 -140 l 353 -126 q 368 -87 353 -103 q 410 -71 383 -71 q 468 -100 444 -71 q 492 -169 492 -129 z "},"ţ":{"ha":433,"x_min":11,"x_max":401,"o":"m 401 32 q 257 -21 331 -21 q 113 124 110 -21 l 117 556 l 11 560 l 15 596 l 117 613 l 126 728 l 182 725 l 181 607 l 400 607 l 390 556 l 181 556 q 175 136 175 138 q 195 58 174 82 q 268 33 217 33 q 390 71 321 33 l 401 32 m 331 -175 q 186 -354 331 -285 l 171 -336 q 261 -208 261 -287 q 244 -164 261 -182 q 208 -139 226 -146 l 192 -132 q 207 -92 192 -108 q 249 -76 222 -76 q 307 -106 283 -76 q 331 -175 331 -135 z "},"Ť":{"ha":829,"x_min":38,"x_max":779,"o":"m 779 613 l 735 613 l 710 785 q 703 806 707 800 q 675 817 700 811 q 608 823 650 822 q 476 824 567 824 l 451 824 l 451 63 q 458 54 451 57 l 579 43 l 583 0 l 246 0 l 250 43 l 371 54 q 378 63 378 57 l 378 824 l 350 824 q 191 820 238 824 q 135 810 144 817 q 121 785 125 804 l 85 615 l 38 615 l 63 868 l 779 868 l 779 613 m 604 1242 l 436 954 l 392 954 l 224 1242 l 260 1242 l 413 1025 l 415 1025 l 568 1242 l 604 1242 z "},"ť":{"ha":454,"x_min":11,"x_max":422,"o":"m 401 32 q 257 -21 331 -21 q 113 124 110 -21 l 117 556 l 11 560 l 15 596 l 117 613 l 126 728 l 182 725 l 181 607 l 400 607 l 390 556 l 181 556 q 175 136 175 138 q 195 58 174 82 q 268 33 217 33 q 390 71 321 33 l 401 32 m 422 865 q 271 646 422 750 l 254 665 q 350 825 350 739 q 332 873 350 853 q 294 901 314 893 l 276 910 q 331 964 276 964 q 397 936 371 964 q 422 865 422 908 z "},"Ū":{"ha":979,"x_min":40,"x_max":942,"o":"m 942 868 l 938 825 l 814 814 q 807 806 807 814 l 807 297 q 719 63 807 147 q 482 -21 632 -21 q 243 58 328 -21 q 158 318 158 138 l 158 806 q 151 814 158 814 l 44 825 l 40 868 l 350 868 l 346 825 l 239 814 q 232 806 232 814 l 232 293 q 499 32 232 32 q 689 104 626 32 q 751 288 751 176 l 751 806 q 744 814 751 814 l 624 825 l 619 868 l 942 868 m 656 997 l 329 997 l 333 1050 l 651 1050 l 656 997 z "},"ū":{"ha":722,"x_min":15,"x_max":715,"o":"m 715 33 l 711 4 l 528 -21 l 528 85 l 521 85 q 299 -19 393 -19 q 174 29 222 -19 q 125 179 125 78 l 126 556 q 121 564 126 564 l 19 572 l 15 615 l 193 615 l 190 224 q 336 40 190 40 q 528 138 431 40 l 528 556 q 522 564 528 564 l 421 572 l 417 615 l 593 615 l 593 58 q 600 42 593 42 l 715 33 m 499 744 l 172 744 l 176 797 l 494 797 l 499 744 z "},"Ŭ":{"ha":979,"x_min":40,"x_max":942,"o":"m 942 868 l 938 825 l 814 814 q 807 806 807 814 l 807 297 q 719 63 807 147 q 482 -21 632 -21 q 243 58 328 -21 q 158 318 158 138 l 158 806 q 151 814 158 814 l 44 825 l 40 868 l 350 868 l 346 825 l 239 814 q 232 806 232 814 l 232 293 q 499 32 232 32 q 689 104 626 32 q 751 288 751 176 l 751 806 q 744 814 751 814 l 624 825 l 619 868 l 942 868 m 679 1200 q 662 1133 669 1161 q 638 1068 654 1104 q 602 1009 621 1032 q 554 970 583 986 q 489 954 525 954 q 424 970 453 954 q 376 1009 394 986 q 340 1068 357 1032 q 316 1133 324 1104 q 299 1200 308 1161 l 335 1200 q 401 1052 364 1096 q 489 1008 438 1008 q 577 1052 540 1008 q 643 1200 614 1096 l 679 1200 z "},"ŭ":{"ha":722,"x_min":15,"x_max":715,"o":"m 715 33 l 711 4 l 528 -21 l 528 85 l 521 85 q 299 -19 393 -19 q 174 29 222 -19 q 125 179 125 78 l 126 556 q 121 564 126 564 l 19 572 l 15 615 l 193 615 l 190 224 q 336 40 190 40 q 528 138 431 40 l 528 556 q 522 564 528 564 l 421 572 l 417 615 l 593 615 l 593 58 q 600 42 593 42 l 715 33 m 524 947 q 506 880 514 908 q 482 815 499 851 q 447 756 465 779 q 399 717 428 733 q 333 701 369 701 q 268 717 297 701 q 220 756 239 733 q 185 815 201 779 q 160 880 168 851 q 143 947 153 908 l 179 947 q 245 799 208 843 q 333 756 282 756 q 422 799 385 756 q 488 947 458 843 l 524 947 z "},"Ů":{"ha":979,"x_min":40,"x_max":942,"o":"m 942 868 l 938 825 l 814 814 q 807 806 807 814 l 807 297 q 719 63 807 147 q 482 -21 632 -21 q 243 58 328 -21 q 158 318 158 138 l 158 806 q 151 814 158 814 l 44 825 l 40 868 l 350 868 l 346 825 l 239 814 q 232 806 232 814 l 232 293 q 499 32 232 32 q 689 104 626 32 q 751 288 751 176 l 751 806 q 744 814 751 814 l 624 825 l 619 868 l 942 868 m 595 1178 q 612 1160 595 1178 q 629 1089 629 1142 q 595 1000 629 1036 q 506 964 561 964 q 416 1000 450 964 q 382 1089 382 1036 q 416 1178 382 1142 q 506 1214 450 1214 q 595 1178 561 1214 m 566 1025 q 577 1038 566 1025 q 589 1089 589 1051 q 566 1153 589 1126 q 506 1179 543 1179 q 445 1153 468 1179 q 422 1089 422 1126 q 445 1025 422 1051 q 506 999 468 999 q 566 1025 543 999 z "},"ů":{"ha":722,"x_min":15,"x_max":715,"o":"m 715 33 l 711 4 l 528 -21 l 528 85 l 521 85 q 299 -19 393 -19 q 174 29 222 -19 q 125 179 125 78 l 126 556 q 121 564 126 564 l 19 572 l 15 615 l 193 615 l 190 224 q 336 40 190 40 q 528 138 431 40 l 528 556 q 522 564 528 564 l 421 572 l 417 615 l 593 615 l 593 58 q 600 42 593 42 l 715 33 m 458 925 q 475 907 458 925 q 492 836 492 889 q 458 747 492 783 q 368 711 424 711 q 278 747 313 711 q 244 836 244 783 q 278 925 244 889 q 368 961 313 961 q 458 925 424 961 m 428 772 q 440 785 428 772 q 451 836 451 799 q 428 900 451 874 q 368 926 406 926 q 308 900 331 926 q 285 836 285 874 q 308 772 285 799 q 368 746 331 746 q 428 772 406 746 z "},"Ű":{"ha":979,"x_min":40,"x_max":942,"o":"m 942 868 l 938 825 l 814 814 q 807 806 807 814 l 807 297 q 719 63 807 147 q 482 -21 632 -21 q 243 58 328 -21 q 158 318 158 138 l 158 806 q 151 814 158 814 l 44 825 l 40 868 l 350 868 l 346 825 l 239 814 q 232 806 232 814 l 232 293 q 499 32 232 32 q 689 104 626 32 q 751 288 751 176 l 751 806 q 744 814 751 814 l 624 825 l 619 868 l 942 868 m 557 1200 l 369 954 l 339 954 l 461 1200 l 557 1200 m 763 1200 l 575 954 l 544 954 l 667 1200 l 763 1200 z "},"ű":{"ha":722,"x_min":15,"x_max":715,"o":"m 715 33 l 711 4 l 528 -21 l 528 85 l 521 85 q 299 -19 393 -19 q 174 29 222 -19 q 125 179 125 78 l 126 556 q 121 564 126 564 l 19 572 l 15 615 l 193 615 l 190 224 q 336 40 190 40 q 528 138 431 40 l 528 556 q 522 564 528 564 l 421 572 l 417 615 l 593 615 l 593 58 q 600 42 593 42 l 715 33 m 401 947 l 214 701 l 183 701 l 306 947 l 401 947 m 607 947 l 419 701 l 389 701 l 511 947 l 607 947 z "},"Ų":{"ha":979,"x_min":40,"x_max":942,"o":"m 589 -279 q 515 -252 543 -279 q 486 -175 486 -225 q 575 -11 486 -93 q 482 -21 524 -21 q 243 58 328 -21 q 158 318 158 138 l 158 806 q 151 814 158 814 l 44 825 l 40 868 l 350 868 l 346 825 l 239 814 q 232 806 232 814 l 232 293 q 499 32 232 32 q 689 104 626 32 q 751 288 751 176 l 751 806 q 744 814 751 814 l 624 825 l 619 868 l 942 868 l 938 825 l 814 814 q 807 806 807 814 l 807 297 q 660 14 807 106 q 574 -67 606 -21 q 542 -156 542 -114 q 558 -212 542 -190 q 603 -235 575 -235 q 671 -201 651 -235 l 689 -217 q 589 -279 656 -279 z "},"ų":{"ha":722,"x_min":15,"x_max":715,"o":"m 611 -279 q 535 -251 567 -279 q 504 -179 504 -224 q 615 -8 504 -90 l 528 -21 l 528 85 l 521 85 q 299 -19 393 -19 q 174 29 222 -19 q 125 179 125 78 l 126 556 q 121 564 126 564 l 19 572 l 15 615 l 193 615 l 190 224 q 336 40 190 40 q 528 138 431 40 l 528 556 q 522 564 528 564 l 421 572 l 417 615 l 593 615 l 593 58 q 600 42 593 42 l 715 33 l 711 4 q 603 -59 646 -11 q 561 -167 561 -107 q 578 -217 561 -199 q 625 -235 596 -235 q 693 -201 674 -235 l 711 -217 q 611 -279 678 -279 z "},"Ŵ":{"ha":1251,"x_min":-17,"x_max":1265,"o":"m 1265 868 l 1261 825 l 1168 815 q 1158 806 1163 815 l 917 -6 l 844 -6 l 629 628 l 628 628 l 419 -6 l 343 -6 l 93 804 q 82 815 90 814 l -12 825 l -17 868 l 289 868 l 285 825 l 181 817 q 171 807 168 817 l 390 69 l 392 69 l 600 707 l 571 804 q 558 815 568 814 l 461 825 l 457 868 l 763 868 l 758 825 l 651 817 q 643 807 640 817 l 886 69 l 888 69 l 1096 803 q 1092 813 1099 813 l 985 825 l 981 868 l 1265 868 m 815 954 l 779 954 q 626 1171 628 1171 l 624 1171 l 471 954 l 435 954 l 603 1242 l 647 1242 l 815 954 z "},"ŵ":{"ha":938,"x_min":-18,"x_max":956,"o":"m 956 615 l 951 572 l 878 563 q 868 553 872 563 l 689 -6 l 618 -6 l 474 403 l 318 -6 l 247 -6 l 68 551 q 56 563 65 561 l -14 572 l -18 615 l 222 615 l 218 572 l 142 564 q 133 554 132 561 l 292 54 l 447 469 l 418 551 q 406 563 415 561 l 336 572 l 332 615 l 575 615 l 571 572 l 493 564 q 485 554 483 561 l 661 54 l 813 550 q 808 560 815 560 l 732 572 l 728 615 l 956 615 m 644 701 l 608 701 q 456 918 457 918 l 453 918 l 300 701 l 264 701 l 432 989 l 476 989 l 644 701 z "},"Ŷ":{"ha":829,"x_min":-6,"x_max":831,"o":"m 831 868 l 826 825 l 735 815 q 719 806 725 814 l 451 371 l 451 63 q 458 54 451 57 l 579 43 l 583 0 l 246 0 l 250 43 l 371 54 q 378 63 378 57 l 378 368 l 101 804 q 85 815 96 813 l -1 825 l -6 868 l 292 868 l 288 825 l 189 817 q 183 804 176 817 l 417 415 l 424 415 l 660 806 q 656 815 663 813 l 556 825 l 551 868 l 831 868 m 618 954 l 582 954 q 429 1171 431 1171 l 426 1171 l 274 954 l 238 954 l 406 1242 l 450 1242 l 618 954 z "},"ŷ":{"ha":606,"x_min":-15,"x_max":631,"o":"m 294 -42 l 69 551 q 57 563 67 561 l -11 572 l -15 615 l 224 615 l 219 572 l 146 564 q 138 554 135 564 l 325 47 l 494 550 q 490 560 497 560 l 407 572 l 403 615 l 631 615 l 626 572 l 557 563 q 547 553 551 563 l 358 15 l 299 -193 q 234 -326 274 -283 q 133 -368 194 -368 q 74 -349 99 -368 q 49 -303 49 -331 q 64 -260 49 -276 q 107 -243 79 -243 q 178 -310 158 -243 q 258 -165 222 -290 l 294 -42 m 515 701 l 479 701 q 326 918 328 918 l 324 918 l 171 701 l 135 701 l 303 989 l 347 989 l 515 701 z "},"Ÿ":{"ha":829,"x_min":-6,"x_max":831,"o":"m 831 868 l 826 825 l 735 815 q 719 806 725 814 l 451 371 l 451 63 q 458 54 451 57 l 579 43 l 583 0 l 246 0 l 250 43 l 371 54 q 378 63 378 57 l 378 368 l 101 804 q 85 815 96 813 l -1 825 l -6 868 l 292 868 l 288 825 l 189 817 q 183 804 176 817 l 417 415 l 424 415 l 660 806 q 656 815 663 813 l 556 825 l 551 868 l 831 868 m 609 1076 q 618 1066 609 1076 q 626 1028 626 1056 q 609 979 626 1000 q 564 958 592 958 q 517 979 535 958 q 499 1028 499 1000 q 517 1076 499 1056 q 564 1096 535 1096 q 609 1076 592 1096 m 333 1076 q 341 1066 333 1076 q 350 1028 350 1056 q 333 979 350 1000 q 286 958 315 958 q 240 979 257 958 q 224 1028 224 1000 q 240 1076 224 1056 q 286 1096 257 1096 q 333 1076 315 1096 z "},"Ź":{"ha":718,"x_min":26,"x_max":696,"o":"m 696 256 l 667 0 l 26 0 l 26 39 l 589 822 l 589 824 l 438 824 q 265 823 321 824 q 176 817 210 822 q 136 806 142 813 q 128 785 131 800 l 103 633 l 57 633 l 57 868 l 679 868 l 679 826 l 119 46 l 119 44 l 256 44 q 450 46 383 44 q 553 52 517 47 q 597 63 589 57 q 608 83 604 69 l 647 256 l 696 256 m 581 1200 l 361 954 l 332 954 l 472 1200 l 581 1200 z "},"ź":{"ha":571,"x_min":31,"x_max":557,"o":"m 531 582 l 113 42 l 179 42 q 326 42 279 42 q 404 47 372 43 q 444 58 436 51 q 457 76 451 64 l 515 226 l 557 226 l 501 0 l 31 0 l 31 33 l 449 574 l 385 574 q 238 572 289 574 q 158 567 188 571 q 121 557 128 563 q 113 539 114 551 l 97 385 l 56 385 l 56 615 l 531 615 l 531 582 m 500 947 l 281 701 l 251 701 l 392 947 l 500 947 z "},"Ż":{"ha":718,"x_min":26,"x_max":696,"o":"m 696 256 l 667 0 l 26 0 l 26 39 l 589 822 l 589 824 l 438 824 q 265 823 321 824 q 176 817 210 822 q 136 806 142 813 q 128 785 131 800 l 103 633 l 57 633 l 57 868 l 679 868 l 679 826 l 119 46 l 119 44 l 256 44 q 450 46 383 44 q 553 52 517 47 q 597 63 589 57 q 608 83 604 69 l 647 256 l 696 256 m 404 1129 q 414 1118 404 1129 q 424 1076 424 1107 q 404 1023 424 1046 q 353 1000 385 1000 q 302 1023 321 1000 q 283 1076 283 1046 q 302 1129 283 1107 q 353 1151 321 1151 q 404 1129 385 1151 z "},"ż":{"ha":571,"x_min":31,"x_max":557,"o":"m 531 582 l 113 42 l 179 42 q 326 42 279 42 q 404 47 372 43 q 444 58 436 51 q 457 76 451 64 l 515 226 l 557 226 l 501 0 l 31 0 l 31 33 l 449 574 l 385 574 q 238 572 289 574 q 158 567 188 571 q 121 557 128 563 q 113 539 114 551 l 97 385 l 56 385 l 56 615 l 531 615 l 531 582 m 342 876 q 351 865 342 876 q 361 824 361 854 q 342 770 361 793 q 290 747 322 747 q 240 770 258 747 q 221 824 221 793 q 240 876 221 854 q 290 899 258 899 q 342 876 322 899 z "},"Ž":{"ha":718,"x_min":26,"x_max":696,"o":"m 696 256 l 667 0 l 26 0 l 26 39 l 589 822 l 589 824 l 438 824 q 265 823 321 824 q 176 817 210 822 q 136 806 142 813 q 128 785 131 800 l 103 633 l 57 633 l 57 868 l 679 868 l 679 826 l 119 46 l 119 44 l 256 44 q 450 46 383 44 q 553 52 517 47 q 597 63 589 57 q 608 83 604 69 l 647 256 l 696 256 m 554 1242 l 386 954 l 342 954 l 174 1242 l 210 1242 l 363 1025 l 365 1025 l 518 1242 l 554 1242 z "},"ž":{"ha":571,"x_min":31,"x_max":557,"o":"m 531 582 l 113 42 l 179 42 q 326 42 279 42 q 404 47 372 43 q 444 58 436 51 q 457 76 451 64 l 515 226 l 557 226 l 501 0 l 31 0 l 31 33 l 449 574 l 385 574 q 238 572 289 574 q 158 567 188 571 q 121 557 128 563 q 113 539 114 551 l 97 385 l 56 385 l 56 615 l 531 615 l 531 582 m 458 989 l 290 701 l 246 701 l 78 989 l 114 989 l 267 772 l 269 772 l 422 989 l 458 989 z "},"ƒ":{"ha":638,"x_min":13,"x_max":619,"o":"m 619 815 q 606 773 619 790 q 574 756 593 756 q 530 775 546 756 q 515 826 514 794 l 433 790 q 357 539 403 751 l 546 539 l 549 486 l 356 486 q 347 442 356 485 q 334 374 339 399 q 319 301 329 350 q 298 218 308 251 q 275 146 288 185 q 248 80 263 107 q 218 39 233 53 q 90 -22 154 -22 q 35 -1 58 -22 q 13 46 13 19 q 26 82 13 67 q 60 97 40 97 q 101 77 85 97 q 121 28 118 57 l 211 82 q 272 342 238 142 l 294 486 l 174 489 l 178 526 l 304 547 q 419 819 347 747 q 478 859 442 842 q 544 876 514 876 q 597 860 575 876 q 619 815 619 843 z "},"Ǻ":{"ha":772,"x_min":-22,"x_max":840,"o":"m 360 840 q 281 958 281 869 q 315 1047 281 1011 q 404 1083 349 1083 q 494 1047 460 1083 q 528 958 528 1011 q 461 846 528 879 l 728 64 q 740 53 731 54 l 836 43 l 840 0 l 532 0 l 536 43 l 642 51 q 650 61 653 51 l 563 318 l 231 318 l 143 63 q 147 53 140 53 l 249 43 l 253 0 l -22 0 l -18 43 l 75 53 q 85 63 81 53 l 360 840 m 465 894 q 476 908 465 894 q 488 958 488 921 q 465 1022 488 996 q 404 1049 442 1049 q 344 1022 367 1049 q 321 958 321 996 q 344 894 321 921 q 404 868 367 868 q 465 894 442 868 m 544 371 l 403 800 l 396 800 l 249 371 l 544 371 m 547 1351 l 328 1106 l 299 1106 l 439 1351 l 547 1351 z "},"ǻ":{"ha":593,"x_min":57,"x_max":607,"o":"m 385 925 q 402 907 385 925 q 419 836 419 889 q 385 747 419 783 q 296 711 351 711 q 206 747 240 711 q 172 836 172 783 q 206 925 172 889 q 296 961 240 961 q 385 925 351 961 m 607 54 q 493 -19 546 -19 q 435 7 458 -19 q 418 86 411 33 l 413 86 q 235 -21 306 -21 q 110 23 161 -21 q 60 136 60 67 q 141 281 60 225 q 429 393 222 336 l 429 406 q 396 546 433 504 q 272 588 358 588 q 186 572 225 588 q 147 542 147 556 l 156 525 q 165 490 165 508 q 149 456 165 471 q 111 440 133 440 q 73 453 89 440 q 57 492 57 467 q 133 588 57 540 q 296 635 210 635 q 451 583 401 635 q 494 399 500 531 l 482 68 q 510 32 481 32 q 583 82 536 32 l 607 54 m 356 772 q 368 785 356 772 q 379 836 379 799 q 356 900 379 874 q 296 926 333 926 q 235 900 258 926 q 213 836 213 874 q 235 772 213 799 q 296 746 258 746 q 356 772 333 746 m 418 138 l 426 351 q 198 263 267 306 q 129 146 129 219 q 161 65 129 94 q 246 36 193 36 q 279 41 263 36 q 308 51 296 46 q 338 69 319 56 q 363 89 356 83 q 392 114 371 94 q 418 138 413 133 m 438 1247 l 218 1001 l 189 1001 l 329 1247 l 438 1247 z "},"Ǽ":{"ha":1121,"x_min":-76,"x_max":1065,"o":"m 1065 232 l 1040 0 l 406 0 l 410 43 l 518 54 q 524 63 524 56 l 524 318 l 243 318 l 108 65 q 113 56 103 56 l 219 43 l 224 0 l -76 0 l -72 43 l 24 53 q 39 68 29 53 l 449 806 q 443 814 454 814 l 332 825 l 328 868 l 1039 868 l 1039 633 l 997 633 l 972 785 q 950 811 968 806 q 668 821 914 821 l 597 821 l 597 467 l 686 467 q 809 469 789 467 q 833 486 829 472 l 864 578 l 897 578 l 871 310 l 838 310 l 829 400 q 822 413 828 410 q 785 419 817 417 q 685 422 754 422 l 597 422 l 597 47 l 639 47 q 833 48 771 47 q 932 53 896 49 q 974 64 968 58 q 983 83 979 69 l 1019 232 l 1065 232 m 524 371 l 524 815 l 514 815 l 272 371 l 524 371 m 869 1200 l 650 954 l 621 954 l 761 1200 l 869 1200 z "},"ǽ":{"ha":993,"x_min":57,"x_max":944,"o":"m 458 132 q 351 22 417 64 q 232 -21 285 -21 q 108 23 157 -21 q 60 136 60 67 q 142 280 60 224 q 429 393 224 336 l 429 406 q 396 546 433 504 q 272 588 358 588 q 186 572 225 588 q 147 542 147 556 l 156 525 q 165 490 165 508 q 149 456 165 471 q 111 440 133 440 q 73 453 89 440 q 57 492 57 467 q 133 588 57 540 q 296 635 210 635 q 489 504 463 635 q 597 600 533 565 q 731 635 660 635 q 881 583 824 635 q 938 449 938 531 q 932 379 938 407 l 500 385 q 494 308 494 346 q 558 117 494 193 q 719 40 621 40 q 917 154 838 40 l 944 135 q 845 25 910 65 q 703 -15 781 -15 q 560 24 625 -15 q 458 132 494 63 m 864 425 q 829 547 868 500 q 715 593 790 593 q 594 544 653 593 q 510 417 535 494 l 864 425 m 426 351 q 199 263 268 307 q 129 146 129 219 q 161 65 129 94 q 246 36 193 36 q 443 165 351 36 q 422 293 422 224 q 426 351 422 310 m 703 947 l 483 701 l 454 701 l 594 947 l 703 947 z "},"Ǿ":{"ha":1006,"x_min":63,"x_max":943,"o":"m 943 439 q 819 116 943 251 q 500 -19 694 -19 q 294 28 389 -19 l 218 -103 l 167 -103 q 181 -77 172 -93 q 210 -28 190 -61 q 242 28 229 6 l 254 50 q 113 206 164 108 q 63 428 63 303 q 187 752 63 617 q 507 888 311 888 q 715 838 624 888 l 783 956 l 835 956 l 754 817 q 892 660 842 758 q 943 439 943 563 m 685 785 q 500 838 600 838 q 251 731 353 838 q 149 443 149 624 q 288 106 149 219 l 685 785 m 858 424 q 721 758 858 644 q 324 79 325 79 q 506 29 406 29 q 756 136 654 29 q 858 424 858 243 m 696 1200 l 476 954 l 447 954 l 588 1200 l 696 1200 z "},"ǿ":{"ha":719,"x_min":58,"x_max":661,"o":"m 624 717 l 543 576 q 661 310 661 485 q 574 78 661 176 q 354 -21 486 -21 q 215 13 279 -21 l 149 -103 l 97 -103 l 179 35 q 58 304 58 128 q 146 536 58 438 q 365 635 233 635 q 508 600 443 635 l 576 717 l 624 717 m 478 549 q 351 594 418 594 q 194 520 253 594 q 135 317 135 446 q 213 93 135 185 l 478 549 m 585 297 q 510 519 585 438 l 244 63 q 368 19 297 19 q 526 94 467 19 q 585 297 585 168 m 547 947 l 328 701 l 299 701 l 439 947 l 547 947 z "},"Ș":{"ha":658,"x_min":53,"x_max":614,"o":"m 614 226 q 530 48 614 117 q 313 -21 446 -21 q 76 8 185 -21 l 53 249 l 100 249 l 151 54 q 322 25 224 25 q 488 76 426 25 q 550 206 550 128 q 503 322 550 278 q 322 414 456 365 q 133 514 193 461 q 72 656 72 567 q 149 824 72 761 q 351 888 225 888 q 504 874 439 888 l 578 894 l 578 629 l 531 629 l 501 806 q 338 843 438 843 q 189 794 242 843 q 136 676 136 746 q 188 558 136 601 q 365 471 240 515 q 556 372 499 424 q 614 226 614 321 m 439 -169 q 294 -349 439 -279 l 279 -331 q 369 -203 369 -282 q 352 -158 369 -176 q 317 -133 335 -140 l 300 -126 q 315 -87 300 -103 q 357 -71 331 -71 q 415 -100 392 -71 q 439 -169 439 -129 z "},"ș":{"ha":544,"x_min":67,"x_max":479,"o":"m 479 168 q 419 35 479 90 q 242 -21 358 -21 q 75 7 156 -21 l 67 179 l 114 179 l 138 50 q 256 19 189 19 q 376 57 329 19 q 422 151 422 94 q 410 203 422 182 q 372 241 399 225 q 322 266 344 257 q 260 288 300 275 q 190 313 217 301 q 133 344 164 324 q 88 394 103 364 q 74 467 74 425 q 129 588 74 540 q 281 636 185 636 q 403 618 336 636 l 444 624 l 461 436 l 414 436 l 390 565 q 267 596 339 596 q 167 564 204 596 q 131 485 131 532 q 141 442 131 461 q 163 410 151 422 q 201 386 175 399 q 244 367 228 374 q 294 350 261 361 q 363 324 338 336 q 419 292 389 313 q 465 240 450 271 q 479 168 479 210 m 354 -169 q 210 -349 354 -279 l 194 -331 q 285 -203 285 -282 q 267 -158 285 -176 q 233 -133 250 -140 l 215 -126 q 231 -87 215 -103 q 272 -71 246 -71 q 331 -100 307 -71 q 354 -169 354 -129 z "},"Ț":{"ha":829,"x_min":38,"x_max":779,"o":"m 779 613 l 735 613 l 710 785 q 703 806 707 800 q 675 817 700 811 q 608 823 650 822 q 476 824 567 824 l 451 824 l 451 63 q 458 54 451 57 l 579 43 l 583 0 l 246 0 l 250 43 l 371 54 q 378 63 378 57 l 378 824 l 350 824 q 191 820 238 824 q 135 810 144 817 q 121 785 125 804 l 85 615 l 38 615 l 63 868 l 779 868 l 779 613 m 492 -169 q 347 -349 492 -279 l 332 -331 q 422 -203 422 -282 q 405 -158 422 -176 q 369 -133 388 -140 l 353 -126 q 368 -87 353 -103 q 410 -71 383 -71 q 468 -100 444 -71 q 492 -169 492 -129 z "},"ț":{"ha":433,"x_min":11,"x_max":401,"o":"m 401 32 q 257 -21 331 -21 q 113 124 110 -21 l 117 556 l 11 560 l 15 596 l 117 613 l 126 728 l 182 725 l 181 607 l 400 607 l 390 556 l 181 556 q 175 136 175 138 q 195 58 174 82 q 268 33 217 33 q 390 71 321 33 l 401 32 m 331 -175 q 186 -354 331 -285 l 171 -336 q 261 -208 261 -287 q 244 -164 261 -182 q 208 -139 226 -146 l 192 -132 q 207 -92 192 -108 q 249 -76 222 -76 q 307 -106 283 -76 q 331 -175 331 -135 z "},"ȷ":{"ha":336,"x_min":-79,"x_max":206,"o":"m 206 -74 q 158 -285 203 -207 q 17 -362 113 -362 q -51 -342 -22 -362 q -79 -283 -79 -322 q -64 -245 -79 -261 q -26 -229 -49 -229 q 35 -318 32 -229 q 116 -258 92 -310 q 140 -89 140 -207 l 140 540 q 138 553 140 549 q 133 558 136 558 l 125 561 l 18 571 l 22 606 l 206 635 l 206 -74 z "},"ˆ":{"ha":556,"x_min":88,"x_max":468,"o":"m 468 701 l 432 701 q 279 918 281 918 l 276 918 l 124 701 l 88 701 l 256 989 l 300 989 l 468 701 z "},"ˇ":{"ha":556,"x_min":88,"x_max":468,"o":"m 468 989 l 300 701 l 256 701 l 88 989 l 124 989 l 276 772 l 279 772 l 432 989 l 468 989 z "},"˘":{"ha":556,"x_min":88,"x_max":468,"o":"m 468 947 q 451 880 458 908 q 426 815 443 851 q 391 756 410 779 q 343 717 372 733 q 278 701 314 701 q 213 717 242 701 q 165 756 183 733 q 129 815 146 779 q 105 880 113 851 q 88 947 97 908 l 124 947 q 190 799 153 843 q 278 756 226 756 q 366 799 329 756 q 432 947 403 843 l 468 947 z "},"˙":{"ha":554,"x_min":207,"x_max":347,"o":"m 328 876 q 338 865 328 876 q 347 824 347 854 q 328 770 347 793 q 276 747 308 747 q 226 770 244 747 q 207 824 207 793 q 226 876 207 854 q 276 899 244 899 q 328 876 308 899 z "},"˚":{"ha":556,"x_min":154,"x_max":401,"o":"m 367 925 q 384 907 367 925 q 401 836 401 889 q 367 747 401 783 q 278 711 333 711 q 188 747 222 711 q 154 836 154 783 q 188 925 154 889 q 278 961 222 961 q 367 925 333 961 m 338 772 q 350 785 338 772 q 361 836 361 799 q 338 900 361 874 q 278 926 315 926 q 217 900 240 926 q 194 836 194 874 q 217 772 194 799 q 278 746 240 746 q 338 772 315 746 z "},"˛":{"ha":556,"x_min":201,"x_max":404,"o":"m 304 -279 q 230 -252 258 -279 q 201 -175 201 -225 q 247 -58 201 -115 q 351 36 293 0 l 394 36 q 257 -156 257 -57 q 274 -212 257 -190 q 318 -235 290 -235 q 386 -201 367 -235 l 404 -217 q 304 -279 371 -279 z "},"˜":{"ha":556,"x_min":61,"x_max":494,"o":"m 494 867 q 371 722 468 722 q 265 772 331 722 q 181 821 199 821 q 133 803 150 821 q 96 729 115 786 l 61 729 q 185 874 88 874 q 292 824 225 874 q 375 775 358 775 q 422 792 404 775 q 458 867 439 810 l 494 867 z "},"˝":{"ha":556,"x_min":100,"x_max":524,"o":"m 524 947 l 336 701 l 306 701 l 428 947 l 524 947 m 318 947 l 131 701 l 100 701 l 222 947 l 318 947 z "},"Ẁ":{"ha":1251,"x_min":-17,"x_max":1265,"o":"m 1265 868 l 1261 825 l 1168 815 q 1158 806 1163 815 l 917 -6 l 844 -6 l 629 628 l 628 628 l 419 -6 l 343 -6 l 93 804 q 82 815 90 814 l -12 825 l -17 868 l 289 868 l 285 825 l 181 817 q 171 807 168 817 l 390 69 l 392 69 l 600 707 l 571 804 q 558 815 568 814 l 461 825 l 457 868 l 763 868 l 758 825 l 651 817 q 643 807 640 817 l 886 69 l 888 69 l 1096 803 q 1092 813 1099 813 l 985 825 l 981 868 l 1265 868 m 669 954 l 640 954 l 421 1200 l 529 1200 l 669 954 z "},"ẁ":{"ha":938,"x_min":-18,"x_max":956,"o":"m 956 615 l 951 572 l 878 563 q 868 553 872 563 l 689 -6 l 618 -6 l 474 403 l 318 -6 l 247 -6 l 68 551 q 56 563 65 561 l -14 572 l -18 615 l 222 615 l 218 572 l 142 564 q 133 554 132 561 l 292 54 l 447 469 l 418 551 q 406 563 415 561 l 336 572 l 332 615 l 575 615 l 571 572 l 493 564 q 485 554 483 561 l 661 54 l 813 550 q 808 560 815 560 l 732 572 l 728 615 l 956 615 m 525 701 l 496 701 l 276 947 l 385 947 l 525 701 z "},"Ẃ":{"ha":1251,"x_min":-17,"x_max":1265,"o":"m 1265 868 l 1261 825 l 1168 815 q 1158 806 1163 815 l 917 -6 l 844 -6 l 629 628 l 628 628 l 419 -6 l 343 -6 l 93 804 q 82 815 90 814 l -12 825 l -17 868 l 289 868 l 285 825 l 181 817 q 171 807 168 817 l 390 69 l 392 69 l 600 707 l 571 804 q 558 815 568 814 l 461 825 l 457 868 l 763 868 l 758 825 l 651 817 q 643 807 640 817 l 886 69 l 888 69 l 1096 803 q 1092 813 1099 813 l 985 825 l 981 868 l 1265 868 m 818 1200 l 599 954 l 569 954 l 710 1200 l 818 1200 z "},"ẃ":{"ha":938,"x_min":-18,"x_max":956,"o":"m 956 615 l 951 572 l 878 563 q 868 553 872 563 l 689 -6 l 618 -6 l 474 403 l 318 -6 l 247 -6 l 68 551 q 56 563 65 561 l -14 572 l -18 615 l 222 615 l 218 572 l 142 564 q 133 554 132 561 l 292 54 l 447 469 l 418 551 q 406 563 415 561 l 336 572 l 332 615 l 575 615 l 571 572 l 493 564 q 485 554 483 561 l 661 54 l 813 550 q 808 560 815 560 l 732 572 l 728 615 l 956 615 m 668 947 l 449 701 l 419 701 l 560 947 l 668 947 z "},"Ẅ":{"ha":1251,"x_min":-17,"x_max":1265,"o":"m 1265 868 l 1261 825 l 1168 815 q 1158 806 1163 815 l 917 -6 l 844 -6 l 629 628 l 628 628 l 419 -6 l 343 -6 l 93 804 q 82 815 90 814 l -12 825 l -17 868 l 289 868 l 285 825 l 181 817 q 171 807 168 817 l 390 69 l 392 69 l 600 707 l 571 804 q 558 815 568 814 l 461 825 l 457 868 l 763 868 l 758 825 l 651 817 q 643 807 640 817 l 886 69 l 888 69 l 1096 803 q 1092 813 1099 813 l 985 825 l 981 868 l 1265 868 m 809 1097 q 818 1086 809 1097 q 826 1049 826 1076 q 809 1000 826 1021 q 764 979 792 979 q 717 1000 735 979 q 699 1049 699 1021 q 717 1097 699 1076 q 764 1117 735 1117 q 809 1097 792 1117 m 533 1097 q 541 1086 533 1097 q 550 1049 550 1076 q 533 1000 550 1021 q 486 979 515 979 q 440 1000 457 979 q 424 1049 424 1021 q 440 1097 424 1076 q 486 1117 457 1117 q 533 1097 515 1117 z "},"ẅ":{"ha":938,"x_min":-18,"x_max":956,"o":"m 956 615 l 951 572 l 878 563 q 868 553 872 563 l 689 -6 l 618 -6 l 474 403 l 318 -6 l 247 -6 l 68 551 q 56 563 65 561 l -14 572 l -18 615 l 222 615 l 218 572 l 142 564 q 133 554 132 561 l 292 54 l 447 469 l 418 551 q 406 563 415 561 l 336 572 l 332 615 l 575 615 l 571 572 l 493 564 q 485 554 483 561 l 661 54 l 813 550 q 808 560 815 560 l 732 572 l 728 615 l 956 615 m 652 844 q 661 834 652 844 q 669 796 669 824 q 652 747 669 768 q 607 726 635 726 q 560 747 578 726 q 542 796 542 768 q 560 844 542 824 q 607 864 578 864 q 652 844 635 864 m 376 844 q 384 834 376 844 q 393 796 393 824 q 376 747 393 768 q 329 726 358 726 q 283 747 300 726 q 267 796 267 768 q 283 844 267 824 q 329 864 300 864 q 376 844 358 864 z "}," ":{"ha":106,"x_min":0,"x_max":0,"o":""},"–":{"ha":653,"x_min":32,"x_max":621,"o":"m 621 285 l 32 285 l 36 338 l 617 338 l 621 285 z "},"—":{"ha":1294,"x_min":32,"x_max":1263,"o":"m 1263 285 l 32 285 l 36 338 l 1258 338 l 1263 285 z "},"‘":{"ha":294,"x_min":56,"x_max":253,"o":"m 228 618 q 213 573 228 592 q 164 554 197 554 q 86 588 117 554 q 56 671 56 621 q 235 928 56 807 l 253 906 q 140 718 140 818 q 149 680 140 697 q 172 652 158 663 q 197 634 185 642 q 219 623 210 626 q 228 618 228 619 z "},"’":{"ha":294,"x_min":42,"x_max":239,"o":"m 239 799 q 60 542 239 663 l 42 564 q 154 751 154 651 q 145 790 154 772 q 123 817 136 807 q 97 835 110 828 q 76 847 85 843 q 67 851 67 850 q 82 897 67 878 q 131 915 97 915 q 208 882 178 915 q 239 799 239 849 z "},"‚":{"ha":294,"x_min":42,"x_max":239,"o":"m 239 25 q 60 -232 239 -111 l 42 -210 q 154 -22 154 -122 q 145 16 154 -1 q 123 44 136 33 q 97 62 110 54 q 76 73 85 69 q 67 78 67 76 q 82 123 67 104 q 131 142 97 142 q 208 108 178 142 q 239 25 239 75 z "},"“":{"ha":558,"x_min":56,"x_max":517,"o":"m 492 618 q 476 573 492 592 q 428 554 461 554 q 350 588 381 554 q 319 671 319 621 q 499 928 319 807 l 517 906 q 404 718 404 818 q 413 680 404 697 q 435 652 422 663 q 460 634 447 642 q 483 623 474 626 q 492 618 492 619 m 228 618 q 213 573 228 592 q 164 554 197 554 q 86 588 117 554 q 56 671 56 621 q 235 928 56 807 l 253 906 q 140 718 140 818 q 149 680 140 697 q 172 652 158 663 q 197 634 185 642 q 219 623 210 626 q 228 618 228 619 z "},"”":{"ha":558,"x_min":42,"x_max":503,"o":"m 503 799 q 324 542 503 663 l 306 564 q 418 751 418 651 q 409 790 418 772 q 388 817 400 807 q 362 835 375 828 q 340 847 349 843 q 331 851 331 850 q 346 897 331 878 q 394 915 361 915 q 472 882 442 915 q 503 799 503 849 m 239 799 q 60 542 239 663 l 42 564 q 154 751 154 651 q 145 790 154 772 q 123 817 136 807 q 97 835 110 828 q 76 847 85 843 q 67 851 67 850 q 82 897 67 878 q 131 915 97 915 q 208 882 178 915 q 239 799 239 849 z "},"„":{"ha":558,"x_min":42,"x_max":503,"o":"m 503 25 q 324 -232 503 -111 l 306 -210 q 418 -22 418 -122 q 409 16 418 -1 q 388 44 400 33 q 362 62 375 54 q 340 73 349 69 q 331 78 331 76 q 346 123 331 104 q 394 142 361 142 q 472 108 442 142 q 503 25 503 75 m 239 25 q 60 -232 239 -111 l 42 -210 q 154 -22 154 -122 q 145 16 154 -1 q 123 44 136 33 q 97 62 110 54 q 76 73 85 69 q 67 78 67 76 q 82 123 67 104 q 131 142 97 142 q 208 108 178 142 q 239 25 239 75 z "},"†":{"ha":653,"x_min":50,"x_max":607,"o":"m 607 600 l 601 550 l 351 550 l 351 -217 l 304 -217 l 304 550 l 56 550 l 50 600 l 304 600 l 304 868 l 351 868 l 351 600 l 607 600 z "},"‡":{"ha":653,"x_min":50,"x_max":607,"o":"m 607 29 l 351 29 l 351 -217 l 304 -217 l 304 29 l 50 29 l 56 79 l 304 79 l 304 571 l 56 571 l 50 621 l 304 621 l 304 868 l 351 868 l 351 621 l 607 621 l 601 571 l 351 571 l 351 79 l 601 79 l 607 29 z "},"•":{"ha":632,"x_min":49,"x_max":583,"o":"m 555 422 q 569 387 555 422 q 583 322 583 353 q 556 223 583 292 q 506 132 528 154 q 415 83 485 111 q 315 54 346 54 q 217 83 286 54 q 128 132 147 111 q 78 224 107 154 q 49 322 49 293 q 78 422 49 353 q 128 511 107 490 q 218 560 149 532 q 317 589 288 589 q 416 560 347 589 q 506 511 485 532 q 555 422 526 490 z "},"…":{"ha":892,"x_min":79,"x_max":813,"o":"m 813 50 q 793 1 813 22 q 743 -19 774 -19 q 693 1 713 -19 q 674 50 674 22 q 693 97 674 78 q 743 117 713 117 q 793 97 774 117 q 813 50 813 76 m 515 50 q 496 1 515 22 q 446 -19 476 -19 q 396 1 415 -19 q 376 50 376 22 q 396 97 376 78 q 446 117 415 117 q 496 97 476 117 q 515 50 515 76 m 218 50 q 199 1 218 22 q 149 -19 179 -19 q 99 1 118 -19 q 79 50 79 22 q 99 97 79 78 q 149 117 118 117 q 199 97 179 117 q 218 50 218 76 z "},"‰":{"ha":1564,"x_min":24,"x_max":1540,"o":"m 485 669 q 422 507 485 574 q 254 440 358 440 q 88 507 151 440 q 24 669 24 574 q 87 834 24 767 q 254 901 150 901 q 422 835 358 901 q 485 669 485 768 m 908 888 l 193 -21 l 129 -21 l 846 888 l 908 888 m 1540 197 q 1477 33 1540 100 q 1310 -35 1414 -35 q 1142 32 1206 -35 q 1079 197 1079 99 q 1142 360 1079 293 q 1310 426 1206 426 q 1476 360 1413 426 q 1540 197 1540 293 m 1013 197 q 949 33 1013 100 q 782 -35 886 -35 q 615 32 678 -35 q 551 197 551 99 q 615 360 551 293 q 782 426 678 426 q 949 360 885 426 q 1013 197 1013 293 m 428 669 q 381 799 428 747 q 254 850 333 850 q 128 799 175 850 q 81 669 81 747 q 128 544 81 596 q 254 492 176 492 q 380 544 332 492 q 428 669 428 596 m 1483 197 q 1435 323 1483 271 q 1310 375 1388 375 q 1184 323 1232 375 q 1136 197 1136 271 q 1183 68 1136 119 q 1310 17 1231 17 q 1436 68 1389 17 q 1483 197 1483 119 m 956 197 q 908 323 956 271 q 782 375 860 375 q 656 323 704 375 q 608 197 608 271 q 656 68 608 119 q 782 17 703 17 q 908 68 861 17 q 956 197 956 119 z "},"‹":{"ha":431,"x_min":56,"x_max":363,"o":"m 363 92 l 350 64 l 56 282 l 56 332 l 350 550 l 363 522 l 142 307 l 363 92 z "},"›":{"ha":431,"x_min":61,"x_max":368,"o":"m 368 282 l 74 64 l 61 92 l 282 307 l 61 522 l 74 550 l 368 332 l 368 282 z "},"⁄":{"ha":807,"x_min":14,"x_max":793,"o":"m 793 888 l 82 -21 l 14 -21 l 726 888 l 793 888 z "},"⁰":{"ha":458,"x_min":29,"x_max":429,"o":"m 228 368 q 85 440 142 368 q 29 635 29 513 q 85 834 29 756 q 235 913 142 913 q 375 840 321 913 q 429 644 429 768 q 375 446 429 524 q 228 368 321 368 m 238 399 q 328 460 294 399 q 361 633 361 522 q 326 817 361 753 q 226 882 292 882 q 133 820 168 882 q 97 647 97 758 q 135 464 97 529 q 238 399 172 399 z "},"⁴":{"ha":458,"x_min":19,"x_max":433,"o":"m 278 379 l 278 539 l 24 539 l 19 568 l 294 913 l 338 913 l 338 576 l 433 576 l 428 539 l 338 539 l 338 379 l 278 379 m 65 576 l 278 576 l 278 836 l 274 836 l 65 576 z "},"⁵":{"ha":458,"x_min":42,"x_max":396,"o":"m 169 367 q 75 387 108 367 q 42 435 42 407 q 53 462 42 451 q 82 472 65 472 q 125 454 106 472 q 149 410 144 436 q 201 399 169 399 q 297 437 260 399 q 335 529 335 475 q 78 676 335 649 l 133 899 l 396 899 l 394 840 l 156 840 l 126 725 q 319 671 244 714 q 393 549 393 628 q 328 419 393 472 q 169 367 263 367 z "},"⁶":{"ha":458,"x_min":40,"x_max":421,"o":"m 232 365 q 93 423 146 365 q 40 565 40 481 q 142 794 40 696 q 399 921 243 892 l 406 897 q 115 643 178 838 l 118 640 q 256 696 178 696 q 375 650 329 696 q 421 539 421 604 q 365 414 421 463 q 232 365 308 365 m 243 392 q 327 428 294 392 q 360 517 360 465 q 321 618 360 579 q 229 657 282 657 q 114 615 164 657 q 107 556 107 604 q 145 442 107 492 q 243 392 183 392 z "},"⁷":{"ha":458,"x_min":49,"x_max":432,"o":"m 111 374 l 378 844 l 378 849 l 204 849 q 122 844 139 849 q 97 822 104 840 q 78 772 79 778 l 49 772 l 67 904 l 428 904 l 432 871 l 161 374 l 111 374 z "},"⁸":{"ha":458,"x_min":44,"x_max":414,"o":"m 218 364 q 95 403 146 364 q 44 501 44 443 q 174 640 44 590 l 174 642 q 57 774 57 696 q 108 872 57 829 q 240 915 158 915 q 352 878 306 915 q 399 785 399 840 q 288 653 399 701 l 288 651 q 381 593 349 624 q 414 513 414 563 q 360 407 414 450 q 218 364 307 364 m 264 663 q 339 778 339 708 q 305 857 339 824 q 218 890 271 890 q 141 863 169 890 q 113 794 113 836 q 151 722 113 750 q 264 663 189 693 m 240 390 q 328 419 296 390 q 360 493 360 449 q 322 566 360 539 q 211 625 285 593 q 197 631 201 629 q 106 507 106 575 q 143 424 106 457 q 240 390 181 390 z "},"⁹":{"ha":458,"x_min":36,"x_max":418,"o":"m 60 360 l 53 383 q 342 639 283 446 l 340 640 q 203 586 279 586 q 83 632 129 586 q 36 742 36 678 q 92 867 36 819 q 226 915 149 915 q 365 857 311 915 q 418 715 418 799 q 316 488 418 586 q 60 360 214 389 m 229 624 q 343 665 289 624 q 351 726 351 679 q 313 840 351 790 q 214 889 275 889 q 131 852 163 889 q 99 764 99 815 q 137 663 99 701 q 229 624 175 624 z "},"⁺":{"ha":458,"x_min":65,"x_max":413,"o":"m 413 622 l 258 622 l 258 465 l 221 465 l 221 622 l 65 622 l 68 660 l 221 660 l 221 815 l 258 815 l 258 660 l 411 660 l 413 622 z "},"⁻":{"ha":458,"x_min":69,"x_max":417,"o":"m 417 618 l 69 618 l 71 664 l 414 664 l 417 618 z "},"₀":{"ha":458,"x_min":29,"x_max":429,"o":"m 228 -210 q 85 -137 142 -210 q 29 57 29 -65 q 85 256 29 178 q 235 335 142 335 q 375 263 321 335 q 429 67 429 190 q 375 -132 429 -54 q 228 -210 321 -210 m 238 -179 q 328 -117 294 -179 q 361 56 361 -56 q 326 240 361 175 q 226 304 292 304 q 133 242 168 304 q 97 69 97 181 q 135 -114 97 -49 q 238 -179 172 -179 z "},"₁":{"ha":458,"x_min":79,"x_max":385,"o":"m 86 -199 l 89 -168 l 193 -157 q 214 -137 214 -151 l 214 278 l 79 285 l 82 308 l 272 336 l 272 -137 q 293 -157 272 -156 l 382 -168 l 385 -199 l 86 -199 z "},"₂":{"ha":458,"x_min":31,"x_max":421,"o":"m 33 -199 l 31 -158 q 101 -94 57 -135 q 166 -35 146 -54 q 217 13 186 -17 q 263 60 249 43 q 292 101 276 78 q 314 143 308 124 q 319 183 319 163 q 289 258 319 231 q 213 285 258 285 q 60 200 115 285 l 44 215 q 229 338 111 338 q 346 297 300 338 q 392 197 392 256 q 378 133 392 164 q 331 67 364 101 q 267 6 297 32 q 177 -67 236 -19 q 79 -149 118 -115 l 99 -150 l 168 -150 q 326 -143 296 -150 q 368 -104 356 -136 l 385 -58 l 421 -58 l 397 -199 l 33 -199 z "},"₃":{"ha":458,"x_min":40,"x_max":400,"o":"m 158 -215 q 73 -199 106 -215 q 40 -156 40 -182 q 52 -129 40 -139 q 82 -119 64 -119 q 125 -137 106 -119 q 150 -181 144 -154 q 182 -183 158 -183 q 289 -147 246 -183 q 331 -57 332 -110 q 296 20 331 -8 q 210 49 261 49 q 115 26 163 49 l 106 47 q 267 147 233 115 q 297 211 299 179 q 192 285 297 285 q 56 210 117 285 l 40 225 q 224 338 119 338 q 328 310 286 338 q 369 235 369 283 q 329 153 369 188 q 208 81 289 118 l 208 79 q 343 62 289 94 q 399 -39 397 29 q 328 -161 400 -107 q 158 -215 257 -215 z "},"₄":{"ha":458,"x_min":19,"x_max":433,"o":"m 278 -199 l 278 -39 l 24 -39 l 19 -10 l 294 335 l 338 335 l 338 -1 l 433 -1 l 428 -39 l 338 -39 l 338 -199 l 278 -199 m 65 -1 l 278 -1 l 278 258 l 274 258 l 65 -1 z "},"₅":{"ha":458,"x_min":42,"x_max":396,"o":"m 169 -211 q 75 -191 108 -211 q 42 -143 42 -171 q 53 -116 42 -126 q 82 -106 65 -106 q 125 -124 106 -106 q 149 -168 144 -142 q 201 -179 169 -179 q 297 -141 260 -179 q 335 -49 335 -103 q 78 99 335 71 l 133 321 l 396 321 l 394 263 l 156 263 l 126 147 q 319 93 244 136 q 393 -29 393 50 q 328 -158 393 -106 q 169 -211 263 -211 z "},"₆":{"ha":458,"x_min":40,"x_max":421,"o":"m 232 -212 q 93 -155 146 -212 q 40 -12 40 -97 q 142 216 40 118 q 399 343 243 314 l 406 319 q 115 65 178 260 l 118 63 q 256 118 178 118 q 375 72 329 118 q 421 -39 421 26 q 365 -164 421 -115 q 232 -212 308 -212 m 243 -186 q 327 -149 294 -186 q 360 -61 360 -112 q 321 40 360 1 q 229 79 282 79 q 114 38 164 79 q 107 -22 107 26 q 145 -136 107 -86 q 243 -186 183 -186 z "},"₇":{"ha":458,"x_min":49,"x_max":432,"o":"m 111 -204 l 378 267 l 378 271 l 204 271 q 122 267 139 271 q 97 244 104 263 q 78 194 79 200 l 49 194 l 67 326 l 428 326 l 432 293 l 161 -204 l 111 -204 z "},"₈":{"ha":458,"x_min":44,"x_max":414,"o":"m 218 -214 q 95 -174 146 -214 q 44 -76 44 -135 q 174 63 44 13 l 174 64 q 57 196 57 118 q 108 294 57 251 q 240 338 158 338 q 352 300 306 338 q 399 207 399 263 q 288 75 399 124 l 288 74 q 381 15 349 46 q 414 -65 414 -15 q 360 -171 414 -128 q 218 -214 307 -214 m 264 85 q 339 200 339 131 q 305 279 339 246 q 218 313 271 313 q 141 285 169 313 q 113 217 113 258 q 151 144 113 172 q 264 85 189 115 m 240 -187 q 328 -158 296 -187 q 360 -85 360 -129 q 322 -12 360 -39 q 211 47 285 15 q 197 53 201 51 q 106 -71 106 -3 q 143 -154 106 -121 q 240 -187 181 -187 z "},"₉":{"ha":458,"x_min":36,"x_max":418,"o":"m 60 -218 l 53 -194 q 342 61 283 -132 l 340 63 q 203 8 279 8 q 83 54 129 8 q 36 164 36 100 q 92 290 36 242 q 226 338 149 338 q 365 279 311 338 q 418 138 418 221 q 316 -90 418 8 q 60 -218 214 -189 m 229 46 q 343 88 289 46 q 351 149 351 101 q 313 262 351 213 q 214 311 275 311 q 131 274 163 311 q 99 186 99 238 q 137 85 99 124 q 229 46 175 46 z "},"€":{"ha":689,"x_min":15,"x_max":676,"o":"m 676 138 q 424 -21 592 -21 q 226 64 311 -21 q 110 290 140 149 l 15 290 l 19 339 l 101 339 q 97 421 97 378 q 99 474 97 457 l 15 474 l 19 522 l 104 522 q 220 772 129 678 q 451 865 311 865 q 599 831 540 865 q 657 749 657 796 q 644 717 657 731 q 611 703 631 703 q 562 730 581 703 q 544 799 543 757 q 435 824 514 824 q 263 742 331 824 q 178 522 194 661 l 492 522 l 496 474 l 174 474 q 172 433 172 461 q 179 339 172 388 l 492 339 l 496 290 l 189 290 q 290 103 218 169 q 442 36 361 36 q 649 153 567 36 l 676 138 z "},"™":{"ha":1244,"x_min":43,"x_max":1236,"o":"m 1236 351 l 1004 351 l 1007 389 l 1089 396 q 1093 403 1093 396 l 1079 824 l 1068 824 l 897 368 l 851 368 l 706 826 l 694 826 l 678 403 q 682 396 678 396 l 764 389 l 767 351 l 549 351 l 553 389 l 635 396 q 639 403 639 396 l 654 817 q 651 824 654 824 l 568 831 l 567 868 l 743 868 l 876 447 l 888 447 l 1042 868 l 1218 868 l 1215 831 l 1133 824 q 1131 817 1131 824 l 1144 403 q 1150 396 1144 396 l 1232 389 l 1236 351 m 500 868 l 500 704 l 465 704 l 450 801 q 440 821 447 815 q 406 829 433 826 q 317 832 379 832 l 303 832 l 303 403 q 307 396 303 396 l 399 389 l 401 351 l 150 351 l 153 389 l 244 396 q 249 403 249 396 l 249 832 l 233 832 q 124 827 144 832 q 100 803 104 822 l 79 704 l 43 704 l 57 868 l 500 868 z "},"−":{"ha":667,"x_min":49,"x_max":618,"o":"m 618 296 l 49 296 l 53 356 l 614 356 l 618 296 z "},"∕":{"ha":807,"x_min":14,"x_max":793,"o":"m 793 888 l 82 -21 l 14 -21 l 726 888 l 793 888 z "},"≈":{"ha":667,"x_min":56,"x_max":611,"o":"m 210 458 q 106 374 133 458 l 56 374 q 210 518 82 518 q 337 472 247 518 q 457 426 426 426 q 561 511 533 426 l 611 511 q 457 367 585 367 q 321 413 411 367 q 210 458 231 458 m 210 225 q 106 140 133 225 l 56 140 q 210 285 82 285 q 337 239 247 285 q 457 193 426 193 q 561 278 533 193 l 611 278 q 457 133 585 133 q 321 179 411 133 q 210 225 231 225 z "},"≠":{"ha":667,"x_min":49,"x_max":618,"o":"m 204 -32 l 263 176 l 49 176 l 53 236 l 279 236 l 331 417 l 53 417 l 49 476 l 347 476 l 403 669 l 463 669 l 407 476 l 618 476 l 614 417 l 390 417 l 339 236 l 614 236 l 618 176 l 322 176 l 264 -32 l 204 -32 z "},"≤":{"ha":667,"x_min":44,"x_max":614,"o":"m 614 28 l 51 28 l 56 88 l 610 88 l 614 28 m 593 138 l 44 368 l 44 396 l 593 626 l 608 575 l 165 389 l 165 376 l 608 189 l 593 138 z "},"≥":{"ha":667,"x_min":53,"x_max":622,"o":"m 615 28 l 53 28 l 57 88 l 611 88 l 615 28 m 622 368 l 74 138 l 58 189 l 501 376 l 501 389 l 58 575 l 74 626 l 622 396 l 622 368 z "},"ⓟ":{"ha":1019,"x_min":56,"x_max":964,"o":"m 831 756 q 898 689 831 756 q 964 433 964 622 q 831 112 964 244 q 510 -21 699 -21 q 188 112 321 -21 q 56 433 56 244 q 188 756 56 622 q 510 889 321 889 q 831 756 699 889 m 799 144 q 859 204 799 144 q 919 433 919 264 q 799 724 919 603 q 510 844 679 844 q 220 724 340 844 q 100 433 100 603 q 220 144 100 264 q 510 24 340 24 q 799 144 679 24 m 719 542 q 665 428 719 472 q 528 383 610 383 q 458 386 500 383 l 458 233 q 463 226 458 226 l 554 219 l 557 186 l 318 186 l 322 219 l 401 226 q 406 233 406 226 l 406 642 q 401 649 406 649 l 322 656 l 318 689 l 515 689 q 667 648 615 689 q 719 542 719 607 m 664 533 q 623 626 664 594 q 506 656 582 658 l 458 654 l 458 422 q 531 413 492 413 q 629 444 594 413 q 664 533 664 476 z "},"":{"ha":556,"x_min":186,"x_max":346,"o":"m 346 -169 q 201 -349 346 -279 l 186 -331 q 276 -203 276 -282 q 259 -158 276 -176 q 225 -133 242 -140 l 207 -126 q 222 -87 207 -103 q 264 -71 238 -71 q 322 -100 299 -71 q 346 -169 346 -129 z "},"ﬀ":{"ha":790,"x_min":17,"x_max":899,"o":"m 899 894 q 886 860 899 875 q 853 846 874 846 q 807 866 826 846 q 781 919 788 886 l 779 926 l 756 929 q 633 838 676 913 q 589 638 589 763 l 589 607 l 786 607 l 776 556 l 589 556 l 589 60 q 594 51 589 51 l 724 43 l 728 0 l 413 0 l 417 43 l 518 51 q 524 60 524 51 l 524 556 l 204 556 l 204 60 q 210 51 204 51 l 339 43 l 343 0 l 28 0 l 32 43 l 133 51 q 139 60 139 51 l 139 556 l 17 561 l 26 607 l 131 607 l 133 649 q 219 866 144 778 q 407 954 293 954 q 483 935 451 954 q 514 881 514 915 q 501 847 514 861 q 468 832 489 832 q 422 852 442 832 q 396 906 403 872 l 394 913 l 371 915 q 248 824 292 899 q 204 624 204 749 l 204 607 l 515 607 l 518 654 q 601 876 524 783 q 792 968 678 968 q 867 949 836 968 q 899 894 899 929 z "},"ﬁ":{"ha":731,"x_min":17,"x_max":700,"o":"m 700 0 l 413 0 l 417 43 l 518 51 q 524 60 524 51 l 524 556 l 204 556 l 204 60 q 210 51 204 51 l 339 43 l 343 0 l 28 0 l 32 43 l 133 51 q 139 60 139 51 l 139 556 l 17 561 l 26 607 l 131 607 l 133 654 q 219 879 140 790 q 426 968 299 968 q 531 944 489 968 q 572 883 572 921 q 560 849 572 864 q 526 835 547 835 q 481 855 500 835 q 454 908 461 875 l 453 915 l 371 929 q 204 638 204 893 l 204 607 l 479 607 l 589 635 l 589 60 q 594 51 589 51 l 696 43 l 700 0 z "},"ﬂ":{"ha":740,"x_min":17,"x_max":700,"o":"m 524 556 l 204 556 l 204 60 q 210 51 204 51 l 339 43 l 343 0 l 28 0 l 32 43 l 133 51 q 139 60 139 51 l 139 556 l 17 561 l 26 607 l 131 607 l 133 654 q 219 879 140 790 q 426 968 299 968 q 522 949 486 968 l 589 968 l 589 60 q 594 51 589 51 l 696 43 l 700 0 l 413 0 l 417 43 l 518 51 q 524 60 524 51 l 524 556 m 524 835 q 454 908 468 838 l 453 915 l 371 929 q 204 638 204 893 l 204 607 l 524 607 l 524 835 z "},"ﬃ":{"ha":1115,"x_min":17,"x_max":1085,"o":"m 864 607 l 974 635 l 974 60 q 979 51 974 51 l 1081 43 l 1085 0 l 797 0 l 801 43 l 903 51 q 908 60 908 51 l 908 556 l 589 556 l 589 60 q 594 51 589 51 l 724 43 l 728 0 l 413 0 l 417 43 l 518 51 q 524 60 524 51 l 524 556 l 204 556 l 204 60 q 210 51 204 51 l 339 43 l 343 0 l 28 0 l 32 43 l 133 51 q 139 60 139 51 l 139 556 l 17 561 l 26 607 l 131 607 l 133 649 q 219 866 144 778 q 407 954 293 954 q 483 935 451 954 q 514 881 514 915 q 501 847 514 861 q 468 832 489 832 q 422 853 442 832 q 396 906 403 875 l 394 913 l 371 915 q 248 824 292 899 q 204 624 204 749 l 204 607 l 515 607 l 518 654 q 606 876 526 785 q 811 968 685 968 q 915 944 874 968 q 957 883 957 921 q 944 849 957 864 q 911 835 932 835 q 865 855 885 835 q 839 908 846 875 l 838 915 l 756 929 q 633 838 676 913 q 589 638 589 763 l 589 607 l 864 607 z "},"ﬄ":{"ha":1125,"x_min":17,"x_max":1085,"o":"m 908 556 l 589 556 l 589 60 q 594 51 589 51 l 724 43 l 728 0 l 413 0 l 417 43 l 518 51 q 524 60 524 51 l 524 556 l 204 556 l 204 60 q 210 51 204 51 l 339 43 l 343 0 l 28 0 l 32 43 l 133 51 q 139 60 139 51 l 139 556 l 17 561 l 26 607 l 131 607 l 133 649 q 219 866 144 778 q 407 954 293 954 q 483 935 451 954 q 514 881 514 915 q 501 847 514 861 q 468 832 489 832 q 422 853 442 832 q 396 906 403 875 l 394 913 l 371 915 q 248 824 292 899 q 204 624 204 749 l 204 607 l 515 607 l 518 654 q 606 876 526 785 q 811 968 685 968 q 907 949 871 968 l 974 968 l 974 60 q 979 51 974 51 l 1081 43 l 1085 0 l 797 0 l 801 43 l 903 51 q 908 60 908 51 l 908 556 m 908 835 q 839 908 853 838 l 838 915 l 756 929 q 633 838 676 913 q 589 638 589 763 l 589 607 l 908 607 l 908 835 z "}}}
